<?xml version="1.0" encoding="UTF-8" standalone="no"?><svg xmlns="http://www.w3.org/2000/svg" xmlns:xlink="http://www.w3.org/1999/xlink" contentScriptType="application/ecmascript" contentStyleType="text/css" height="293px" preserveAspectRatio="none" style="width:376px;height:293px;" version="1.1" viewBox="0 0 376 293" width="376px" zoomAndPan="magnify"><defs><filter height="300%" id="fzhkti1i62xp8" width="300%" x="-1" y="-1"><feGaussianBlur result="blurOut" stdDeviation="2.0"/><feColorMatrix in="blurOut" result="blurOut2" type="matrix" values="0 0 0 0 0 0 0 0 0 0 0 0 0 0 0 0 0 0 .4 0"/><feOffset dx="4.0" dy="4.0" in="blurOut2" result="blurOut3"/><feBlend in="SourceGraphic" in2="blurOut3" mode="normal"/></filter></defs><g><line style="stroke:#A80036;stroke-width:1.0;stroke-dasharray:5.0,5.0;" x1="23" x2="23" y1="88.2969" y2="209.6953"/><line style="stroke:#A80036;stroke-width:1.0;stroke-dasharray:5.0,5.0;" x1="110" x2="110" y1="88.2969" y2="209.6953"/><line style="stroke:#A80036;stroke-width:1.0;stroke-dasharray:5.0,5.0;" x1="281.5" x2="281.5" y1="88.2969" y2="209.6953"/><text fill="#000000" font-family="sans-serif" font-size="14" lengthAdjust="spacingAndGlyphs" textLength="31" x="5" y="84.9951">User</text><ellipse cx="23.5" cy="15" fill="#FEFECE" filter="url(#fzhkti1i62xp8)" rx="8" ry="8" style="stroke:#A80036;stroke-width:2.0;"/><path d="M23.5,23 L23.5,50 M10.5,31 L36.5,31 M23.5,50 L10.5,65 M23.5,50 L36.5,65 " fill="none" filter="url(#fzhkti1i62xp8)" style="stroke:#A80036;stroke-width:2.0;"/><text fill="#000000" font-family="sans-serif" font-size="14" lengthAdjust="spacingAndGlyphs" textLength="31" x="5" y="221.6904">User</text><ellipse cx="23.5" cy="234.9922" fill="#FEFECE" filter="url(#fzhkti1i62xp8)" rx="8" ry="8" style="stroke:#A80036;stroke-width:2.0;"/><path d="M23.5,242.9922 L23.5,269.9922 M10.5,250.9922 L36.5,250.9922 M23.5,269.9922 L10.5,284.9922 M23.5,269.9922 L36.5,284.9922 " fill="none" filter="url(#fzhkti1i62xp8)" style="stroke:#A80036;stroke-width:2.0;"/><rect fill="#FEFECE" filter="url(#fzhkti1i62xp8)" height="46.5938" style="stroke:#A80036;stroke-width:1.5;" width="112" x="52" y="36.7031"/><text fill="#000000" font-family="sans-serif" font-size="14" font-style="italic" lengthAdjust="spacingAndGlyphs" textLength="98" x="59" y="56.6982">«Application»</text><text fill="#000000" font-family="sans-serif" font-size="14" lengthAdjust="spacingAndGlyphs" textLength="43" x="86.5" y="72.9951">Client</text><rect fill="#FEFECE" filter="url(#fzhkti1i62xp8)" height="46.5938" style="stroke:#A80036;stroke-width:1.5;" width="112" x="52" y="208.6953"/><text fill="#000000" font-family="sans-serif" font-size="14" font-style="italic" lengthAdjust="spacingAndGlyphs" textLength="98" x="59" y="228.6904">«Application»</text><text fill="#000000" font-family="sans-serif" font-size="14" lengthAdjust="spacingAndGlyphs" textLength="43" x="86.5" y="244.9873">Client</text><rect fill="#FEFECE" filter="url(#fzhkti1i62xp8)" height="46.5938" style="stroke:#A80036;stroke-width:1.5;" width="165" x="197.5" y="36.7031"/><text fill="#000000" font-family="sans-serif" font-size="14" font-style="italic" lengthAdjust="spacingAndGlyphs" textLength="151" x="204.5" y="56.6982">«Coordinating Node»</text><text fill="#000000" font-family="sans-serif" font-size="14" lengthAdjust="spacingAndGlyphs" textLength="135" x="212.5" y="72.9951">Authentication API</text><rect fill="#FEFECE" filter="url(#fzhkti1i62xp8)" height="46.5938" style="stroke:#A80036;stroke-width:1.5;" width="165" x="197.5" y="208.6953"/><text fill="#000000" font-family="sans-serif" font-size="14" font-style="italic" lengthAdjust="spacingAndGlyphs" textLength="151" x="204.5" y="228.6904">«Coordinating Node»</text><text fill="#000000" font-family="sans-serif" font-size="14" lengthAdjust="spacingAndGlyphs" textLength="135" x="212.5" y="244.9873">Authentication API</text><polygon fill="#A80036" points="98,100.2969,108,104.2969,98,108.2969,102,104.2969" style="stroke:#A80036;stroke-width:1.0;"/><line style="stroke:#A80036;stroke-width:1.0;" x1="23.5" x2="104" y1="104.2969" y2="104.2969"/><polygon fill="#A80036" points="270,129.4297,280,133.4297,270,137.4297,274,133.4297" style="stroke:#A80036;stroke-width:1.0;"/><line style="stroke:#A80036;stroke-width:1.0;" x1="110" x2="276" y1="133.4297" y2="133.4297"/><text fill="#000000" font-family="sans-serif" font-size="13" lengthAdjust="spacingAndGlyphs" textLength="148" x="117" y="128.3638">newAccount (user, pw)</text><polygon fill="#A80036" points="121,158.5625,111,162.5625,121,166.5625,117,162.5625" style="stroke:#A80036;stroke-width:1.0;"/><line style="stroke:#A80036;stroke-width:1.0;stroke-dasharray:2.0,2.0;" x1="115" x2="281" y1="162.5625" y2="162.5625"/><text fill="#000000" font-family="sans-serif" font-size="13" lengthAdjust="spacingAndGlyphs" textLength="97" x="127" y="157.4966">token or failure</text><polygon fill="#A80036" points="34.5,187.6953,24.5,191.6953,34.5,195.6953,30.5,191.6953" style="stroke:#A80036;stroke-width:1.0;"/><line style="stroke:#A80036;stroke-width:1.0;stroke-dasharray:2.0,2.0;" x1="28.5" x2="281" y1="191.6953" y2="191.6953"/><text fill="#000000" font-family="sans-serif" font-size="13" lengthAdjust="spacingAndGlyphs" textLength="120" x="40.5" y="186.6294">email confirmation</text><!--MD5=[6fa459094c15179c9edbf4f5f57fb3a3]
@startuml
actor User
participant "Client" as app_client << Application >>
User -> app_client
participant "Authentication API" as c_authenticate << Coordinating Node >>
app_client -> c_authenticate: newAccount (user, pw)
app_client <- - c_authenticate: token or failure
User <- - c_authenticate: email confirmation
@enduml

PlantUML version 1.2020.21beta3(Unknown compile time)
(GPL source distribution)
Java Runtime: Java(TM) SE Runtime Environment
JVM: Java HotSpot(TM) 64-Bit Server VM
Default Encoding: UTF-8
Language: en
Country: US
--></g></svg>