<?xml version="1.0" encoding="UTF-8" standalone="no"?><svg xmlns="http://www.w3.org/2000/svg" xmlns:xlink="http://www.w3.org/1999/xlink" contentScriptType="application/ecmascript" contentStyleType="text/css" height="809px" preserveAspectRatio="none" style="width:812px;height:809px;" version="1.1" viewBox="0 0 812 809" width="812px" zoomAndPan="magnify"><defs><filter height="300%" id="flcvhn5jsxka2" width="300%" x="-1" y="-1"><feGaussianBlur result="blurOut" stdDeviation="2.0"/><feColorMatrix in="blurOut" result="blurOut2" type="matrix" values="0 0 0 0 0 0 0 0 0 0 0 0 0 0 0 0 0 0 .4 0"/><feOffset dx="4.0" dy="4.0" in="blurOut2" result="blurOut3"/><feBlend in="SourceGraphic" in2="blurOut3" mode="normal"/></filter></defs><g><rect fill="#FFFFFF" filter="url(#flcvhn5jsxka2)" height="29.1328" style="stroke:#A80036;stroke-width:1.0;" width="10" x="333.5" y="172.6953"/><rect fill="#FFFFFF" filter="url(#flcvhn5jsxka2)" height="29.1328" style="stroke:#A80036;stroke-width:1.0;" width="10" x="333.5" y="466.1563"/><rect fill="#FFFFFF" filter="url(#flcvhn5jsxka2)" height="221.1953" style="stroke:#000000;stroke-width:2.0;" width="565.5" x="10" y="134.4297"/><rect fill="#FFFFFF" filter="url(#flcvhn5jsxka2)" height="251.4609" style="stroke:#000000;stroke-width:2.0;" width="546" x="252.5" y="398.7578"/><line style="stroke:#A80036;stroke-width:1.0;stroke-dasharray:5.0,5.0;" x1="46" x2="46" y1="88.2969" y2="725.4844"/><line style="stroke:#A80036;stroke-width:1.0;stroke-dasharray:5.0,5.0;" x1="192.5" x2="192.5" y1="88.2969" y2="725.4844"/><line style="stroke:#A80036;stroke-width:1.0;stroke-dasharray:5.0,5.0;" x1="338.5" x2="338.5" y1="88.2969" y2="725.4844"/><line style="stroke:#A80036;stroke-width:1.0;stroke-dasharray:5.0,5.0;" x1="494.5" x2="494.5" y1="88.2969" y2="725.4844"/><line style="stroke:#A80036;stroke-width:1.0;stroke-dasharray:5.0,5.0;" x1="640.5" x2="640.5" y1="88.2969" y2="725.4844"/><text fill="#000000" font-family="sans-serif" font-size="14" lengthAdjust="spacingAndGlyphs" textLength="46" x="20" y="84.9951">Owner</text><ellipse cx="46" cy="15" fill="#FEFECE" filter="url(#flcvhn5jsxka2)" rx="8" ry="8" style="stroke:#A80036;stroke-width:2.0;"/><path d="M46,23 L46,50 M33,31 L59,31 M46,50 L33,65 M46,50 L59,65 " fill="none" filter="url(#flcvhn5jsxka2)" style="stroke:#A80036;stroke-width:2.0;"/><text fill="#000000" font-family="sans-serif" font-size="14" lengthAdjust="spacingAndGlyphs" textLength="46" x="20" y="737.4795">Owner</text><ellipse cx="46" cy="750.7813" fill="#FEFECE" filter="url(#flcvhn5jsxka2)" rx="8" ry="8" style="stroke:#A80036;stroke-width:2.0;"/><path d="M46,758.7813 L46,785.7813 M33,766.7813 L59,766.7813 M46,785.7813 L33,800.7813 M46,785.7813 L59,800.7813 " fill="none" filter="url(#flcvhn5jsxka2)" style="stroke:#A80036;stroke-width:2.0;"/><rect fill="#FEFECE" filter="url(#flcvhn5jsxka2)" height="30.2969" style="stroke:#A80036;stroke-width:1.5;" width="115" x="133.5" y="53"/><text fill="#000000" font-family="sans-serif" font-size="14" lengthAdjust="spacingAndGlyphs" textLength="101" x="140.5" y="72.9951">Member Node</text><rect fill="#FEFECE" filter="url(#flcvhn5jsxka2)" height="30.2969" style="stroke:#A80036;stroke-width:1.5;" width="115" x="133.5" y="724.4844"/><text fill="#000000" font-family="sans-serif" font-size="14" lengthAdjust="spacingAndGlyphs" textLength="101" x="140.5" y="744.4795">Member Node</text><rect fill="#FEFECE" filter="url(#flcvhn5jsxka2)" height="30.2969" style="stroke:#A80036;stroke-width:1.5;" width="148" x="262.5" y="53"/><text fill="#000000" font-family="sans-serif" font-size="14" lengthAdjust="spacingAndGlyphs" textLength="134" x="269.5" y="72.9951">Coordinating Node</text><rect fill="#FEFECE" filter="url(#flcvhn5jsxka2)" height="30.2969" style="stroke:#A80036;stroke-width:1.5;" width="148" x="262.5" y="724.4844"/><text fill="#000000" font-family="sans-serif" font-size="14" lengthAdjust="spacingAndGlyphs" textLength="134" x="269.5" y="744.4795">Coordinating Node</text><rect fill="#FEFECE" filter="url(#flcvhn5jsxka2)" height="30.2969" style="stroke:#A80036;stroke-width:1.5;" width="137" x="424.5" y="53"/><text fill="#000000" font-family="sans-serif" font-size="14" lengthAdjust="spacingAndGlyphs" textLength="123" x="431.5" y="72.9951">Replication Node</text><rect fill="#FEFECE" filter="url(#flcvhn5jsxka2)" height="30.2969" style="stroke:#A80036;stroke-width:1.5;" width="137" x="424.5" y="724.4844"/><text fill="#000000" font-family="sans-serif" font-size="14" lengthAdjust="spacingAndGlyphs" textLength="123" x="431.5" y="744.4795">Replication Node</text><text fill="#000000" font-family="sans-serif" font-size="14" lengthAdjust="spacingAndGlyphs" textLength="124" x="575.5" y="84.9951">CN Administrator</text><ellipse cx="640.5" cy="15" fill="#FEFECE" filter="url(#flcvhn5jsxka2)" rx="8" ry="8" style="stroke:#A80036;stroke-width:2.0;"/><path d="M640.5,23 L640.5,50 M627.5,31 L653.5,31 M640.5,50 L627.5,65 M640.5,50 L653.5,65 " fill="none" filter="url(#flcvhn5jsxka2)" style="stroke:#A80036;stroke-width:2.0;"/><text fill="#000000" font-family="sans-serif" font-size="14" lengthAdjust="spacingAndGlyphs" textLength="124" x="575.5" y="737.4795">CN Administrator</text><ellipse cx="640.5" cy="750.7813" fill="#FEFECE" filter="url(#flcvhn5jsxka2)" rx="8" ry="8" style="stroke:#A80036;stroke-width:2.0;"/><path d="M640.5,758.7813 L640.5,785.7813 M627.5,766.7813 L653.5,766.7813 M640.5,785.7813 L627.5,800.7813 M640.5,785.7813 L653.5,800.7813 " fill="none" filter="url(#flcvhn5jsxka2)" style="stroke:#A80036;stroke-width:2.0;"/><rect fill="#FFFFFF" filter="url(#flcvhn5jsxka2)" height="29.1328" style="stroke:#A80036;stroke-width:1.0;" width="10" x="333.5" y="172.6953"/><rect fill="#FFFFFF" filter="url(#flcvhn5jsxka2)" height="29.1328" style="stroke:#A80036;stroke-width:1.0;" width="10" x="333.5" y="466.1563"/><polygon fill="#A80036" points="181,115.4297,191,119.4297,181,123.4297,185,119.4297" style="stroke:#A80036;stroke-width:1.0;"/><line style="stroke:#A80036;stroke-width:1.0;" x1="46" x2="187" y1="119.4297" y2="119.4297"/><text fill="#000000" font-family="sans-serif" font-size="13" lengthAdjust="spacingAndGlyphs" textLength="18" x="53" y="114.3638">[1]</text><text fill="#000000" font-family="sans-serif" font-size="13" lengthAdjust="spacingAndGlyphs" textLength="66" x="79" y="114.3638">listObjects</text><path d="M10,134.4297 L88,134.4297 L88,141.4297 L78,151.4297 L10,151.4297 L10,134.4297 " fill="#EEEEEE" style="stroke:#000000;stroke-width:1.0;"/><rect fill="none" height="221.1953" style="stroke:#000000;stroke-width:2.0;" width="565.5" x="10" y="134.4297"/><text fill="#000000" font-family="sans-serif" font-size="13" font-weight="bold" lengthAdjust="spacingAndGlyphs" textLength="33" x="25" y="147.4966">loop</text><text fill="#000000" font-family="sans-serif" font-size="11" font-weight="bold" lengthAdjust="spacingAndGlyphs" textLength="93" x="103" y="146.6401">[for each PID]</text><polygon fill="#A80036" points="321.5,168.6953,331.5,172.6953,321.5,176.6953,325.5,172.6953" style="stroke:#A80036;stroke-width:1.0;"/><line style="stroke:#A80036;stroke-width:1.0;" x1="46" x2="327.5" y1="172.6953" y2="172.6953"/><text fill="#000000" font-family="sans-serif" font-size="13" lengthAdjust="spacingAndGlyphs" textLength="18" x="53" y="167.6294">[2]</text><text fill="#000000" font-family="sans-serif" font-size="13" lengthAdjust="spacingAndGlyphs" textLength="161" x="79" y="167.6294">getSystemMetadata(PID)</text><polygon fill="#A80036" points="57,197.8281,47,201.8281,57,205.8281,53,201.8281" style="stroke:#A80036;stroke-width:1.0;"/><line style="stroke:#A80036;stroke-width:1.0;" x1="51" x2="337.5" y1="201.8281" y2="201.8281"/><text fill="#000000" font-family="sans-serif" font-size="13" lengthAdjust="spacingAndGlyphs" textLength="18" x="63" y="196.7622">[3]</text><text fill="#000000" font-family="sans-serif" font-size="13" lengthAdjust="spacingAndGlyphs" textLength="108" x="89" y="196.7622">systemMetadata</text><line style="stroke:#A80036;stroke-width:1.0;" x1="46" x2="88" y1="246.0938" y2="246.0938"/><line style="stroke:#A80036;stroke-width:1.0;" x1="88" x2="88" y1="246.0938" y2="259.0938"/><line style="stroke:#A80036;stroke-width:1.0;" x1="47" x2="88" y1="259.0938" y2="259.0938"/><polygon fill="#A80036" points="57,255.0938,47,259.0938,57,263.0938,53,259.0938" style="stroke:#A80036;stroke-width:1.0;"/><text fill="#000000" font-family="sans-serif" font-size="13" lengthAdjust="spacingAndGlyphs" textLength="18" x="53" y="233.4614">[4]</text><text fill="#000000" font-family="sans-serif" font-size="13" lengthAdjust="spacingAndGlyphs" textLength="24" x="79" y="225.895">edit</text><text fill="#000000" font-family="sans-serif" font-size="13" lengthAdjust="spacingAndGlyphs" textLength="107" x="79" y="241.0278">replication policy</text><polygon fill="#A80036" points="326.5,299.3594,336.5,303.3594,326.5,307.3594,330.5,303.3594" style="stroke:#A80036;stroke-width:1.0;"/><line style="stroke:#A80036;stroke-width:1.0;" x1="46" x2="332.5" y1="303.3594" y2="303.3594"/><text fill="#000000" font-family="sans-serif" font-size="13" lengthAdjust="spacingAndGlyphs" textLength="18" x="53" y="290.7271">[5]</text><text fill="#000000" font-family="sans-serif" font-size="13" lengthAdjust="spacingAndGlyphs" textLength="80" x="79" y="283.1606">Use Case 42</text><text fill="#000000" font-family="sans-serif" font-size="13" lengthAdjust="spacingAndGlyphs" textLength="162" x="79" y="298.2935">update System Metadata</text><polygon fill="#A80036" points="483,343.625,493,347.625,483,351.625,487,347.625" style="stroke:#A80036;stroke-width:1.0;"/><line style="stroke:#A80036;stroke-width:1.0;" x1="338.5" x2="489" y1="347.625" y2="347.625"/><text fill="#000000" font-family="sans-serif" font-size="13" lengthAdjust="spacingAndGlyphs" textLength="18" x="345.5" y="334.9927">[6]</text><text fill="#000000" font-family="sans-serif" font-size="13" lengthAdjust="spacingAndGlyphs" textLength="80" x="371.5" y="327.4263">Use Case 09</text><text fill="#000000" font-family="sans-serif" font-size="13" lengthAdjust="spacingAndGlyphs" textLength="59" x="371.5" y="342.5591">Replicate</text><polygon fill="#A80036" points="349.5,379.7578,339.5,383.7578,349.5,387.7578,345.5,383.7578" style="stroke:#A80036;stroke-width:1.0;"/><line style="stroke:#A80036;stroke-width:1.0;" x1="343.5" x2="639.5" y1="383.7578" y2="383.7578"/><text fill="#000000" font-family="sans-serif" font-size="13" lengthAdjust="spacingAndGlyphs" textLength="18" x="355.5" y="378.6919">[7]</text><text fill="#000000" font-family="sans-serif" font-size="13" lengthAdjust="spacingAndGlyphs" textLength="66" x="381.5" y="378.6919">listObjects</text><path d="M252.5,398.7578 L330.5,398.7578 L330.5,405.7578 L320.5,415.7578 L252.5,415.7578 L252.5,398.7578 " fill="#EEEEEE" style="stroke:#000000;stroke-width:1.0;"/><rect fill="none" height="251.4609" style="stroke:#000000;stroke-width:2.0;" width="546" x="252.5" y="398.7578"/><text fill="#000000" font-family="sans-serif" font-size="13" font-weight="bold" lengthAdjust="spacingAndGlyphs" textLength="33" x="267.5" y="411.8247">loop</text><text fill="#000000" font-family="sans-serif" font-size="11" font-weight="bold" lengthAdjust="spacingAndGlyphs" textLength="155" x="345.5" y="410.9683">[for each PID from MN]</text><polygon fill="#A80036" points="349.5,433.0234,339.5,437.0234,349.5,441.0234,345.5,437.0234" style="stroke:#A80036;stroke-width:1.0;"/><line style="stroke:#A80036;stroke-width:1.0;" x1="343.5" x2="639.5" y1="437.0234" y2="437.0234"/><text fill="#000000" font-family="sans-serif" font-size="13" lengthAdjust="spacingAndGlyphs" textLength="18" x="355.5" y="431.9575">[8]</text><text fill="#000000" font-family="sans-serif" font-size="13" lengthAdjust="spacingAndGlyphs" textLength="107" x="381.5" y="431.9575">verify replication</text><polygon fill="#A80036" points="354.5,462.1563,344.5,466.1563,354.5,470.1563,350.5,466.1563" style="stroke:#A80036;stroke-width:1.0;"/><line style="stroke:#A80036;stroke-width:1.0;" x1="348.5" x2="639.5" y1="466.1563" y2="466.1563"/><text fill="#000000" font-family="sans-serif" font-size="13" lengthAdjust="spacingAndGlyphs" textLength="18" x="360.5" y="461.0903">[9]</text><text fill="#000000" font-family="sans-serif" font-size="13" lengthAdjust="spacingAndGlyphs" textLength="161" x="386.5" y="461.0903">getSystemMetadata(PID)</text><polygon fill="#A80036" points="628.5,491.2891,638.5,495.2891,628.5,499.2891,632.5,495.2891" style="stroke:#A80036;stroke-width:1.0;"/><line style="stroke:#A80036;stroke-width:1.0;" x1="338.5" x2="634.5" y1="495.2891" y2="495.2891"/><text fill="#000000" font-family="sans-serif" font-size="13" lengthAdjust="spacingAndGlyphs" textLength="26" x="345.5" y="490.2231">[10]</text><text fill="#000000" font-family="sans-serif" font-size="13" lengthAdjust="spacingAndGlyphs" textLength="108" x="379.5" y="490.2231">systemMetadata</text><line style="stroke:#A80036;stroke-width:1.0;" x1="640.5" x2="682.5" y1="584.9531" y2="584.9531"/><line style="stroke:#A80036;stroke-width:1.0;" x1="682.5" x2="682.5" y1="584.9531" y2="597.9531"/><line style="stroke:#A80036;stroke-width:1.0;" x1="641.5" x2="682.5" y1="597.9531" y2="597.9531"/><polygon fill="#A80036" points="651.5,593.9531,641.5,597.9531,651.5,601.9531,647.5,597.9531" style="stroke:#A80036;stroke-width:1.0;"/><text fill="#000000" font-family="sans-serif" font-size="13" lengthAdjust="spacingAndGlyphs" textLength="26" x="647.5" y="549.6216">[11]</text><text fill="#000000" font-family="sans-serif" font-size="13" lengthAdjust="spacingAndGlyphs" textLength="29" x="681.5" y="519.356">edit:</text><text fill="#000000" font-family="sans-serif" font-size="13" lengthAdjust="spacingAndGlyphs" textLength="96" x="681.5" y="534.4888">replica location</text><text fill="#000000" font-family="sans-serif" font-size="13" lengthAdjust="spacingAndGlyphs" textLength="105" x="681.5" y="549.6216">authoritative MN</text><text fill="#000000" font-family="sans-serif" font-size="13" lengthAdjust="spacingAndGlyphs" textLength="57" x="681.5" y="564.7544">[archive]</text><text fill="#000000" font-family="sans-serif" font-size="13" lengthAdjust="spacingAndGlyphs" textLength="50" x="681.5" y="579.8872">[owner]</text><polygon fill="#A80036" points="349.5,638.2188,339.5,642.2188,349.5,646.2188,345.5,642.2188" style="stroke:#A80036;stroke-width:1.0;"/><line style="stroke:#A80036;stroke-width:1.0;" x1="343.5" x2="639.5" y1="642.2188" y2="642.2188"/><text fill="#000000" font-family="sans-serif" font-size="13" lengthAdjust="spacingAndGlyphs" textLength="26" x="355.5" y="629.5864">[12]</text><text fill="#000000" font-family="sans-serif" font-size="13" lengthAdjust="spacingAndGlyphs" textLength="80" x="389.5" y="622.02">Use Case 42</text><text fill="#000000" font-family="sans-serif" font-size="13" lengthAdjust="spacingAndGlyphs" textLength="162" x="389.5" y="637.1528">update System Metadata</text><polygon fill="#A80036" points="349.5,674.3516,339.5,678.3516,349.5,682.3516,345.5,678.3516" style="stroke:#A80036;stroke-width:1.0;"/><line style="stroke:#A80036;stroke-width:1.0;" x1="343.5" x2="639.5" y1="678.3516" y2="678.3516"/><text fill="#000000" font-family="sans-serif" font-size="13" lengthAdjust="spacingAndGlyphs" textLength="26" x="355.5" y="673.2856">[13]</text><text fill="#000000" font-family="sans-serif" font-size="13" lengthAdjust="spacingAndGlyphs" textLength="88" x="389.5" y="673.2856">unregister MN</text><polygon fill="#A80036" points="181,703.4844,191,707.4844,181,711.4844,185,707.4844" style="stroke:#A80036;stroke-width:1.0;"/><line style="stroke:#A80036;stroke-width:1.0;" x1="46" x2="187" y1="707.4844" y2="707.4844"/><text fill="#000000" font-family="sans-serif" font-size="13" lengthAdjust="spacingAndGlyphs" textLength="26" x="53" y="702.4185">[14]</text><text fill="#000000" font-family="sans-serif" font-size="13" lengthAdjust="spacingAndGlyphs" textLength="63" x="87" y="702.4185">shutdown</text><!--MD5=[e324589ac69b46ffaa5fd8b7569fd7b6]
@startuml
autonumber "[0] "
actor Owner
participant "Member Node" as MN
participant "Coordinating Node" as CN
participant "Replication Node" as RMN
actor "CN Administrator" as admin

Owner -> MN: listObjects
loop for each PID
  Owner -> CN: getSystemMetadata(PID)
  activate CN
  CN -> Owner: systemMetadata
  deactivate CN
  Owner -> Owner: edit\nreplication policy
  Owner -> CN: Use Case 42\nupdate System Metadata
  CN -> RMN: Use Case 09\nReplicate
end
admin -> CN: listObjects
loop for each PID from MN
  admin -> CN: verify replication
  admin -> CN: getSystemMetadata(PID)
  activate CN
  CN -> admin: systemMetadata
  deactivate CN
  admin -> admin: edit:\nreplica location\nauthoritative MN\n[archive]\n[owner]
  admin -> CN: Use Case 42\nupdate System Metadata
end
admin -> CN: unregister MN
Owner -> MN: shutdown
@enduml

PlantUML version 1.2020.21beta3(Unknown compile time)
(GPL source distribution)
Java Runtime: Java(TM) SE Runtime Environment
JVM: Java HotSpot(TM) 64-Bit Server VM
Default Encoding: UTF-8
Language: en
Country: US
--></g></svg>