<?xml version="1.0" encoding="UTF-8" standalone="no"?><svg xmlns="http://www.w3.org/2000/svg" xmlns:xlink="http://www.w3.org/1999/xlink" contentScriptType="application/ecmascript" contentStyleType="text/css" height="684px" preserveAspectRatio="none" style="width:617px;height:684px;" version="1.1" viewBox="0 0 617 684" width="617px" zoomAndPan="magnify"><defs><filter height="300%" id="ffhm8zid3yqmk" width="300%" x="-1" y="-1"><feGaussianBlur result="blurOut" stdDeviation="2.0"/><feColorMatrix in="blurOut" result="blurOut2" type="matrix" values="0 0 0 0 0 0 0 0 0 0 0 0 0 0 0 0 0 0 .4 0"/><feOffset dx="4.0" dy="4.0" in="blurOut2" result="blurOut3"/><feBlend in="SourceGraphic" in2="blurOut3" mode="normal"/></filter></defs><g><rect fill="#FFFFFF" filter="url(#ffhm8zid3yqmk)" height="29.1328" style="stroke:#A80036;stroke-width:1.0;" width="10" x="93" y="228.9297"/><rect fill="#FFFFFF" filter="url(#ffhm8zid3yqmk)" height="29.1328" style="stroke:#A80036;stroke-width:1.0;" width="10" x="93" y="406.7266"/><rect fill="#FFFFFF" filter="url(#ffhm8zid3yqmk)" height="71.2656" style="stroke:#A80036;stroke-width:1.0;" width="10" x="304" y="87.7266"/><rect fill="#FFFFFF" filter="url(#ffhm8zid3yqmk)" height="371.2656" style="stroke:#A80036;stroke-width:1.0;" width="10" x="304" y="228.9297"/><rect fill="#FFFFFF" filter="url(#ffhm8zid3yqmk)" height="95.3984" style="stroke:#A80036;stroke-width:1.0;" width="10" x="309" y="258.0625"/><rect fill="#FFFFFF" filter="url(#ffhm8zid3yqmk)" height="100.3984" style="stroke:#A80036;stroke-width:1.0;" width="10" x="309" y="406.7266"/><rect fill="#FFFFFF" filter="url(#ffhm8zid3yqmk)" height="335.1328" style="stroke:#000000;stroke-width:2.0;" width="593" x="10" y="273.0625"/><rect fill="#FFFFFF" filter="url(#ffhm8zid3yqmk)" height="146.6641" style="stroke:#000000;stroke-width:2.0;" width="527" x="20" y="368.4609"/><rect fill="#FFFFFF" height="86.0703" style="stroke:none;stroke-width:1.0;" width="593" x="10" y="522.125"/><line style="stroke:#A80036;stroke-width:1.0;" x1="98" x2="98" y1="56.5938" y2="166.9922"/><line style="stroke:#A80036;stroke-width:1.0;stroke-dasharray:1.0,4.0;" x1="98" x2="98" y1="166.9922" y2="207.7969"/><line style="stroke:#A80036;stroke-width:1.0;" x1="98" x2="98" y1="207.7969" y2="625.1953"/><line style="stroke:#A80036;stroke-width:1.0;" x1="308.5" x2="308.5" y1="56.5938" y2="166.9922"/><line style="stroke:#A80036;stroke-width:1.0;stroke-dasharray:1.0,4.0;" x1="308.5" x2="308.5" y1="166.9922" y2="207.7969"/><line style="stroke:#A80036;stroke-width:1.0;" x1="308.5" x2="308.5" y1="207.7969" y2="625.1953"/><rect fill="#FEFECE" filter="url(#ffhm8zid3yqmk)" height="46.5938" style="stroke:#A80036;stroke-width:1.5;" width="132" x="30" y="5"/><text fill="#000000" font-family="sans-serif" font-size="14" font-style="italic" lengthAdjust="spacingAndGlyphs" textLength="118" x="37" y="24.9951">«Member Node»</text><text fill="#000000" font-family="sans-serif" font-size="14" lengthAdjust="spacingAndGlyphs" textLength="22" x="85" y="41.292">MN</text><rect fill="#FEFECE" filter="url(#ffhm8zid3yqmk)" height="46.5938" style="stroke:#A80036;stroke-width:1.5;" width="132" x="30" y="624.1953"/><text fill="#000000" font-family="sans-serif" font-size="14" font-style="italic" lengthAdjust="spacingAndGlyphs" textLength="118" x="37" y="644.1904">«Member Node»</text><text fill="#000000" font-family="sans-serif" font-size="14" lengthAdjust="spacingAndGlyphs" textLength="22" x="85" y="660.4873">MN</text><rect fill="#FEFECE" filter="url(#ffhm8zid3yqmk)" height="46.5938" style="stroke:#A80036;stroke-width:1.5;" width="165" x="224.5" y="5"/><text fill="#000000" font-family="sans-serif" font-size="14" font-style="italic" lengthAdjust="spacingAndGlyphs" textLength="151" x="231.5" y="24.9951">«Coordinating Node»</text><text fill="#000000" font-family="sans-serif" font-size="14" lengthAdjust="spacingAndGlyphs" textLength="20" x="297" y="41.292">CN</text><rect fill="#FEFECE" filter="url(#ffhm8zid3yqmk)" height="46.5938" style="stroke:#A80036;stroke-width:1.5;" width="165" x="224.5" y="624.1953"/><text fill="#000000" font-family="sans-serif" font-size="14" font-style="italic" lengthAdjust="spacingAndGlyphs" textLength="151" x="231.5" y="644.1904">«Coordinating Node»</text><text fill="#000000" font-family="sans-serif" font-size="14" lengthAdjust="spacingAndGlyphs" textLength="20" x="297" y="660.4873">CN</text><rect fill="#FFFFFF" filter="url(#ffhm8zid3yqmk)" height="29.1328" style="stroke:#A80036;stroke-width:1.0;" width="10" x="93" y="228.9297"/><rect fill="#FFFFFF" filter="url(#ffhm8zid3yqmk)" height="29.1328" style="stroke:#A80036;stroke-width:1.0;" width="10" x="93" y="406.7266"/><rect fill="#FFFFFF" filter="url(#ffhm8zid3yqmk)" height="71.2656" style="stroke:#A80036;stroke-width:1.0;" width="10" x="304" y="87.7266"/><rect fill="#FFFFFF" filter="url(#ffhm8zid3yqmk)" height="371.2656" style="stroke:#A80036;stroke-width:1.0;" width="10" x="304" y="228.9297"/><rect fill="#FFFFFF" filter="url(#ffhm8zid3yqmk)" height="95.3984" style="stroke:#A80036;stroke-width:1.0;" width="10" x="309" y="258.0625"/><rect fill="#FFFFFF" filter="url(#ffhm8zid3yqmk)" height="100.3984" style="stroke:#A80036;stroke-width:1.0;" width="10" x="309" y="406.7266"/><polygon fill="#A80036" points="292,83.7266,302,87.7266,292,91.7266,296,87.7266" style="stroke:#A80036;stroke-width:1.0;"/><line style="stroke:#A80036;stroke-width:1.0;" x1="98" x2="298" y1="87.7266" y2="87.7266"/><text fill="#000000" font-family="sans-serif" font-size="13" lengthAdjust="spacingAndGlyphs" textLength="18" x="105" y="82.6606">[1]</text><text fill="#000000" font-family="sans-serif" font-size="13" lengthAdjust="spacingAndGlyphs" textLength="108" x="131" y="82.6606">synchronize(PID)</text><line style="stroke:#A80036;stroke-width:1.0;" x1="314" x2="356" y1="116.8594" y2="116.8594"/><line style="stroke:#A80036;stroke-width:1.0;" x1="356" x2="356" y1="116.8594" y2="129.8594"/><line style="stroke:#A80036;stroke-width:1.0;" x1="315" x2="356" y1="129.8594" y2="129.8594"/><polygon fill="#A80036" points="325,125.8594,315,129.8594,325,133.8594,321,129.8594" style="stroke:#A80036;stroke-width:1.0;"/><text fill="#000000" font-family="sans-serif" font-size="13" lengthAdjust="spacingAndGlyphs" textLength="18" x="321" y="111.7935">[2]</text><text fill="#000000" font-family="sans-serif" font-size="13" lengthAdjust="spacingAndGlyphs" textLength="192" x="347" y="111.7935">queue PID for synchronization</text><polygon fill="#A80036" points="109,154.9922,99,158.9922,109,162.9922,105,158.9922" style="stroke:#A80036;stroke-width:1.0;"/><line style="stroke:#A80036;stroke-width:1.0;" x1="103" x2="308" y1="158.9922" y2="158.9922"/><text fill="#000000" font-family="sans-serif" font-size="13" lengthAdjust="spacingAndGlyphs" textLength="18" x="115" y="153.9263">[3]</text><text fill="#000000" font-family="sans-serif" font-size="13" lengthAdjust="spacingAndGlyphs" textLength="22" x="141" y="153.9263">ack</text><text fill="#000000" font-family="sans-serif" font-size="11" lengthAdjust="spacingAndGlyphs" textLength="0" x="127.5" y="191.2026"/><text fill="#FF0000" font-family="sans-serif" font-size="11" font-weight="bold" lengthAdjust="spacingAndGlyphs" textLength="152" x="127.5" y="191.2026">Possibly Lengthy Delay</text><text fill="#FF0000" font-family="sans-serif" font-size="11" lengthAdjust="spacingAndGlyphs" textLength="0" x="283.5" y="191.2026"/><polygon fill="#A80036" points="114,224.9297,104,228.9297,114,232.9297,110,228.9297" style="stroke:#A80036;stroke-width:1.0;"/><line style="stroke:#A80036;stroke-width:1.0;" x1="108" x2="303" y1="228.9297" y2="228.9297"/><text fill="#000000" font-family="sans-serif" font-size="13" lengthAdjust="spacingAndGlyphs" textLength="18" x="120" y="223.8638">[4]</text><text fill="#000000" font-family="sans-serif" font-size="13" lengthAdjust="spacingAndGlyphs" textLength="161" x="146" y="223.8638">getSystemMetadata(PID)</text><polygon fill="#A80036" points="297,254.0625,307,258.0625,297,262.0625,301,258.0625" style="stroke:#A80036;stroke-width:1.0;"/><line style="stroke:#A80036;stroke-width:1.0;" x1="98" x2="303" y1="258.0625" y2="258.0625"/><text fill="#000000" font-family="sans-serif" font-size="13" lengthAdjust="spacingAndGlyphs" textLength="18" x="105" y="252.9966">[5]</text><text fill="#000000" font-family="sans-serif" font-size="13" lengthAdjust="spacingAndGlyphs" textLength="109" x="131" y="252.9966">SystemMetadata</text><path d="M10,273.0625 L76,273.0625 L76,280.0625 L66,290.0625 L10,290.0625 L10,273.0625 " fill="#EEEEEE" style="stroke:#000000;stroke-width:1.0;"/><rect fill="none" height="335.1328" style="stroke:#000000;stroke-width:2.0;" width="593" x="10" y="273.0625"/><text fill="#000000" font-family="sans-serif" font-size="13" font-weight="bold" lengthAdjust="spacingAndGlyphs" textLength="21" x="25" y="286.1294">alt</text><text fill="#000000" font-family="sans-serif" font-size="11" font-weight="bold" lengthAdjust="spacingAndGlyphs" textLength="78" x="91" y="285.2729">[New Objec]</text><line style="stroke:#A80036;stroke-width:1.0;" x1="319" x2="361" y1="311.3281" y2="311.3281"/><line style="stroke:#A80036;stroke-width:1.0;" x1="361" x2="361" y1="311.3281" y2="324.3281"/><line style="stroke:#A80036;stroke-width:1.0;" x1="320" x2="361" y1="324.3281" y2="324.3281"/><polygon fill="#A80036" points="330,320.3281,320,324.3281,330,328.3281,326,324.3281" style="stroke:#A80036;stroke-width:1.0;"/><text fill="#000000" font-family="sans-serif" font-size="13" lengthAdjust="spacingAndGlyphs" textLength="18" x="326" y="306.2622">[6]</text><text fill="#000000" font-family="sans-serif" font-size="13" lengthAdjust="spacingAndGlyphs" textLength="150" x="352" y="306.2622">store System Metadata</text><ellipse cx="605.5" cy="352.7109" fill="none" rx="4" ry="4" style="stroke:#A80036;stroke-width:1.5;"/><polygon fill="#A80036" points="588.5,349.4609,598.5,353.4609,588.5,357.4609,592.5,353.4609" style="stroke:#A80036;stroke-width:1.0;"/><line style="stroke:#A80036;stroke-width:1.0;" x1="314" x2="594.5" y1="353.4609" y2="353.4609"/><text fill="#000000" font-family="sans-serif" font-size="13" lengthAdjust="spacingAndGlyphs" textLength="18" x="321" y="348.395">[7]</text><text fill="#000000" font-family="sans-serif" font-size="13" lengthAdjust="spacingAndGlyphs" textLength="242" x="347" y="348.395">Notify index of new System Metadata</text><path d="M20,368.4609 L86,368.4609 L86,375.4609 L76,385.4609 L20,385.4609 L20,368.4609 " fill="#EEEEEE" style="stroke:#000000;stroke-width:1.0;"/><rect fill="none" height="146.6641" style="stroke:#000000;stroke-width:2.0;" width="527" x="20" y="368.4609"/><text fill="#000000" font-family="sans-serif" font-size="13" font-weight="bold" lengthAdjust="spacingAndGlyphs" textLength="21" x="35" y="381.5278">alt</text><text fill="#000000" font-family="sans-serif" font-size="11" font-weight="bold" lengthAdjust="spacingAndGlyphs" textLength="269" x="101" y="380.6714">["Is Science Metadata or Resource Map"]</text><polygon fill="#A80036" points="114,402.7266,104,406.7266,114,410.7266,110,406.7266" style="stroke:#A80036;stroke-width:1.0;"/><line style="stroke:#A80036;stroke-width:1.0;" x1="108" x2="308" y1="406.7266" y2="406.7266"/><text fill="#000000" font-family="sans-serif" font-size="13" lengthAdjust="spacingAndGlyphs" textLength="18" x="120" y="401.6606">[8]</text><text fill="#000000" font-family="sans-serif" font-size="13" lengthAdjust="spacingAndGlyphs" textLength="52" x="146" y="401.6606">get(PID)</text><polygon fill="#A80036" points="297,431.8594,307,435.8594,297,439.8594,301,435.8594" style="stroke:#A80036;stroke-width:1.0;"/><line style="stroke:#A80036;stroke-width:1.0;" x1="98" x2="303" y1="435.8594" y2="435.8594"/><text fill="#000000" font-family="sans-serif" font-size="13" lengthAdjust="spacingAndGlyphs" textLength="18" x="105" y="430.7935">[9]</text><text fill="#000000" font-family="sans-serif" font-size="13" lengthAdjust="spacingAndGlyphs" textLength="39" x="131" y="430.7935">object</text><line style="stroke:#A80036;stroke-width:1.0;" x1="319" x2="361" y1="464.9922" y2="464.9922"/><line style="stroke:#A80036;stroke-width:1.0;" x1="361" x2="361" y1="464.9922" y2="477.9922"/><line style="stroke:#A80036;stroke-width:1.0;" x1="320" x2="361" y1="477.9922" y2="477.9922"/><polygon fill="#A80036" points="330,473.9922,320,477.9922,330,481.9922,326,477.9922" style="stroke:#A80036;stroke-width:1.0;"/><text fill="#000000" font-family="sans-serif" font-size="13" lengthAdjust="spacingAndGlyphs" textLength="26" x="326" y="459.9263">[10]</text><text fill="#000000" font-family="sans-serif" font-size="13" lengthAdjust="spacingAndGlyphs" textLength="76" x="360" y="459.9263">store object</text><ellipse cx="605.5" cy="506.375" fill="none" rx="4" ry="4" style="stroke:#A80036;stroke-width:1.5;"/><polygon fill="#A80036" points="588.5,503.125,598.5,507.125,588.5,511.125,592.5,507.125" style="stroke:#A80036;stroke-width:1.0;"/><line style="stroke:#A80036;stroke-width:1.0;" x1="314" x2="594.5" y1="507.125" y2="507.125"/><text fill="#000000" font-family="sans-serif" font-size="13" lengthAdjust="spacingAndGlyphs" textLength="26" x="321" y="502.0591">[11]</text><text fill="#000000" font-family="sans-serif" font-size="13" lengthAdjust="spacingAndGlyphs" textLength="178" x="355" y="502.0591">Notify index of new content</text><line style="stroke:#000000;stroke-width:1.0;stroke-dasharray:2.0,2.0;" x1="10" x2="603" y1="523.125" y2="523.125"/><text fill="#000000" font-family="sans-serif" font-size="11" font-weight="bold" lengthAdjust="spacingAndGlyphs" textLength="120" x="15" y="533.3354">["Existing Object"]</text><line style="stroke:#A80036;stroke-width:1.0;" x1="314" x2="356" y1="558.0625" y2="558.0625"/><line style="stroke:#A80036;stroke-width:1.0;" x1="356" x2="356" y1="558.0625" y2="571.0625"/><line style="stroke:#A80036;stroke-width:1.0;" x1="315" x2="356" y1="571.0625" y2="571.0625"/><polygon fill="#A80036" points="325,567.0625,315,571.0625,325,575.0625,321,571.0625" style="stroke:#A80036;stroke-width:1.0;"/><text fill="#000000" font-family="sans-serif" font-size="13" lengthAdjust="spacingAndGlyphs" textLength="26" x="321" y="552.9966">[12]</text><text fill="#000000" font-family="sans-serif" font-size="13" lengthAdjust="spacingAndGlyphs" textLength="233" x="355" y="552.9966">update system metadata properties</text><ellipse cx="605.5" cy="599.4453" fill="none" rx="4" ry="4" style="stroke:#A80036;stroke-width:1.5;"/><polygon fill="#A80036" points="588.5,596.1953,598.5,600.1953,588.5,604.1953,592.5,600.1953" style="stroke:#A80036;stroke-width:1.0;"/><line style="stroke:#A80036;stroke-width:1.0;" x1="309" x2="594.5" y1="600.1953" y2="600.1953"/><text fill="#000000" font-family="sans-serif" font-size="13" lengthAdjust="spacingAndGlyphs" textLength="26" x="316" y="595.1294">[13]</text><text fill="#000000" font-family="sans-serif" font-size="13" lengthAdjust="spacingAndGlyphs" textLength="207" x="350" y="595.1294">Notify index of modified content</text><!--MD5=[f3fe0ec85262ee8fd140e1659b4eff51]
@startuml
autonumber "[0] "
participant MN <<Member Node>>
participant CN <<Coordinating Node>>

MN -> CN: synchronize(PID)
activate CN
CN -> CN: queue PID for synchronization
CN -> MN: ack
deactivate CN

... <font color=red>**Possibly Lengthy Delay** ...

CN -> MN: getSystemMetadata(PID)
activate CN
activate MN
MN -> CN: SystemMetadata
deactivate MN
alt New Objec
  activate CN
  CN -> CN: store System Metadata
  CN ->o]: Notify index of new System Metadata
  deactivate CN
  alt "Is Science Metadata or Resource Map"
    CN -> MN: get(PID)
    activate CN
    activate MN
    MN -> CN: object
    deactivate MN
    CN -> CN: store object
    CN ->o]: Notify index of new content
    deactivate CN
  end
else "Existing Object"

  activate CN
  CN -> CN: update system metadata properties
  CN ->o]: Notify index of modified content
  deactivate CN
end
deactivate CN
@enduml

PlantUML version 1.2020.21beta3(Unknown compile time)
(GPL source distribution)
Java Runtime: Java(TM) SE Runtime Environment
JVM: Java HotSpot(TM) 64-Bit Server VM
Default Encoding: UTF-8
Language: en
Country: US
--></g></svg>