<?xml version="1.0" encoding="UTF-8" standalone="no"?><svg xmlns="http://www.w3.org/2000/svg" xmlns:xlink="http://www.w3.org/1999/xlink" contentScriptType="application/ecmascript" contentStyleType="text/css" height="415px" preserveAspectRatio="none" style="width:595px;height:415px;" version="1.1" viewBox="0 0 595 415" width="595px" zoomAndPan="magnify"><defs><filter height="300%" id="f1te1agx11khfl" width="300%" x="-1" y="-1"><feGaussianBlur result="blurOut" stdDeviation="2.0"/><feColorMatrix in="blurOut" result="blurOut2" type="matrix" values="0 0 0 0 0 0 0 0 0 0 0 0 0 0 0 0 0 0 .4 0"/><feOffset dx="4.0" dy="4.0" in="blurOut2" result="blurOut3"/><feBlend in="SourceGraphic" in2="blurOut3" mode="normal"/></filter></defs><g><!--MD5=[1dbe6fbce2f1106b49600b6fa3501bd5]
class DataONEObject--><rect codeLine="3" fill="#FEFECE" filter="url(#f1te1agx11khfl)" height="150.4375" id="DataONEObject" style="stroke:#A80036;stroke-width:1.5;" width="139" x="7" y="142"/><ellipse cx="28.75" cy="158" fill="#ADD1B2" rx="11" ry="11" style="stroke:#A80036;stroke-width:1.0;"/><path d="M31.0938,153.6719 C30.1563,153.2344 29.5625,153.0938 28.6875,153.0938 C26.0625,153.0938 24.0625,155.1719 24.0625,157.8906 L24.0625,159.0156 C24.0625,161.5938 26.1719,163.4844 29.0625,163.4844 C30.2813,163.4844 31.4375,163.1875 32.1875,162.6406 C32.7656,162.2344 33.0938,161.7813 33.0938,161.3906 C33.0938,160.9375 32.7031,160.5469 32.2344,160.5469 C32.0156,160.5469 31.8125,160.625 31.625,160.8125 C31.1719,161.2969 31.1719,161.2969 30.9844,161.3906 C30.5625,161.6563 29.875,161.7813 29.1094,161.7813 C27.0625,161.7813 25.7656,160.6875 25.7656,158.9844 L25.7656,157.8906 C25.7656,156.1094 27.0156,154.7969 28.75,154.7969 C29.3281,154.7969 29.9375,154.9531 30.4063,155.2031 C30.8906,155.4844 31.0625,155.7031 31.1563,156.1094 C31.2188,156.5156 31.25,156.6406 31.3906,156.7656 C31.5313,156.9063 31.7656,157.0156 31.9844,157.0156 C32.25,157.0156 32.5156,156.875 32.6875,156.6563 C32.7969,156.5 32.8281,156.3125 32.8281,155.8906 L32.8281,154.4688 C32.8281,154.0313 32.8125,153.9063 32.7188,153.75 C32.5625,153.4844 32.2813,153.3438 31.9844,153.3438 C31.6875,153.3438 31.4844,153.4375 31.2656,153.75 L31.0938,153.6719 Z " fill="#000000"/><text fill="#000000" font-family="sans-serif" font-size="12" lengthAdjust="spacingAndGlyphs" textLength="92" x="44.25" y="162.1543">DataONEObject</text><line style="stroke:#A80036;stroke-width:1.5;" x1="8" x2="145" y1="174" y2="174"/><text fill="#000000" font-family="sans-serif" font-size="11" lengthAdjust="spacingAndGlyphs" textLength="47" x="13" y="188.2104">String id</text><text fill="#000000" font-family="sans-serif" font-size="11" lengthAdjust="spacingAndGlyphs" textLength="69" x="13" y="201.0151">Integer size</text><text fill="#000000" font-family="sans-serif" font-size="11" lengthAdjust="spacingAndGlyphs" textLength="84" x="13" y="213.8198">String formatId</text><text fill="#000000" font-family="sans-serif" font-size="11" lengthAdjust="spacingAndGlyphs" textLength="127" x="13" y="226.6245">String AuthoritativeMN</text><text fill="#000000" font-family="sans-serif" font-size="11" lengthAdjust="spacingAndGlyphs" textLength="112" x="13" y="239.4292">Date dateUploaded</text><text fill="#000000" font-family="sans-serif" font-size="11" lengthAdjust="spacingAndGlyphs" textLength="92" x="13" y="252.2339">Boolean isPublic</text><text fill="#000000" font-family="sans-serif" font-size="11" lengthAdjust="spacingAndGlyphs" textLength="109" x="13" y="265.0386">String obsoletedBy</text><text fill="#000000" font-family="sans-serif" font-size="11" lengthAdjust="spacingAndGlyphs" textLength="9" x="13" y="277.8433">...</text><line style="stroke:#A80036;stroke-width:1.5;" x1="8" x2="145" y1="284.4375" y2="284.4375"/><!--MD5=[28eff292bf0bdab949499e3d2af7c239]
class ResourceMap--><rect codeLine="14" fill="#FEFECE" filter="url(#f1te1agx11khfl)" height="60.8047" id="ResourceMap" style="stroke:#A80036;stroke-width:1.5;" width="122" x="225" y="340.5"/><ellipse cx="243.6" cy="356.5" fill="#ADD1B2" rx="11" ry="11" style="stroke:#A80036;stroke-width:1.0;"/><path d="M245.9438,352.1719 C245.0063,351.7344 244.4125,351.5938 243.5375,351.5938 C240.9125,351.5938 238.9125,353.6719 238.9125,356.3906 L238.9125,357.5156 C238.9125,360.0938 241.0219,361.9844 243.9125,361.9844 C245.1313,361.9844 246.2875,361.6875 247.0375,361.1406 C247.6156,360.7344 247.9438,360.2813 247.9438,359.8906 C247.9438,359.4375 247.5531,359.0469 247.0844,359.0469 C246.8656,359.0469 246.6625,359.125 246.475,359.3125 C246.0219,359.7969 246.0219,359.7969 245.8344,359.8906 C245.4125,360.1563 244.725,360.2813 243.9594,360.2813 C241.9125,360.2813 240.6156,359.1875 240.6156,357.4844 L240.6156,356.3906 C240.6156,354.6094 241.8656,353.2969 243.6,353.2969 C244.1781,353.2969 244.7875,353.4531 245.2563,353.7031 C245.7406,353.9844 245.9125,354.2031 246.0063,354.6094 C246.0688,355.0156 246.1,355.1406 246.2406,355.2656 C246.3813,355.4063 246.6156,355.5156 246.8344,355.5156 C247.1,355.5156 247.3656,355.375 247.5375,355.1563 C247.6469,355 247.6781,354.8125 247.6781,354.3906 L247.6781,352.9688 C247.6781,352.5313 247.6625,352.4063 247.5688,352.25 C247.4125,351.9844 247.1313,351.8438 246.8344,351.8438 C246.5375,351.8438 246.3344,351.9375 246.1156,352.25 L245.9438,352.1719 Z " fill="#000000"/><text fill="#000000" font-family="sans-serif" font-size="12" lengthAdjust="spacingAndGlyphs" textLength="82" x="258.4" y="360.6543">ResourceMap</text><line style="stroke:#A80036;stroke-width:1.5;" x1="226" x2="346" y1="372.5" y2="372.5"/><text fill="#000000" font-family="sans-serif" font-size="11" lengthAdjust="spacingAndGlyphs" textLength="110" x="231" y="386.7104">Relation[]: relations</text><line style="stroke:#A80036;stroke-width:1.5;" x1="226" x2="346" y1="393.3047" y2="393.3047"/><!--MD5=[534474e9f05b14d7c70186ae077f30e0]
class Relation--><rect codeLine="18" fill="#FEFECE" filter="url(#f1te1agx11khfl)" height="73.6094" id="Relation" style="stroke:#A80036;stroke-width:1.5;" width="155" x="426" y="195"/><ellipse cx="475.75" cy="211" fill="#ADD1B2" rx="11" ry="11" style="stroke:#A80036;stroke-width:1.0;"/><path d="M478.0938,206.6719 C477.1563,206.2344 476.5625,206.0938 475.6875,206.0938 C473.0625,206.0938 471.0625,208.1719 471.0625,210.8906 L471.0625,212.0156 C471.0625,214.5938 473.1719,216.4844 476.0625,216.4844 C477.2813,216.4844 478.4375,216.1875 479.1875,215.6406 C479.7656,215.2344 480.0938,214.7813 480.0938,214.3906 C480.0938,213.9375 479.7031,213.5469 479.2344,213.5469 C479.0156,213.5469 478.8125,213.625 478.625,213.8125 C478.1719,214.2969 478.1719,214.2969 477.9844,214.3906 C477.5625,214.6563 476.875,214.7813 476.1094,214.7813 C474.0625,214.7813 472.7656,213.6875 472.7656,211.9844 L472.7656,210.8906 C472.7656,209.1094 474.0156,207.7969 475.75,207.7969 C476.3281,207.7969 476.9375,207.9531 477.4063,208.2031 C477.8906,208.4844 478.0625,208.7031 478.1563,209.1094 C478.2188,209.5156 478.25,209.6406 478.3906,209.7656 C478.5313,209.9063 478.7656,210.0156 478.9844,210.0156 C479.25,210.0156 479.5156,209.875 479.6875,209.6563 C479.7969,209.5 479.8281,209.3125 479.8281,208.8906 L479.8281,207.4688 C479.8281,207.0313 479.8125,206.9063 479.7188,206.75 C479.5625,206.4844 479.2813,206.3438 478.9844,206.3438 C478.6875,206.3438 478.4844,206.4375 478.2656,206.75 L478.0938,206.6719 Z " fill="#000000"/><text fill="#000000" font-family="sans-serif" font-size="12" lengthAdjust="spacingAndGlyphs" textLength="47" x="496.25" y="215.1543">Relation</text><line style="stroke:#A80036;stroke-width:1.5;" x1="427" x2="580" y1="227" y2="227"/><text fill="#000000" font-family="sans-serif" font-size="11" lengthAdjust="spacingAndGlyphs" textLength="108" x="432" y="241.2104">URI cito:documents</text><text fill="#000000" font-family="sans-serif" font-size="11" lengthAdjust="spacingAndGlyphs" textLength="143" x="432" y="254.0151">URI cito:isDocumentedBy</text><line style="stroke:#A80036;stroke-width:1.5;" x1="427" x2="580" y1="260.6094" y2="260.6094"/><!--MD5=[39f82cb686cbc7fd59052ba6d5932559]
class ScienceMetadata--><rect codeLine="23" fill="#FEFECE" filter="url(#f1te1agx11khfl)" height="176.0469" id="ScienceMetadata" style="stroke:#A80036;stroke-width:1.5;" width="160" x="206" y="129"/><ellipse cx="232.25" cy="145" fill="#ADD1B2" rx="11" ry="11" style="stroke:#A80036;stroke-width:1.0;"/><path d="M234.5938,140.6719 C233.6563,140.2344 233.0625,140.0938 232.1875,140.0938 C229.5625,140.0938 227.5625,142.1719 227.5625,144.8906 L227.5625,146.0156 C227.5625,148.5938 229.6719,150.4844 232.5625,150.4844 C233.7813,150.4844 234.9375,150.1875 235.6875,149.6406 C236.2656,149.2344 236.5938,148.7813 236.5938,148.3906 C236.5938,147.9375 236.2031,147.5469 235.7344,147.5469 C235.5156,147.5469 235.3125,147.625 235.125,147.8125 C234.6719,148.2969 234.6719,148.2969 234.4844,148.3906 C234.0625,148.6563 233.375,148.7813 232.6094,148.7813 C230.5625,148.7813 229.2656,147.6875 229.2656,145.9844 L229.2656,144.8906 C229.2656,143.1094 230.5156,141.7969 232.25,141.7969 C232.8281,141.7969 233.4375,141.9531 233.9063,142.2031 C234.3906,142.4844 234.5625,142.7031 234.6563,143.1094 C234.7188,143.5156 234.75,143.6406 234.8906,143.7656 C235.0313,143.9063 235.2656,144.0156 235.4844,144.0156 C235.75,144.0156 236.0156,143.875 236.1875,143.6563 C236.2969,143.5 236.3281,143.3125 236.3281,142.8906 L236.3281,141.4688 C236.3281,141.0313 236.3125,140.9063 236.2188,140.75 C236.0625,140.4844 235.7813,140.3438 235.4844,140.3438 C235.1875,140.3438 234.9844,140.4375 234.7656,140.75 L234.5938,140.6719 Z " fill="#000000"/><text fill="#000000" font-family="sans-serif" font-size="12" lengthAdjust="spacingAndGlyphs" textLength="103" x="248.75" y="149.1543">ScienceMetadata</text><line style="stroke:#A80036;stroke-width:1.5;" x1="207" x2="365" y1="161" y2="161"/><text fill="#000000" font-family="sans-serif" font-size="11" lengthAdjust="spacingAndGlyphs" textLength="59" x="212" y="175.2104">String title</text><text fill="#000000" font-family="sans-serif" font-size="11" lengthAdjust="spacingAndGlyphs" textLength="82" x="212" y="188.0151">String abstract</text><text fill="#000000" font-family="sans-serif" font-size="11" lengthAdjust="spacingAndGlyphs" textLength="87" x="212" y="200.8198">String[] authors</text><text fill="#000000" font-family="sans-serif" font-size="11" lengthAdjust="spacingAndGlyphs" textLength="92" x="212" y="213.6245">Date beginDate</text><text fill="#000000" font-family="sans-serif" font-size="11" lengthAdjust="spacingAndGlyphs" textLength="82" x="212" y="226.4292">Date endDate</text><text fill="#000000" font-family="sans-serif" font-size="11" lengthAdjust="spacingAndGlyphs" textLength="142" x="212" y="239.2339">Float eastBoundingCoord</text><text fill="#000000" font-family="sans-serif" font-size="11" lengthAdjust="spacingAndGlyphs" textLength="144" x="212" y="252.0386">Float westBoundingCoord</text><text fill="#000000" font-family="sans-serif" font-size="11" lengthAdjust="spacingAndGlyphs" textLength="146" x="212" y="264.8433">Float northBoundingCoord</text><text fill="#000000" font-family="sans-serif" font-size="11" lengthAdjust="spacingAndGlyphs" textLength="148" x="212" y="277.6479">Float southBoundingCoord</text><text fill="#000000" font-family="sans-serif" font-size="11" lengthAdjust="spacingAndGlyphs" textLength="9" x="212" y="290.4526">...</text><line style="stroke:#A80036;stroke-width:1.5;" x1="207" x2="365" y1="297.0469" y2="297.0469"/><!--MD5=[a792933aeab1853e3a5037a2b516fac8]
class ScienceData--><rect codeLine="36" fill="#FEFECE" filter="url(#f1te1agx11khfl)" height="48" id="ScienceData" style="stroke:#A80036;stroke-width:1.5;" width="107" x="232.5" y="7"/><ellipse cx="247.5" cy="23" fill="#ADD1B2" rx="11" ry="11" style="stroke:#A80036;stroke-width:1.0;"/><path d="M249.8438,18.6719 C248.9063,18.2344 248.3125,18.0938 247.4375,18.0938 C244.8125,18.0938 242.8125,20.1719 242.8125,22.8906 L242.8125,24.0156 C242.8125,26.5938 244.9219,28.4844 247.8125,28.4844 C249.0313,28.4844 250.1875,28.1875 250.9375,27.6406 C251.5156,27.2344 251.8438,26.7813 251.8438,26.3906 C251.8438,25.9375 251.4531,25.5469 250.9844,25.5469 C250.7656,25.5469 250.5625,25.625 250.375,25.8125 C249.9219,26.2969 249.9219,26.2969 249.7344,26.3906 C249.3125,26.6563 248.625,26.7813 247.8594,26.7813 C245.8125,26.7813 244.5156,25.6875 244.5156,23.9844 L244.5156,22.8906 C244.5156,21.1094 245.7656,19.7969 247.5,19.7969 C248.0781,19.7969 248.6875,19.9531 249.1563,20.2031 C249.6406,20.4844 249.8125,20.7031 249.9063,21.1094 C249.9688,21.5156 250,21.6406 250.1406,21.7656 C250.2813,21.9063 250.5156,22.0156 250.7344,22.0156 C251,22.0156 251.2656,21.875 251.4375,21.6563 C251.5469,21.5 251.5781,21.3125 251.5781,20.8906 L251.5781,19.4688 C251.5781,19.0313 251.5625,18.9063 251.4688,18.75 C251.3125,18.4844 251.0313,18.3438 250.7344,18.3438 C250.4375,18.3438 250.2344,18.4375 250.0156,18.75 L249.8438,18.6719 Z " fill="#000000"/><text fill="#000000" font-family="sans-serif" font-size="12" lengthAdjust="spacingAndGlyphs" textLength="75" x="261.5" y="27.1543">ScienceData</text><line style="stroke:#A80036;stroke-width:1.5;" x1="233.5" x2="338.5" y1="39" y2="39"/><line style="stroke:#A80036;stroke-width:1.5;" x1="233.5" x2="338.5" y1="47" y2="47"/><ellipse cx="286" cy="92" fill="#000000" rx="2" ry="2" style="stroke:none;stroke-width:1.0;"/><!--MD5=[7addbccbfd7c05e63e85f4fd47adbfa8]
reverse link DataONEObject to ResourceMap--><path codeLine="40" d="M162.165,288.758 C176.549,300.198 191.521,311.6601 206,322 C214.669,328.1903 224.118,334.4457 233.37,340.321 " fill="none" id="DataONEObject-backto-ResourceMap" style="stroke:#A80036;stroke-width:1.0;"/><polygon fill="none" points="157.408,293.914,146.233,275.911,166.196,283.016,157.408,293.914" style="stroke:#A80036;stroke-width:1.0;"/><!--MD5=[e3c9c12463f56f9fe7a3a45e51e1be80]
reverse link DataONEObject to ScienceMetadata--><path codeLine="41" d="M166.258,217 C179.388,217 192.845,217 205.765,217 " fill="none" id="DataONEObject-backto-ScienceMetadata" style="stroke:#A80036;stroke-width:1.0;"/><polygon fill="none" points="166.018,224,146.018,217,166.018,210,166.018,224" style="stroke:#A80036;stroke-width:1.0;"/><!--MD5=[187b5b44ccaaad3d0dad9959441c439f]
reverse link DataONEObject to ScienceData--><path codeLine="42" d="M148.215,126.757 C165.852,107.346 185.596,87.907 206,72 C214.043,65.729 223.19,59.967 232.337,54.867 " fill="none" id="DataONEObject-backto-ScienceData" style="stroke:#A80036;stroke-width:1.0;"/><polygon fill="none" points="153.339,131.53,134.856,141.893,142.843,122.266,153.339,131.53" style="stroke:#A80036;stroke-width:1.0;"/><!--MD5=[421321acc0edf2d58da529741ca6bb29]
link ScienceData to apoint202157--><path d="M286,55.271 C286,66.72 286,78.169 286,89.617 " fill="none" id="ScienceData-apoint202157" style="stroke:#A80036;stroke-width:1.0;"/><text fill="#000000" font-family="sans-serif" font-size="13" lengthAdjust="spacingAndGlyphs" textLength="23" x="260.1969" y="75.0983">0..*</text><!--MD5=[04fd313e1be377f3dd1bcf1a7b4e9a30]
link apoint202157 to ScienceMetadata--><path d="M286,94.003 C286,105.542 286,117.082 286,128.621 " fill="none" id="apoint202157-ScienceMetadata" style="stroke:#A80036;stroke-width:1.0;"/><text fill="#000000" font-family="sans-serif" font-size="13" lengthAdjust="spacingAndGlyphs" textLength="23" x="262.0836" y="118.051">0..*</text><!--MD5=[a8d44530739d60cb777cf173b85ff311]
link apoint202157 to Relation--><path d="M288.188,92.071 C295.677,92.558 336.981,95.869 366,111 C406.435,132.085 444.57,167.734 470.199,194.892 " fill="none" id="apoint202157-Relation" style="stroke:#A80036;stroke-width:1.0;stroke-dasharray:7.0,7.0;"/><!--MD5=[376c046f1339f6f08ac4e38111eee463]
reverse link ResourceMap to Relation--><path codeLine="45" d="M348.328,333.1934 C354.313,329.4338 360.283,325.6565 366,322 C392.782,304.8697 422.256,285.502 446.942,269.133 " fill="none" id="ResourceMap-backto-Relation" style="stroke:#A80036;stroke-width:1.0;"/><polygon fill="#FFFFFF" points="336.859,340.3655,344.067,340.5756,347.0333,334.0028,339.8252,333.7927,336.859,340.3655" style="stroke:#A80036;stroke-width:1.0;"/><!--MD5=[9bcf2fe7aadd2775d08d3b91bfb9dcf0]
@startuml
left to right direction

class DataONEObject {
  String id
  Integer size
  String formatId
  String AuthoritativeMN
  Date dateUploaded
  Boolean isPublic
  String obsoletedBy
  ...
}

class ResourceMap {
  Relation[]: relations
}

class Relation {
  URI cito:documents
  URI cito:isDocumentedBy
}

class ScienceMetadata {
  String title
  String abstract
  String[] authors
  Date beginDate
  Date endDate
  Float eastBoundingCoord
  Float westBoundingCoord
  Float northBoundingCoord
  Float southBoundingCoord
  ...
}

class ScienceData {

}

DataONEObject <|- - ResourceMap
DataONEObject <|- - ScienceMetadata
DataONEObject <|- - ScienceData
ScienceData "0..*" - "0..*" ScienceMetadata
(ScienceMetadata, ScienceData) . Relation
ResourceMap o- - Relation
@enduml

PlantUML version 1.2020.21beta3(Unknown compile time)
(GPL source distribution)
Java Runtime: Java(TM) SE Runtime Environment
JVM: Java HotSpot(TM) 64-Bit Server VM
Default Encoding: UTF-8
Language: en
Country: US
--></g></svg>