<?xml version="1.0" encoding="UTF-8" standalone="no"?><svg xmlns="http://www.w3.org/2000/svg" xmlns:xlink="http://www.w3.org/1999/xlink" contentScriptType="application/ecmascript" contentStyleType="text/css" height="486px" preserveAspectRatio="none" style="width:899px;height:486px;" version="1.1" viewBox="0 0 899 486" width="899px" zoomAndPan="magnify"><defs><filter height="300%" id="fyu1uy6cy1uh1" width="300%" x="-1" y="-1"><feGaussianBlur result="blurOut" stdDeviation="2.0"/><feColorMatrix in="blurOut" result="blurOut2" type="matrix" values="0 0 0 0 0 0 0 0 0 0 0 0 0 0 0 0 0 0 .4 0"/><feOffset dx="4.0" dy="4.0" in="blurOut2" result="blurOut3"/><feBlend in="SourceGraphic" in2="blurOut3" mode="normal"/></filter></defs><g><rect fill="#FFFFFF" filter="url(#fyu1uy6cy1uh1)" height="267.6289" style="stroke:#A80036;stroke-width:1.0;" width="10" x="388" y="116.8633"/><line style="stroke:#A80036;stroke-width:1.0;stroke-dasharray:5.0,5.0;" x1="31" x2="31" y1="88.2969" y2="402.4922"/><line style="stroke:#A80036;stroke-width:1.0;stroke-dasharray:5.0,5.0;" x1="125" x2="125" y1="88.2969" y2="402.4922"/><line style="stroke:#A80036;stroke-width:1.0;stroke-dasharray:5.0,5.0;" x1="392.5" x2="392.5" y1="88.2969" y2="402.4922"/><line style="stroke:#A80036;stroke-width:1.0;stroke-dasharray:5.0,5.0;" x1="571.5" x2="571.5" y1="88.2969" y2="402.4922"/><line style="stroke:#A80036;stroke-width:1.0;stroke-dasharray:5.0,5.0;" x1="734.5" x2="734.5" y1="88.2969" y2="402.4922"/><text fill="#000000" font-family="sans-serif" font-size="14" lengthAdjust="spacingAndGlyphs" textLength="46" x="5" y="84.9951">Admin</text><ellipse cx="31" cy="15" fill="#FEFECE" filter="url(#fyu1uy6cy1uh1)" rx="8" ry="8" style="stroke:#A80036;stroke-width:2.0;"/><path d="M31,23 L31,50 M18,31 L44,31 M31,50 L18,65 M31,50 L44,65 " fill="none" filter="url(#fyu1uy6cy1uh1)" style="stroke:#A80036;stroke-width:2.0;"/><text fill="#000000" font-family="sans-serif" font-size="14" lengthAdjust="spacingAndGlyphs" textLength="46" x="5" y="414.4873">Admin</text><ellipse cx="31" cy="427.7891" fill="#FEFECE" filter="url(#fyu1uy6cy1uh1)" rx="8" ry="8" style="stroke:#A80036;stroke-width:2.0;"/><path d="M31,435.7891 L31,462.7891 M18,443.7891 L44,443.7891 M31,462.7891 L18,477.7891 M31,462.7891 L44,477.7891 " fill="none" filter="url(#fyu1uy6cy1uh1)" style="stroke:#A80036;stroke-width:2.0;"/><rect fill="#FEFECE" filter="url(#fyu1uy6cy1uh1)" height="46.5938" style="stroke:#A80036;stroke-width:1.5;" width="112" x="67" y="36.7031"/><text fill="#000000" font-family="sans-serif" font-size="14" font-style="italic" lengthAdjust="spacingAndGlyphs" textLength="98" x="74" y="56.6982">«Application»</text><text fill="#000000" font-family="sans-serif" font-size="14" lengthAdjust="spacingAndGlyphs" textLength="46" x="100" y="72.9951">Admin</text><rect fill="#FEFECE" filter="url(#fyu1uy6cy1uh1)" height="46.5938" style="stroke:#A80036;stroke-width:1.5;" width="112" x="67" y="401.4922"/><text fill="#000000" font-family="sans-serif" font-size="14" font-style="italic" lengthAdjust="spacingAndGlyphs" textLength="98" x="74" y="421.4873">«Application»</text><text fill="#000000" font-family="sans-serif" font-size="14" lengthAdjust="spacingAndGlyphs" textLength="46" x="100" y="437.7842">Admin</text><rect fill="#FEFECE" filter="url(#fyu1uy6cy1uh1)" height="46.5938" style="stroke:#A80036;stroke-width:1.5;" width="165" x="308.5" y="36.7031"/><text fill="#000000" font-family="sans-serif" font-size="14" font-style="italic" lengthAdjust="spacingAndGlyphs" textLength="151" x="315.5" y="56.6982">«Coordinating Node»</text><text fill="#000000" font-family="sans-serif" font-size="14" lengthAdjust="spacingAndGlyphs" textLength="88" x="347" y="72.9951">Register API</text><rect fill="#FEFECE" filter="url(#fyu1uy6cy1uh1)" height="46.5938" style="stroke:#A80036;stroke-width:1.5;" width="165" x="308.5" y="401.4922"/><text fill="#000000" font-family="sans-serif" font-size="14" font-style="italic" lengthAdjust="spacingAndGlyphs" textLength="151" x="315.5" y="421.4873">«Coordinating Node»</text><text fill="#000000" font-family="sans-serif" font-size="14" lengthAdjust="spacingAndGlyphs" textLength="88" x="347" y="437.7842">Register API</text><rect fill="#FEFECE" filter="url(#fyu1uy6cy1uh1)" height="46.5938" style="stroke:#A80036;stroke-width:1.5;" width="165" x="487.5" y="36.7031"/><text fill="#000000" font-family="sans-serif" font-size="14" font-style="italic" lengthAdjust="spacingAndGlyphs" textLength="151" x="494.5" y="56.6982">«Coordinating Node»</text><text fill="#000000" font-family="sans-serif" font-size="14" lengthAdjust="spacingAndGlyphs" textLength="143" x="498.5" y="72.9951">Synchronization API</text><rect fill="#FEFECE" filter="url(#fyu1uy6cy1uh1)" height="46.5938" style="stroke:#A80036;stroke-width:1.5;" width="165" x="487.5" y="401.4922"/><text fill="#000000" font-family="sans-serif" font-size="14" font-style="italic" lengthAdjust="spacingAndGlyphs" textLength="151" x="494.5" y="421.4873">«Coordinating Node»</text><text fill="#000000" font-family="sans-serif" font-size="14" lengthAdjust="spacingAndGlyphs" textLength="143" x="498.5" y="437.7842">Synchronization API</text><rect fill="#FEFECE" filter="url(#fyu1uy6cy1uh1)" height="46.5938" style="stroke:#A80036;stroke-width:1.5;" width="132" x="666.5" y="36.7031"/><text fill="#000000" font-family="sans-serif" font-size="14" font-style="italic" lengthAdjust="spacingAndGlyphs" textLength="118" x="673.5" y="56.6982">«Member Node»</text><text fill="#000000" font-family="sans-serif" font-size="14" lengthAdjust="spacingAndGlyphs" textLength="112" x="676.5" y="72.9951">Capabilities API</text><rect fill="#FEFECE" filter="url(#fyu1uy6cy1uh1)" height="46.5938" style="stroke:#A80036;stroke-width:1.5;" width="132" x="666.5" y="401.4922"/><text fill="#000000" font-family="sans-serif" font-size="14" font-style="italic" lengthAdjust="spacingAndGlyphs" textLength="118" x="673.5" y="421.4873">«Member Node»</text><text fill="#000000" font-family="sans-serif" font-size="14" lengthAdjust="spacingAndGlyphs" textLength="112" x="676.5" y="437.7842">Capabilities API</text><rect fill="#FFFFFF" filter="url(#fyu1uy6cy1uh1)" height="267.6289" style="stroke:#A80036;stroke-width:1.0;" width="10" x="388" y="116.8633"/><polygon fill="#A80036" points="113,112.8633,123,116.8633,113,120.8633,117,116.8633" style="stroke:#A80036;stroke-width:1.0;"/><line style="stroke:#A80036;stroke-width:1.0;" x1="31" x2="119" y1="116.8633" y2="116.8633"/><path d="M130,103.2969 L130,128.2969 L448,128.2969 L448,113.2969 L438,103.2969 L130,103.2969 " fill="#FBFB77" filter="url(#fyu1uy6cy1uh1)" style="stroke:#A80036;stroke-width:1.0;"/><path d="M438,103.2969 L438,113.2969 L448,113.2969 L438,103.2969 " fill="#FBFB77" style="stroke:#A80036;stroke-width:1.0;"/><text fill="#000000" font-family="sans-serif" font-size="13" lengthAdjust="spacingAndGlyphs" textLength="297" x="136" y="120.3638">Assume admin authority for node registration.</text><polygon fill="#A80036" points="376,154.5625,386,158.5625,376,162.5625,380,158.5625" style="stroke:#A80036;stroke-width:1.0;"/><line style="stroke:#A80036;stroke-width:1.0;" x1="125" x2="382" y1="158.5625" y2="158.5625"/><text fill="#000000" font-family="sans-serif" font-size="13" lengthAdjust="spacingAndGlyphs" textLength="239" x="132" y="153.4966">register (auth_token, capabilitiesURL)</text><polygon fill="#A80036" points="722.5,183.6953,732.5,187.6953,722.5,191.6953,726.5,187.6953" style="stroke:#A80036;stroke-width:1.0;"/><line style="stroke:#A80036;stroke-width:1.0;" x1="398" x2="728.5" y1="187.6953" y2="187.6953"/><text fill="#000000" font-family="sans-serif" font-size="13" lengthAdjust="spacingAndGlyphs" textLength="108" x="405" y="182.6294">getCapabilities ()</text><polygon fill="#A80036" points="409,212.8281,399,216.8281,409,220.8281,405,216.8281" style="stroke:#A80036;stroke-width:1.0;"/><line style="stroke:#A80036;stroke-width:1.0;stroke-dasharray:2.0,2.0;" x1="403" x2="733.5" y1="216.8281" y2="216.8281"/><text fill="#000000" font-family="sans-serif" font-size="13" lengthAdjust="spacingAndGlyphs" textLength="71" x="415" y="211.7622">capabilities</text><line style="stroke:#A80036;stroke-width:1.0;" x1="398" x2="440" y1="245.9609" y2="245.9609"/><line style="stroke:#A80036;stroke-width:1.0;" x1="440" x2="440" y1="245.9609" y2="258.9609"/><line style="stroke:#A80036;stroke-width:1.0;" x1="399" x2="440" y1="258.9609" y2="258.9609"/><polygon fill="#A80036" points="409,254.9609,399,258.9609,409,262.9609,405,258.9609" style="stroke:#A80036;stroke-width:1.0;"/><text fill="#000000" font-family="sans-serif" font-size="13" lengthAdjust="spacingAndGlyphs" textLength="124" x="405" y="240.895">verifyCapabilities ()</text><path d="M541,231.3281 L541,256.3281 L890,256.3281 L890,241.3281 L880,231.3281 L541,231.3281 " fill="#FBFB77" filter="url(#fyu1uy6cy1uh1)" style="stroke:#A80036;stroke-width:1.0;"/><path d="M880,231.3281 L880,241.3281 L890,241.3281 L880,231.3281 " fill="#FBFB77" style="stroke:#A80036;stroke-width:1.0;"/><text fill="#000000" font-family="sans-serif" font-size="13" lengthAdjust="spacingAndGlyphs" textLength="328" x="547" y="248.395">Assume capabilities stored as any other metadata.</text><line style="stroke:#A80036;stroke-width:1.0;" x1="398" x2="440" y1="288.0938" y2="288.0938"/><line style="stroke:#A80036;stroke-width:1.0;" x1="440" x2="440" y1="288.0938" y2="301.0938"/><line style="stroke:#A80036;stroke-width:1.0;" x1="399" x2="440" y1="301.0938" y2="301.0938"/><polygon fill="#A80036" points="409,297.0938,399,301.0938,409,305.0938,405,301.0938" style="stroke:#A80036;stroke-width:1.0;"/><text fill="#000000" font-family="sans-serif" font-size="13" lengthAdjust="spacingAndGlyphs" textLength="144" x="405" y="283.0278">addNodeCapabilities ()</text><polygon fill="#A80036" points="560,338.793,570,342.793,560,346.793,564,342.793" style="stroke:#A80036;stroke-width:1.0;"/><line style="stroke:#A80036;stroke-width:1.0;" x1="398" x2="566" y1="342.793" y2="342.793"/><text fill="#000000" font-family="sans-serif" font-size="13" lengthAdjust="spacingAndGlyphs" textLength="110" x="405" y="337.7271">scheduleSynch ()</text><path d="M577,314.0938 L577,354.0938 L857,354.0938 L857,324.0938 L847,314.0938 L577,314.0938 " fill="#FBFB77" filter="url(#fyu1uy6cy1uh1)" style="stroke:#A80036;stroke-width:1.0;"/><path d="M847,314.0938 L847,324.0938 L857,324.0938 L847,314.0938 " fill="#FBFB77" style="stroke:#A80036;stroke-width:1.0;"/><text fill="#000000" font-family="sans-serif" font-size="13" lengthAdjust="spacingAndGlyphs" textLength="259" x="583" y="331.1606">Harvest process occurs asynchronously.</text><text fill="#000000" font-family="sans-serif" font-size="13" lengthAdjust="spacingAndGlyphs" textLength="123" x="583" y="346.2935">Separate use case.</text><polygon fill="#A80036" points="136,380.4922,126,384.4922,136,388.4922,132,384.4922" style="stroke:#A80036;stroke-width:1.0;"/><line style="stroke:#A80036;stroke-width:1.0;stroke-dasharray:2.0,2.0;" x1="130" x2="392" y1="384.4922" y2="384.4922"/><text fill="#000000" font-family="sans-serif" font-size="13" lengthAdjust="spacingAndGlyphs" textLength="62" x="142" y="379.4263">ack or fail</text><!--MD5=[42862cdabc1d59f4d27fc7e795074bcf]
@startuml
actor Admin
participant "Admin" as app_admin << Application >>
Admin -> app_admin
note right
  Assume admin authority for node registration.
end note
participant "Register API" as c_reg << Coordinating Node >>
participant "Synchronization API" as c_sync << Coordinating Node >>
activate c_reg
app_admin -> c_reg: register (auth_token, capabilitiesURL)
participant "Capabilities API" as m_cap << Member Node >>
c_reg -> m_cap: getCapabilities ()
c_reg <- - m_cap: capabilities
c_reg -> c_reg: verifyCapabilities ()
note right
 Assume capabilities stored as any other metadata.
end note
c_reg -> c_reg: addNodeCapabilities ()
c_reg -> c_sync: scheduleSynch ()
note right
 Harvest process occurs asynchronously.
 Separate use case.
end note
app_admin <- - c_reg: ack or fail
deactivate c_reg
@enduml

PlantUML version 1.2020.21beta3(Unknown compile time)
(GPL source distribution)
Java Runtime: Java(TM) SE Runtime Environment
JVM: Java HotSpot(TM) 64-Bit Server VM
Default Encoding: UTF-8
Language: en
Country: US
--></g></svg>