<?xml version="1.0" encoding="UTF-8" standalone="no"?><svg xmlns="http://www.w3.org/2000/svg" xmlns:xlink="http://www.w3.org/1999/xlink" contentScriptType="application/ecmascript" contentStyleType="text/css" height="420px" preserveAspectRatio="none" style="width:543px;height:420px;" version="1.1" viewBox="0 0 543 420" width="543px" zoomAndPan="magnify"><defs><filter height="300%" id="flwyb037sjede" width="300%" x="-1" y="-1"><feGaussianBlur result="blurOut" stdDeviation="2.0"/><feColorMatrix in="blurOut" result="blurOut2" type="matrix" values="0 0 0 0 0 0 0 0 0 0 0 0 0 0 0 0 0 0 .4 0"/><feOffset dx="4.0" dy="4.0" in="blurOut2" result="blurOut3"/><feBlend in="SourceGraphic" in2="blurOut3" mode="normal"/></filter></defs><g><rect fill="#FFFFFF" filter="url(#flwyb037sjede)" height="71.2656" style="stroke:#A80036;stroke-width:1.0;" width="10" x="248.5" y="188.8281"/><rect fill="#FFFFFF" filter="url(#flwyb037sjede)" height="29.1328" style="stroke:#A80036;stroke-width:1.0;" width="10" x="403" y="289.2266"/><line style="stroke:#A80036;stroke-width:1.0;stroke-dasharray:5.0,5.0;" x1="23" x2="23" y1="88.2969" y2="336.3594"/><line style="stroke:#A80036;stroke-width:1.0;stroke-dasharray:5.0,5.0;" x1="253" x2="253" y1="88.2969" y2="336.3594"/><line style="stroke:#A80036;stroke-width:1.0;stroke-dasharray:5.0,5.0;" x1="408" x2="408" y1="88.2969" y2="336.3594"/><text fill="#000000" font-family="sans-serif" font-size="14" lengthAdjust="spacingAndGlyphs" textLength="31" x="5" y="84.9951">User</text><ellipse cx="23.5" cy="15" fill="#FEFECE" filter="url(#flwyb037sjede)" rx="8" ry="8" style="stroke:#A80036;stroke-width:2.0;"/><path d="M23.5,23 L23.5,50 M10.5,31 L36.5,31 M23.5,50 L10.5,65 M23.5,50 L36.5,65 " fill="none" filter="url(#flwyb037sjede)" style="stroke:#A80036;stroke-width:2.0;"/><text fill="#000000" font-family="sans-serif" font-size="14" lengthAdjust="spacingAndGlyphs" textLength="31" x="5" y="348.3545">User</text><ellipse cx="23.5" cy="361.6563" fill="#FEFECE" filter="url(#flwyb037sjede)" rx="8" ry="8" style="stroke:#A80036;stroke-width:2.0;"/><path d="M23.5,369.6563 L23.5,396.6563 M10.5,377.6563 L36.5,377.6563 M23.5,396.6563 L10.5,411.6563 M23.5,396.6563 L36.5,411.6563 " fill="none" filter="url(#flwyb037sjede)" style="stroke:#A80036;stroke-width:2.0;"/><rect fill="#FEFECE" filter="url(#flwyb037sjede)" height="46.5938" style="stroke:#A80036;stroke-width:1.5;" width="175" x="164" y="36.7031"/><text fill="#000000" font-family="sans-serif" font-size="14" font-style="italic" lengthAdjust="spacingAndGlyphs" textLength="161" x="171" y="56.6982">«Certificate Authority»</text><text fill="#000000" font-family="sans-serif" font-size="14" lengthAdjust="spacingAndGlyphs" textLength="20" x="241.5" y="72.9951">CA</text><rect fill="#FEFECE" filter="url(#flwyb037sjede)" height="46.5938" style="stroke:#A80036;stroke-width:1.5;" width="175" x="164" y="335.3594"/><text fill="#000000" font-family="sans-serif" font-size="14" font-style="italic" lengthAdjust="spacingAndGlyphs" textLength="161" x="171" y="355.3545">«Certificate Authority»</text><text fill="#000000" font-family="sans-serif" font-size="14" lengthAdjust="spacingAndGlyphs" textLength="20" x="241.5" y="371.6514">CA</text><rect fill="#FEFECE" filter="url(#flwyb037sjede)" height="30.2969" style="stroke:#A80036;stroke-width:1.5;" width="106" x="353" y="53"/><text fill="#000000" font-family="sans-serif" font-size="14" lengthAdjust="spacingAndGlyphs" textLength="92" x="360" y="72.9951">CertProvider</text><rect fill="#FEFECE" filter="url(#flwyb037sjede)" height="30.2969" style="stroke:#A80036;stroke-width:1.5;" width="106" x="353" y="335.3594"/><text fill="#000000" font-family="sans-serif" font-size="14" lengthAdjust="spacingAndGlyphs" textLength="92" x="360" y="355.3545">CertProvider</text><rect fill="#FFFFFF" filter="url(#flwyb037sjede)" height="71.2656" style="stroke:#A80036;stroke-width:1.0;" width="10" x="248.5" y="188.8281"/><rect fill="#FFFFFF" filter="url(#flwyb037sjede)" height="29.1328" style="stroke:#A80036;stroke-width:1.0;" width="10" x="403" y="289.2266"/><path d="M258,103.2969 L258,158.2969 L534,158.2969 L534,113.2969 L524,103.2969 L258,103.2969 " fill="#FBFB77" filter="url(#flwyb037sjede)" style="stroke:#A80036;stroke-width:1.0;"/><path d="M524,103.2969 L524,113.2969 L534,113.2969 L524,103.2969 " fill="#FBFB77" style="stroke:#A80036;stroke-width:1.0;"/><text fill="#000000" font-family="sans-serif" font-size="13" lengthAdjust="spacingAndGlyphs" textLength="255" x="264" y="120.3638">DataONE Certificate Authority. Requires</text><text fill="#000000" font-family="sans-serif" font-size="13" lengthAdjust="spacingAndGlyphs" textLength="213" x="264" y="135.4966">manual interaction with DataONE</text><text fill="#000000" font-family="sans-serif" font-size="13" lengthAdjust="spacingAndGlyphs" textLength="244" x="264" y="150.6294">administrators to generate certificate.</text><polygon fill="#A80036" points="236.5,184.8281,246.5,188.8281,236.5,192.8281,240.5,188.8281" style="stroke:#A80036;stroke-width:1.0;"/><line style="stroke:#A80036;stroke-width:1.0;" x1="23.5" x2="242.5" y1="188.8281" y2="188.8281"/><text fill="#000000" font-family="sans-serif" font-size="13" lengthAdjust="spacingAndGlyphs" textLength="121" x="30.5" y="183.7622">Request certificate</text><line style="stroke:#A80036;stroke-width:1.0;" x1="258.5" x2="300.5" y1="217.9609" y2="217.9609"/><line style="stroke:#A80036;stroke-width:1.0;" x1="300.5" x2="300.5" y1="217.9609" y2="230.9609"/><line style="stroke:#A80036;stroke-width:1.0;" x1="259.5" x2="300.5" y1="230.9609" y2="230.9609"/><polygon fill="#A80036" points="269.5,226.9609,259.5,230.9609,269.5,234.9609,265.5,230.9609" style="stroke:#A80036;stroke-width:1.0;"/><text fill="#000000" font-family="sans-serif" font-size="13" lengthAdjust="spacingAndGlyphs" textLength="128" x="265.5" y="212.895">Generate certificate</text><polygon fill="#A80036" points="34.5,256.0938,24.5,260.0938,34.5,264.0938,30.5,260.0938" style="stroke:#A80036;stroke-width:1.0;"/><line style="stroke:#A80036;stroke-width:1.0;" x1="28.5" x2="252.5" y1="260.0938" y2="260.0938"/><text fill="#000000" font-family="sans-serif" font-size="13" lengthAdjust="spacingAndGlyphs" textLength="201" x="40.5" y="255.0278">Certificate retrieval information</text><polygon fill="#A80036" points="391,285.2266,401,289.2266,391,293.2266,395,289.2266" style="stroke:#A80036;stroke-width:1.0;"/><line style="stroke:#A80036;stroke-width:1.0;" x1="23.5" x2="397" y1="289.2266" y2="289.2266"/><text fill="#000000" font-family="sans-serif" font-size="13" lengthAdjust="spacingAndGlyphs" textLength="132" x="30.5" y="284.1606">download Certificate</text><polygon fill="#A80036" points="34.5,314.3594,24.5,318.3594,34.5,322.3594,30.5,318.3594" style="stroke:#A80036;stroke-width:1.0;"/><line style="stroke:#A80036;stroke-width:1.0;" x1="28.5" x2="407" y1="318.3594" y2="318.3594"/><text fill="#000000" font-family="sans-serif" font-size="13" lengthAdjust="spacingAndGlyphs" textLength="66" x="40.5" y="313.2935">Certificate</text><!--MD5=[9eaa39a9412fad9d32aafacd9a078910]
@startuml
actor User
participant CA <<Certificate Authority>>
participant CertProvider

note right of CA
  DataONE Certificate Authority. Requires
  manual interaction with DataONE
  administrators to generate certificate.
end note
User -> CA: Request certificate
activate CA
CA -> CA: Generate certificate
CA -> User: Certificate retrieval information
deactivate CA
User -> CertProvider: download Certificate
activate CertProvider
CertProvider -> User: Certificate
deactivate CertProvider
@enduml

PlantUML version 1.2020.21beta3(Unknown compile time)
(GPL source distribution)
Java Runtime: Java(TM) SE Runtime Environment
JVM: Java HotSpot(TM) 64-Bit Server VM
Default Encoding: UTF-8
Language: en
Country: US
--></g></svg>