<?xml version="1.0" encoding="UTF-8" standalone="no"?><svg xmlns="http://www.w3.org/2000/svg" xmlns:xlink="http://www.w3.org/1999/xlink" contentScriptType="application/ecmascript" contentStyleType="text/css" height="325px" preserveAspectRatio="none" style="width:664px;height:325px;" version="1.1" viewBox="0 0 664 325" width="664px" zoomAndPan="magnify"><defs><filter height="300%" id="f1ik373drfxlhw" width="300%" x="-1" y="-1"><feGaussianBlur result="blurOut" stdDeviation="2.0"/><feColorMatrix in="blurOut" result="blurOut2" type="matrix" values="0 0 0 0 0 0 0 0 0 0 0 0 0 0 0 0 0 0 .4 0"/><feOffset dx="4.0" dy="4.0" in="blurOut2" result="blurOut3"/><feBlend in="SourceGraphic" in2="blurOut3" mode="normal"/></filter></defs><g><!--MD5=[4a65e84059005d12693a083370a06717]
entity client--><ellipse cx="177.5" cy="14" fill="#FEFECE" filter="url(#f1ik373drfxlhw)" rx="8" ry="8" style="stroke:#A80036;stroke-width:1.5;"/><path d="M177.5,22 L177.5,49 M164.5,30 L190.5,30 M177.5,49 L164.5,64 M177.5,49 L190.5,64 " fill="none" filter="url(#f1ik373drfxlhw)" style="stroke:#A80036;stroke-width:1.5;"/><text fill="#000000" font-family="sans-serif" font-size="14" lengthAdjust="spacingAndGlyphs" textLength="46" x="154.5" y="82.4951">Owner</text><ellipse cx="541.4151" cy="288.683" fill="#FEFECE" filter="url(#f1ik373drfxlhw)" rx="81.4151" ry="18.683" style="stroke:#A80036;stroke-width:1.5;"/><text fill="#000000" font-family="sans-serif" font-size="14" lengthAdjust="spacingAndGlyphs" textLength="134" x="474.4151" y="293.3315">12. Authentication</text><path d="M428,146.5 L428,186.7656 A0,0 0 0 0 428,186.7656 L537.5,186.7656 L541.5,269.7482 L545.5,186.7656 L655,186.7656 A0,0 0 0 0 655,186.7656 L655,156.5 L645,146.5 L428,146.5 A0,0 0 0 0 428,146.5 " fill="#FBFB77" filter="url(#f1ik373drfxlhw)" style="stroke:#A80036;stroke-width:1.0;"/><path d="M645,146.5 L645,156.5 L655,156.5 L645,146.5 " fill="#FBFB77" style="stroke:#A80036;stroke-width:1.0;"/><text fill="#000000" font-family="sans-serif" font-size="13" lengthAdjust="spacingAndGlyphs" textLength="206" x="434" y="163.5669">Authentication may be provided</text><text fill="#000000" font-family="sans-serif" font-size="13" lengthAdjust="spacingAndGlyphs" textLength="143" x="434" y="178.6997">by an external service</text><!--MD5=[a7c3fe0f3374b913da9748d1ac0dbbf6]
entity CN--><ellipse cx="310.5" cy="14" fill="#FEFECE" filter="url(#f1ik373drfxlhw)" rx="8" ry="8" style="stroke:#A80036;stroke-width:1.5;"/><path d="M310.5,22 L310.5,49 M297.5,30 L323.5,30 M310.5,49 L297.5,64 M310.5,49 L323.5,64 " fill="none" filter="url(#f1ik373drfxlhw)" style="stroke:#A80036;stroke-width:1.5;"/><text fill="#000000" font-family="sans-serif" font-size="14" lengthAdjust="spacingAndGlyphs" textLength="150" x="235.5" y="82.4951">«Coordinating Node»</text><!--MD5=[9db44d1591da4edca772ec356c96774d]
entity MN--><ellipse cx="479.5" cy="14" fill="#FEFECE" filter="url(#f1ik373drfxlhw)" rx="8" ry="8" style="stroke:#A80036;stroke-width:1.5;"/><path d="M479.5,22 L479.5,49 M466.5,30 L492.5,30 M479.5,49 L466.5,64 M479.5,49 L492.5,64 " fill="none" filter="url(#f1ik373drfxlhw)" style="stroke:#A80036;stroke-width:1.5;"/><text fill="#000000" font-family="sans-serif" font-size="14" lengthAdjust="spacingAndGlyphs" textLength="117" x="421" y="82.4951">«Member Node»</text><ellipse cx="83.6068" cy="288.4214" fill="#FEFECE" filter="url(#f1ik373drfxlhw)" rx="77.6068" ry="17.9214" style="stroke:#A80036;stroke-width:1.5;"/><text fill="#000000" font-family="sans-serif" font-size="14" lengthAdjust="spacingAndGlyphs" textLength="125" x="21.1068" y="293.0698">13. Authorization</text><ellipse cx="310.4883" cy="166.5977" fill="#FEFECE" filter="url(#f1ik373drfxlhw)" rx="80.9883" ry="18.5977" style="stroke:#A80036;stroke-width:1.5;"/><text fill="#000000" font-family="sans-serif" font-size="14" lengthAdjust="spacingAndGlyphs" textLength="133" x="243.9883" y="171.2461">41. Archive Object</text><ellipse cx="310.7303" cy="288.7461" fill="#FEFECE" filter="url(#f1ik373drfxlhw)" rx="114.2303" ry="25.2461" style="stroke:#A80036;stroke-width:1.5;"/><text fill="#000000" font-family="sans-serif" font-size="14" lengthAdjust="spacingAndGlyphs" textLength="207" x="207.2303" y="293.3945">42. Update System Metadata</text><!--MD5=[7ee622c90e338ab71233084a92c3949c]
link client to archive--><path d="M200.505,69.25 C206.003,74.658 211.903,80.34 217.5,85.5 C241.772,107.875 270.745,132.482 289.829,148.417 " fill="none" id="client-archive" style="stroke:#A80036;stroke-width:1.0;"/><!--MD5=[8701d3032c477cf3576402ec377ab70e]
link CN to archive--><path d="M310.5,85.792 C310.5,106.839 310.5,131.62 310.5,147.897 " fill="none" id="CN-archive" style="stroke:#A80036;stroke-width:1.0;"/><!--MD5=[21ae90fccc1a478163b1c4463e519e2e]
link MN to archive--><path d="M423.225,85.792 C393.075,107.111 357.509,132.26 334.509,148.523 " fill="none" id="MN-archive" style="stroke:#A80036;stroke-width:1.0;"/><!--MD5=[2e1b454e82f39ac079d18a787339ba05]
link archive to author--><path d="M279.886,183.684 C237.649,206.012 161.74,246.1395 117.692,269.4249 " fill="none" id="archive-to-author" style="stroke:#A80036;stroke-width:1.0;stroke-dasharray:7.0,7.0;"/><polygon fill="#A80036" points="113.269,271.763,123.0952,271.095,117.6898,269.4271,119.3577,264.0217,113.269,271.763" style="stroke:#A80036;stroke-width:1.0;"/><text fill="#000000" font-family="sans-serif" font-size="13" lengthAdjust="spacingAndGlyphs" textLength="68" x="218.5" y="229.5669">«includes»</text><!--MD5=[7b6ad0dd9992470e6e78ffc0adb08270]
link archive to authen--><path d="M341.654,183.684 C384.397,205.888 461.026,245.6954 505.957,269.0363 " fill="none" id="archive-to-authen" style="stroke:#A80036;stroke-width:1.0;stroke-dasharray:7.0,7.0;"/><polygon fill="#A80036" points="510.472,271.3815,504.3304,263.6821,506.0353,269.0759,500.6415,270.7809,510.472,271.3815" style="stroke:#A80036;stroke-width:1.0;"/><text fill="#000000" font-family="sans-serif" font-size="13" lengthAdjust="spacingAndGlyphs" textLength="68" x="434.5" y="229.5669">«includes»</text><!--MD5=[445b9c9b615a86979882697d00c36774]
link archive to update--><path d="M310.5,185.206 C310.5,204.36 310.5,235.2117 310.5,258.0313 " fill="none" id="archive-to-update" style="stroke:#A80036;stroke-width:1.0;stroke-dasharray:7.0,7.0;"/><polygon fill="#A80036" points="310.5,263.0625,314.5,254.0625,310.5,258.0625,306.5,254.0625,310.5,263.0625" style="stroke:#A80036;stroke-width:1.0;"/><text fill="#000000" font-family="sans-serif" font-size="13" lengthAdjust="spacingAndGlyphs" textLength="68" x="311.5" y="229.5669">«includes»</text><!--MD5=[b4e492160ae9b51887da7683b4a6dff2]
@startuml
actor "Owner" as client
usecase "12. Authentication" as authen
note top of authen
  Authentication may be provided
  by an external service
end note

actor "<<Coordinating Node>>" as CN
actor "<<Member Node>>" as MN
usecase "13. Authorization" as author
usecase "41. Archive Object" as archive
usecase "42. Update System Metadata" as update
client - - archive
CN - - archive
MN - - archive
archive ..> author: <<includes>>
archive ..> authen: <<includes>>
archive ..> update: <<includes>>
@enduml

PlantUML version 1.2020.21beta3(Unknown compile time)
(GPL source distribution)
Java Runtime: Java(TM) SE Runtime Environment
JVM: Java HotSpot(TM) 64-Bit Server VM
Default Encoding: UTF-8
Language: en
Country: US
--></g></svg>