<?xml version="1.0" encoding="UTF-8" standalone="no"?><svg xmlns="http://www.w3.org/2000/svg" xmlns:xlink="http://www.w3.org/1999/xlink" contentScriptType="application/ecmascript" contentStyleType="text/css" height="318px" preserveAspectRatio="none" style="width:514px;height:318px;" version="1.1" viewBox="0 0 514 318" width="514px" zoomAndPan="magnify"><defs><filter height="300%" id="frp6q7286mw6d" width="300%" x="-1" y="-1"><feGaussianBlur result="blurOut" stdDeviation="2.0"/><feColorMatrix in="blurOut" result="blurOut2" type="matrix" values="0 0 0 0 0 0 0 0 0 0 0 0 0 0 0 0 0 0 .4 0"/><feOffset dx="4.0" dy="4.0" in="blurOut2" result="blurOut3"/><feBlend in="SourceGraphic" in2="blurOut3" mode="normal"/></filter></defs><g><!--MD5=[4a65e84059005d12693a083370a06717]
entity client--><ellipse cx="21.5" cy="14" fill="#FEFECE" filter="url(#frp6q7286mw6d)" rx="8" ry="8" style="stroke:#A80036;stroke-width:1.5;"/><path d="M21.5,22 L21.5,49 M8.5,30 L34.5,30 M21.5,49 L8.5,64 M21.5,49 L34.5,64 " fill="none" filter="url(#frp6q7286mw6d)" style="stroke:#A80036;stroke-width:1.5;"/><text fill="#000000" font-family="sans-serif" font-size="14" lengthAdjust="spacingAndGlyphs" textLength="31" x="6" y="82.4951">User</text><ellipse cx="362.4151" cy="288.183" fill="#FEFECE" filter="url(#frp6q7286mw6d)" rx="81.4151" ry="18.683" style="stroke:#A80036;stroke-width:1.5;"/><text fill="#000000" font-family="sans-serif" font-size="14" lengthAdjust="spacingAndGlyphs" textLength="134" x="295.4151" y="292.8315">12. Authentication</text><path d="M278,149.5 L278,189.7656 A0,0 0 0 0 278,189.7656 L382.711,189.7656 L366.915,269.2626 L390.711,189.7656 L505,189.7656 A0,0 0 0 0 505,189.7656 L505,159.5 L495,149.5 L278,149.5 A0,0 0 0 0 278,149.5 " fill="#FBFB77" filter="url(#frp6q7286mw6d)" style="stroke:#A80036;stroke-width:1.0;"/><path d="M495,149.5 L495,159.5 L505,159.5 L495,149.5 " fill="#FBFB77" style="stroke:#A80036;stroke-width:1.0;"/><text fill="#000000" font-family="sans-serif" font-size="13" lengthAdjust="spacingAndGlyphs" textLength="206" x="284" y="166.5669">Authentication may be provided</text><text fill="#000000" font-family="sans-serif" font-size="13" lengthAdjust="spacingAndGlyphs" textLength="143" x="284" y="181.6997">by an external service</text><!--MD5=[a7c3fe0f3374b913da9748d1ac0dbbf6]
entity CN--><ellipse cx="139.5" cy="14" fill="#FEFECE" filter="url(#frp6q7286mw6d)" rx="8" ry="8" style="stroke:#A80036;stroke-width:1.5;"/><path d="M139.5,22 L139.5,49 M126.5,30 L152.5,30 M139.5,49 L126.5,64 M139.5,49 L152.5,64 " fill="none" filter="url(#frp6q7286mw6d)" style="stroke:#A80036;stroke-width:1.5;"/><text fill="#000000" font-family="sans-serif" font-size="14" lengthAdjust="spacingAndGlyphs" textLength="134" x="72.5" y="82.4951">Coordinating Node</text><!--MD5=[9db44d1591da4edca772ec356c96774d]
entity MN--><ellipse cx="292.5" cy="14" fill="#FEFECE" filter="url(#frp6q7286mw6d)" rx="8" ry="8" style="stroke:#A80036;stroke-width:1.5;"/><path d="M292.5,22 L292.5,49 M279.5,30 L305.5,30 M292.5,49 L279.5,64 M292.5,49 L305.5,64 " fill="none" filter="url(#frp6q7286mw6d)" style="stroke:#A80036;stroke-width:1.5;"/><text fill="#000000" font-family="sans-serif" font-size="14" lengthAdjust="spacingAndGlyphs" textLength="101" x="242" y="82.4951">Member Node</text><ellipse cx="139.6068" cy="287.9214" fill="#FEFECE" filter="url(#frp6q7286mw6d)" rx="77.6068" ry="17.9214" style="stroke:#A80036;stroke-width:1.5;"/><text fill="#000000" font-family="sans-serif" font-size="14" lengthAdjust="spacingAndGlyphs" textLength="125" x="77.1068" y="292.5698">13. Authorization</text><ellipse cx="139.6177" cy="169.6235" fill="#FEFECE" filter="url(#frp6q7286mw6d)" rx="103.6177" ry="23.1235" style="stroke:#A80036;stroke-width:1.5;"/><text fill="#000000" font-family="sans-serif" font-size="14" lengthAdjust="spacingAndGlyphs" textLength="184" x="47.6177" y="174.272">37. Get System Metadata</text><!--MD5=[72602590c2efccde9715a9d51a81e52d]
link client to GET--><path d="M37.2309,65.623 C42.5765,72.075 48.6737,79.204 54.5,85.5 C74.5319,107.148 98.7067,130.509 116.146,146.915 " fill="none" id="client-GET" style="stroke:#A80036;stroke-width:1.0;"/><!--MD5=[89e0b5ecb643ff53915e381d84ba3e6f]
link CN to GET--><path d="M139.5,85.772 C139.5,105.892 139.5,129.553 139.5,146.405 " fill="none" id="CN-GET" style="stroke:#A80036;stroke-width:1.0;"/><!--MD5=[b8a7fe5fff29d3fedb4044951cc2bcc6]
link MN to GET--><path d="M242.825,85.772 C217.347,106.172 187.322,130.211 166.224,147.103 " fill="none" id="MN-GET" style="stroke:#A80036;stroke-width:1.0;"/><!--MD5=[ae6bc061749d6d467710d81fc8d53dfe]
link GET to author--><path d="M139.5,192.687 C139.5,213.3796 139.5,244.0824 139.5,264.7843 " fill="none" id="GET-to-author" style="stroke:#A80036;stroke-width:1.0;stroke-dasharray:7.0,7.0;"/><polygon fill="#A80036" points="139.5,269.8198,143.5,260.8198,139.5,264.8198,135.5,260.8198,139.5,269.8198" style="stroke:#A80036;stroke-width:1.0;"/><text fill="#000000" font-family="sans-serif" font-size="13" lengthAdjust="spacingAndGlyphs" textLength="68" x="140.5" y="235.5669">«includes»</text><!--MD5=[917ca20c0b0b8bd5c535372b3f5f2dee]
link GET to authen--><path d="M178.599,190.926 C220.37,212.7485 286.027,247.0488 326.549,268.2183 " fill="none" id="GET-to-authen" style="stroke:#A80036;stroke-width:1.0;stroke-dasharray:7.0,7.0;"/><polygon fill="#A80036" points="331.363,270.7332,325.2369,263.0215,326.9309,268.4187,321.5337,270.1128,331.363,270.7332" style="stroke:#A80036;stroke-width:1.0;"/><text fill="#000000" font-family="sans-serif" font-size="13" lengthAdjust="spacingAndGlyphs" textLength="68" x="272.5" y="235.5669">«includes»</text><!--MD5=[4f8bcc6de4a8095e3691b39d8ec53c25]
@startuml
actor "User" as client
usecase "12. Authentication" as authen
note top of authen
Authentication may be provided
by an external service
end note

  actor "Coordinating Node" as CN
  actor "Member Node" as MN
  usecase "13. Authorization" as author
  usecase "37. Get System Metadata" as GET
  client - - GET
  CN - - GET
  MN - - GET
  GET ..> author: <<includes>>
  GET ..> authen: <<includes>>
@enduml

PlantUML version 1.2020.21beta3(Unknown compile time)
(GPL source distribution)
Java Runtime: Java(TM) SE Runtime Environment
JVM: Java HotSpot(TM) 64-Bit Server VM
Default Encoding: UTF-8
Language: en
Country: US
--></g></svg>