<?xml version="1.0" encoding="UTF-8" standalone="no"?><svg xmlns="http://www.w3.org/2000/svg" xmlns:xlink="http://www.w3.org/1999/xlink" contentScriptType="application/ecmascript" contentStyleType="text/css" height="362px" preserveAspectRatio="none" style="width:421px;height:362px;" version="1.1" viewBox="0 0 421 362" width="421px" zoomAndPan="magnify"><defs><filter height="300%" id="f1licipanzxebd" width="300%" x="-1" y="-1"><feGaussianBlur result="blurOut" stdDeviation="2.0"/><feColorMatrix in="blurOut" result="blurOut2" type="matrix" values="0 0 0 0 0 0 0 0 0 0 0 0 0 0 0 0 0 0 .4 0"/><feOffset dx="4.0" dy="4.0" in="blurOut2" result="blurOut3"/><feBlend in="SourceGraphic" in2="blurOut3" mode="normal"/></filter></defs><g><rect fill="#FFFFFF" filter="url(#f1licipanzxebd)" height="71.2656" style="stroke:#A80036;stroke-width:1.0;" width="10" x="168.5" y="188.8281"/><line style="stroke:#A80036;stroke-width:1.0;stroke-dasharray:5.0,5.0;" x1="23" x2="23" y1="88.2969" y2="278.0938"/><line style="stroke:#A80036;stroke-width:1.0;stroke-dasharray:5.0,5.0;" x1="173.5" x2="173.5" y1="88.2969" y2="278.0938"/><text fill="#000000" font-family="sans-serif" font-size="14" lengthAdjust="spacingAndGlyphs" textLength="31" x="5" y="84.9951">User</text><ellipse cx="23.5" cy="15" fill="#FEFECE" filter="url(#f1licipanzxebd)" rx="8" ry="8" style="stroke:#A80036;stroke-width:2.0;"/><path d="M23.5,23 L23.5,50 M10.5,31 L36.5,31 M23.5,50 L10.5,65 M23.5,50 L36.5,65 " fill="none" filter="url(#f1licipanzxebd)" style="stroke:#A80036;stroke-width:2.0;"/><text fill="#000000" font-family="sans-serif" font-size="14" lengthAdjust="spacingAndGlyphs" textLength="31" x="5" y="290.0889">User</text><ellipse cx="23.5" cy="303.3906" fill="#FEFECE" filter="url(#f1licipanzxebd)" rx="8" ry="8" style="stroke:#A80036;stroke-width:2.0;"/><path d="M23.5,311.3906 L23.5,338.3906 M10.5,319.3906 L36.5,319.3906 M23.5,338.3906 L10.5,353.3906 M23.5,338.3906 L36.5,353.3906 " fill="none" filter="url(#f1licipanzxebd)" style="stroke:#A80036;stroke-width:2.0;"/><rect fill="#FEFECE" filter="url(#f1licipanzxebd)" height="46.5938" style="stroke:#A80036;stroke-width:1.5;" width="132" x="105.5" y="36.7031"/><text fill="#000000" font-family="sans-serif" font-size="14" font-style="italic" lengthAdjust="spacingAndGlyphs" textLength="118" x="112.5" y="56.6982">«Member Node»</text><text fill="#000000" font-family="sans-serif" font-size="14" lengthAdjust="spacingAndGlyphs" textLength="22" x="160.5" y="72.9951">MN</text><rect fill="#FEFECE" filter="url(#f1licipanzxebd)" height="46.5938" style="stroke:#A80036;stroke-width:1.5;" width="132" x="105.5" y="277.0938"/><text fill="#000000" font-family="sans-serif" font-size="14" font-style="italic" lengthAdjust="spacingAndGlyphs" textLength="118" x="112.5" y="297.0889">«Member Node»</text><text fill="#000000" font-family="sans-serif" font-size="14" lengthAdjust="spacingAndGlyphs" textLength="22" x="160.5" y="313.3857">MN</text><rect fill="#FFFFFF" filter="url(#f1licipanzxebd)" height="71.2656" style="stroke:#A80036;stroke-width:1.0;" width="10" x="168.5" y="188.8281"/><path d="M178,103.2969 L178,158.2969 L412,158.2969 L412,113.2969 L402,103.2969 L178,103.2969 " fill="#FBFB77" filter="url(#f1licipanzxebd)" style="stroke:#A80036;stroke-width:1.0;"/><path d="M402,103.2969 L402,113.2969 L412,113.2969 L402,103.2969 " fill="#FBFB77" style="stroke:#A80036;stroke-width:1.0;"/><text fill="#000000" font-family="sans-serif" font-size="13" lengthAdjust="spacingAndGlyphs" textLength="213" x="184" y="120.3638">Member Node is shown, however</text><text fill="#000000" font-family="sans-serif" font-size="13" lengthAdjust="spacingAndGlyphs" textLength="184" x="184" y="135.4966">process is the same for both</text><text fill="#000000" font-family="sans-serif" font-size="13" lengthAdjust="spacingAndGlyphs" textLength="209" x="184" y="150.6294">Member and Coordianting Nodes</text><polygon fill="#A80036" points="156.5,184.8281,166.5,188.8281,156.5,192.8281,160.5,188.8281" style="stroke:#A80036;stroke-width:1.0;"/><line style="stroke:#A80036;stroke-width:1.0;" x1="23.5" x2="162.5" y1="188.8281" y2="188.8281"/><text fill="#000000" font-family="sans-serif" font-size="13" lengthAdjust="spacingAndGlyphs" textLength="126" x="30.5" y="183.7622">restricted operation</text><line style="stroke:#A80036;stroke-width:1.0;" x1="178.5" x2="220.5" y1="217.9609" y2="217.9609"/><line style="stroke:#A80036;stroke-width:1.0;" x1="220.5" x2="220.5" y1="217.9609" y2="230.9609"/><line style="stroke:#A80036;stroke-width:1.0;" x1="179.5" x2="220.5" y1="230.9609" y2="230.9609"/><polygon fill="#A80036" points="189.5,226.9609,179.5,230.9609,189.5,234.9609,185.5,230.9609" style="stroke:#A80036;stroke-width:1.0;"/><text fill="#000000" font-family="sans-serif" font-size="13" lengthAdjust="spacingAndGlyphs" textLength="111" x="185.5" y="212.895">verify credentials</text><polygon fill="#A80036" points="34.5,256.0938,24.5,260.0938,34.5,264.0938,30.5,260.0938" style="stroke:#A80036;stroke-width:1.0;"/><line style="stroke:#A80036;stroke-width:1.0;" x1="28.5" x2="172.5" y1="260.0938" y2="260.0938"/><text fill="#000000" font-family="sans-serif" font-size="13" lengthAdjust="spacingAndGlyphs" textLength="59" x="40.5" y="255.0278">response</text><!--MD5=[5e6149f8e0b89d908ec0d8cdfa89f4ac]
@startuml
actor User
participant MN <<Member Node>>
note right of MN
  Member Node is shown, however
  process is the same for both
  Member and Coordianting Nodes
end note
User -> MN: restricted operation
activate MN
MN -> MN: verify credentials
MN -> User: response
deactivate MN
@enduml

PlantUML version 1.2020.21beta3(Unknown compile time)
(GPL source distribution)
Java Runtime: Java(TM) SE Runtime Environment
JVM: Java HotSpot(TM) 64-Bit Server VM
Default Encoding: UTF-8
Language: en
Country: US
--></g></svg>