<?xml version="1.0" encoding="UTF-8" standalone="no"?><svg xmlns="http://www.w3.org/2000/svg" xmlns:xlink="http://www.w3.org/1999/xlink" contentScriptType="application/ecmascript" contentStyleType="text/css" height="601px" preserveAspectRatio="none" style="width:403px;height:601px;" version="1.1" viewBox="0 0 403 601" width="403px" zoomAndPan="magnify"><defs><filter height="300%" id="fnfummz3fhpik" width="300%" x="-1" y="-1"><feGaussianBlur result="blurOut" stdDeviation="2.0"/><feColorMatrix in="blurOut" result="blurOut2" type="matrix" values="0 0 0 0 0 0 0 0 0 0 0 0 0 0 0 0 0 0 .4 0"/><feOffset dx="4.0" dy="4.0" in="blurOut2" result="blurOut3"/><feBlend in="SourceGraphic" in2="blurOut3" mode="normal"/></filter></defs><g><ellipse cx="18" cy="24" fill="#000000" filter="url(#fnfummz3fhpik)" rx="10" ry="10" style="stroke:none;stroke-width:1.0;"/><rect fill="#FEFECE" filter="url(#fnfummz3fhpik)" height="33.9688" rx="12.5" ry="12.5" style="stroke:#A80036;stroke-width:1.5;" width="179" x="48.5" y="7"/><text fill="#000000" font-family="sans-serif" font-size="12" lengthAdjust="spacingAndGlyphs" textLength="159" x="58.5" y="28.1387">System metadata updated</text><rect fill="#FEFECE" filter="url(#fnfummz3fhpik)" height="33.9688" rx="12.5" ry="12.5" style="stroke:#A80036;stroke-width:1.5;" width="85" x="95.5" y="82"/><text fill="#000000" font-family="sans-serif" font-size="12" lengthAdjust="spacingAndGlyphs" textLength="65" x="105.5" y="103.1387">Index Task</text><rect fill="#FEFECE" filter="url(#fnfummz3fhpik)" height="33.9688" rx="12.5" ry="12.5" style="stroke:#A80036;stroke-width:1.5;" width="169" x="53.5" y="157"/><text fill="#000000" font-family="sans-serif" font-size="12" lengthAdjust="spacingAndGlyphs" textLength="149" x="63.5" y="178.1387">Extract system metadata</text><polygon fill="#FEFECE" filter="url(#fnfummz3fhpik)" points="138,232,150,244,138,256,126,244,138,232" style="stroke:#A80036;stroke-width:1.5;"/><rect fill="#FEFECE" filter="url(#fnfummz3fhpik)" height="33.9688" rx="12.5" ry="12.5" style="stroke:#A80036;stroke-width:1.5;" width="164" x="7" y="276"/><text fill="#000000" font-family="sans-serif" font-size="12" lengthAdjust="spacingAndGlyphs" textLength="144" x="17" y="297.1387">Parse science metadata</text><rect fill="#FEFECE" filter="url(#fnfummz3fhpik)" height="33.9688" rx="12.5" ry="12.5" style="stroke:#A80036;stroke-width:1.5;" width="99" x="123.5" y="494"/><text fill="#000000" font-family="sans-serif" font-size="12" lengthAdjust="spacingAndGlyphs" textLength="79" x="133.5" y="515.1387">Update SOLR</text><polygon fill="#FEFECE" filter="url(#fnfummz3fhpik)" points="173,335,185,347,173,359,161,347,173,335" style="stroke:#A80036;stroke-width:1.5;"/><rect fill="#FEFECE" filter="url(#fnfummz3fhpik)" height="33.9688" rx="12.5" ry="12.5" style="stroke:#A80036;stroke-width:1.5;" width="142" x="230" y="330"/><text fill="#000000" font-family="sans-serif" font-size="12" lengthAdjust="spacingAndGlyphs" textLength="122" x="240" y="351.1387">Parse resource map</text><rect fill="#FEFECE" filter="url(#fnfummz3fhpik)" height="47.9375" rx="12.5" ry="12.5" style="stroke:#A80036;stroke-width:1.5;" width="183" x="206.5" y="405"/><text fill="#000000" font-family="sans-serif" font-size="12" lengthAdjust="spacingAndGlyphs" textLength="160" x="218" y="426.1387">Update data and metadata</text><text fill="#000000" font-family="sans-serif" font-size="12" lengthAdjust="spacingAndGlyphs" textLength="159" x="220.5" y="440.1074">resource map index fields</text><ellipse cx="173" cy="579" fill="none" filter="url(#fnfummz3fhpik)" rx="10" ry="10" style="stroke:#000000;stroke-width:1.0;"/><ellipse cx="173.5" cy="579.5" fill="#000000" rx="6" ry="6" style="stroke:none;stroke-width:1.0;"/><!--MD5=[a8e6bdf2fe722ab0f57d38f71005ee43]
link start to System metadata updated--><path d="M28.3125,24 C33.347,24 38.3815,24 43.416,24 " fill="none" id="start-to-System metadata updated" style="stroke:#A80036;stroke-width:1.0;"/><polygon fill="#A80036" points="48.4504,24,39.4504,20,43.4504,24,39.4504,28,48.4504,24" style="stroke:#A80036;stroke-width:1.0;"/><!--MD5=[f6ab29f407f37454f1a41a3b769c5aab]
link System metadata updated to Index Task--><path d="M138,41.201 C138,51.692 138,65.463 138,76.818 " fill="none" id="System metadata updated-to-Index Task" style="stroke:#A80036;stroke-width:1.0;"/><polygon fill="#A80036" points="138,81.844,142,72.844,138,76.844,134,72.844,138,81.844" style="stroke:#A80036;stroke-width:1.0;"/><!--MD5=[4aa70f7ead1bb16b70d72de77384d1ae]
link Index Task to Extract system metadata--><path d="M138,116.201 C138,126.692 138,140.463 138,151.818 " fill="none" id="Index Task-to-Extract system metadata" style="stroke:#A80036;stroke-width:1.0;"/><polygon fill="#A80036" points="138,156.844,142,147.844,138,151.844,134,147.844,138,156.844" style="stroke:#A80036;stroke-width:1.0;"/><!--MD5=[df69680e22f19627d30ae41224d20cf1]
link Extract system metadata to #76590--><path d="M138,191.115 C138,201.916 138,216.082 138,226.883 " fill="none" id="Extract system metadata-to-#76590" style="stroke:#A80036;stroke-width:1.0;"/><polygon fill="#A80036" points="138,231.885,142,222.885,138,226.885,134,222.885,138,231.885" style="stroke:#A80036;stroke-width:1.0;"/><text fill="#000000" font-family="sans-serif" font-size="11" lengthAdjust="spacingAndGlyphs" textLength="46" x="75.3594" y="208.7388">Science</text><text fill="#000000" font-family="sans-serif" font-size="11" lengthAdjust="spacingAndGlyphs" textLength="59" x="68.8594" y="221.5435">Metadata?</text><!--MD5=[f06e3e4d3dbe99ec707fbfdfc3d12823]
link #76590 to Parse science metadata--><path d="M132.379,250.391 C126.849,255.696 118.062,264.124 109.838,272.012 " fill="none" id="#76590-to-Parse science metadata" style="stroke:#A80036;stroke-width:1.0;"/><polygon fill="#A80036" points="105.863,275.825,115.127,272.4815,109.4713,272.3638,109.589,266.7082,105.863,275.825" style="stroke:#A80036;stroke-width:1.0;"/><text fill="#000000" font-family="sans-serif" font-size="11" lengthAdjust="spacingAndGlyphs" textLength="23" x="95.126" y="260.3144">true</text><!--MD5=[1060724555f053587a032b45b4a4aac8]
link Parse science metadata to Update SOLR--><path d="M95.3137,310.235 C110.34,348.874 148.213,446.262 164.896,489.1605 " fill="none" id="Parse science metadata-to-Update SOLR" style="stroke:#A80036;stroke-width:1.0;"/><polygon fill="#A80036" points="166.728,493.8711,167.1944,484.0333,164.916,489.211,159.7383,486.9326,166.728,493.8711" style="stroke:#A80036;stroke-width:1.0;"/><!--MD5=[8b677b41cb53943e82cbfa7428c26ea1]
link #76590 to #76597--><path d="M145.338,249.133 C153.571,254.236 166.492,263.762 172,276 C180.085,293.965 178.333,317.244 175.959,331.905 " fill="none" id="#76590-to-#76597" style="stroke:#A80036;stroke-width:1.0;"/><polygon fill="#A80036" points="175.073,336.891,180.5851,328.7291,175.9473,331.968,172.7084,327.3302,175.073,336.891" style="stroke:#A80036;stroke-width:1.0;"/><text fill="#000000" font-family="sans-serif" font-size="11" lengthAdjust="spacingAndGlyphs" textLength="53" x="120.0314" y="311.4806">Resource</text><text fill="#000000" font-family="sans-serif" font-size="11" lengthAdjust="spacingAndGlyphs" textLength="29" x="132.0314" y="324.2853">Map?</text><!--MD5=[2810e1b9e0db1c912dc2a35fcd57a9d0]
link #76597 to Parse resource map--><path d="M185.273,347 C194.943,347 209.317,347 224.676,347 " fill="none" id="#76597-to-Parse resource map" style="stroke:#A80036;stroke-width:1.0;"/><polygon fill="#A80036" points="229.917,347,220.917,343,224.917,347,220.917,351,229.917,347" style="stroke:#A80036;stroke-width:1.0;"/><text fill="#000000" font-family="sans-serif" font-size="11" lengthAdjust="spacingAndGlyphs" textLength="23" x="196" y="341.2104">true</text><!--MD5=[11d6a1757dee8e3a792346806c2b9ba0]
link Parse resource map to Update data and metadata\n resource map index fields--><path d="M300.393,364.189 C300.009,374.416 299.503,387.908 299.056,399.851 " fill="none" id="Parse resource map-to-Update data and metadata\n resource map index fields" style="stroke:#A80036;stroke-width:1.0;"/><polygon fill="#A80036" points="298.868,404.861,303.202,396.017,299.0551,399.8645,295.2076,395.7176,298.868,404.861" style="stroke:#A80036;stroke-width:1.0;"/><!--MD5=[c7bb6c6cfe462cfbaf81c5b1344e2b51]
link Update data and metadata\n resource map index fields to Update SOLR--><path d="M261.845,453.139 C243.1,465.136 220.485,479.609 202.763,490.9514 " fill="none" id="Update data and metadata\n resource map index fields-to-Update SOLR" style="stroke:#A80036;stroke-width:1.0;"/><polygon fill="#A80036" points="198.369,493.7641,208.1059,492.2834,202.5808,491.0696,203.7947,485.5445,198.369,493.7641" style="stroke:#A80036;stroke-width:1.0;"/><!--MD5=[d057bc8f8120d26e5e17263640389578]
link #76597 to Update SOLR--><path d="M173,359.135 C173,385.734 173,453.352 173,488.32 " fill="none" id="#76597-to-Update SOLR" style="stroke:#A80036;stroke-width:1.0;"/><polygon fill="#A80036" points="173,493.6408,177,484.6408,173,488.6408,169,484.6408,173,493.6408" style="stroke:#A80036;stroke-width:1.0;"/><!--MD5=[46e174c52984bd84824c5162d6aa3236]
link Update SOLR to end--><path d="M173,528.3146 C173,539.2368 173,553.4683 173,563.8993 " fill="none" id="Update SOLR-to-end" style="stroke:#A80036;stroke-width:1.0;"/><polygon fill="#A80036" points="173,568.97,177,559.97,173,563.97,169,559.97,173,568.97" style="stroke:#A80036;stroke-width:1.0;"/><!--MD5=[64354b1678361ce0a90a9867e6bf478c]
@startuml
(*) -right-> "System metadata updated"
- -> "Index Task"
- -> "Extract system metadata"
if "Science\nMetadata?" then
  -right-> [true] "Parse science metadata"
  - -> "Update SOLR"
else
  if "Resource\nMap?" then
    -right-> [true] "Parse resource map"
    - -> "Update data and metadata\n resource map index fields"
    - -> "Update SOLR"
  else
    - -> "Update SOLR"
    - -> (*)
  endif
endif
@enduml

PlantUML version 1.2020.21beta3(Unknown compile time)
(GPL source distribution)
Java Runtime: Java(TM) SE Runtime Environment
JVM: Java HotSpot(TM) 64-Bit Server VM
Default Encoding: UTF-8
Language: en
Country: US
--></g></svg>