<?xml version="1.0" encoding="UTF-8" standalone="no"?><svg xmlns="http://www.w3.org/2000/svg" xmlns:xlink="http://www.w3.org/1999/xlink" contentScriptType="application/ecmascript" contentStyleType="text/css" height="310px" preserveAspectRatio="none" style="width:464px;height:310px;" version="1.1" viewBox="0 0 464 310" width="464px" zoomAndPan="magnify"><defs><filter height="300%" id="f1j3gwdqeki8d2" width="300%" x="-1" y="-1"><feGaussianBlur result="blurOut" stdDeviation="2.0"/><feColorMatrix in="blurOut" result="blurOut2" type="matrix" values="0 0 0 0 0 0 0 0 0 0 0 0 0 0 0 0 0 0 .4 0"/><feOffset dx="4.0" dy="4.0" in="blurOut2" result="blurOut3"/><feBlend in="SourceGraphic" in2="blurOut3" mode="normal"/></filter></defs><g><!--MD5=[4a65e84059005d12693a083370a06717]
entity client--><ellipse cx="125.5" cy="14" fill="#FEFECE" filter="url(#f1j3gwdqeki8d2)" rx="8" ry="8" style="stroke:#A80036;stroke-width:1.5;"/><path d="M125.5,22 L125.5,49 M112.5,30 L138.5,30 M125.5,49 L112.5,64 M125.5,49 L138.5,64 " fill="none" filter="url(#f1j3gwdqeki8d2)" style="stroke:#A80036;stroke-width:1.5;"/><text fill="#000000" font-family="sans-serif" font-size="14" lengthAdjust="spacingAndGlyphs" textLength="31" x="110" y="82.4951">User</text><ellipse cx="87.4151" cy="280.183" fill="#FEFECE" filter="url(#f1j3gwdqeki8d2)" rx="81.4151" ry="18.683" style="stroke:#A80036;stroke-width:1.5;"/><text fill="#000000" font-family="sans-serif" font-size="14" lengthAdjust="spacingAndGlyphs" textLength="134" x="20.4151" y="284.8315">12. Authentication</text><!--MD5=[33392c2a02031376d07caec538d4dd7e]
entity DataONE--><polygon fill="#FEFECE" filter="url(#f1j3gwdqeki8d2)" points="346,25.5,423,25.5,430,47.7969,447,47.7969,447,64.7969,346,64.7969,346,25.5" style="stroke:#000000;stroke-width:1.5;"/><line style="stroke:#000000;stroke-width:1.5;" x1="346" x2="430" y1="47.7969" y2="47.7969"/><text fill="#000000" font-family="sans-serif" font-size="14" font-weight="bold" lengthAdjust="spacingAndGlyphs" textLength="71" x="350" y="41.4951">DataONE</text><!--MD5=[a7c3fe0f3374b913da9748d1ac0dbbf6]
entity CN--><ellipse cx="243.5" cy="14" fill="#FEFECE" filter="url(#f1j3gwdqeki8d2)" rx="8" ry="8" style="stroke:#A80036;stroke-width:1.5;"/><path d="M243.5,22 L243.5,49 M230.5,30 L256.5,30 M243.5,49 L230.5,64 M243.5,49 L256.5,64 " fill="none" filter="url(#f1j3gwdqeki8d2)" style="stroke:#A80036;stroke-width:1.5;"/><text fill="#000000" font-family="sans-serif" font-size="14" lengthAdjust="spacingAndGlyphs" textLength="134" x="176.5" y="82.4951">Coordinating Node</text><ellipse cx="281.6068" cy="279.9214" fill="#FEFECE" filter="url(#f1j3gwdqeki8d2)" rx="77.6068" ry="17.9214" style="stroke:#A80036;stroke-width:1.5;"/><text fill="#000000" font-family="sans-serif" font-size="14" lengthAdjust="spacingAndGlyphs" textLength="125" x="219.1068" y="284.5698">13. Authorization</text><ellipse cx="184.2712" cy="165.3542" fill="#FEFECE" filter="url(#f1j3gwdqeki8d2)" rx="82.2712" ry="18.8542" style="stroke:#A80036;stroke-width:1.5;"/><text fill="#000000" font-family="sans-serif" font-size="14" lengthAdjust="spacingAndGlyphs" textLength="136" x="116.2712" y="170.0027">36. Resolve Object</text><!--MD5=[92f34c4985f819f4bc0274a787898236]
link client to resolve--><path d="M141.002,77.134 C151.995,99.215 166.366,128.077 175.517,146.458 " fill="none" id="client-resolve" style="stroke:#A80036;stroke-width:1.0;"/><!--MD5=[8e7d1165fbb456835308c365e79ea658]
link CN to resolve--><path d="M223.69,85.788 C213.446,106.363 201.448,130.46 193.452,146.52 " fill="none" id="CN-resolve" style="stroke:#A80036;stroke-width:1.0;"/><!--MD5=[f9bfe1aaa5fbcf924e9b15d865bc2d1f]
link resolve to author--><path d="M199.87,184.326 C217.17,204.3903 245.243,236.9488 263.539,258.1691 " fill="none" id="resolve-to-author" style="stroke:#A80036;stroke-width:1.0;stroke-dasharray:7.0,7.0;"/><polygon fill="#A80036" points="266.837,261.9939,263.9899,252.5655,263.5722,258.207,257.9308,257.7893,266.837,261.9939" style="stroke:#A80036;stroke-width:1.0;"/><text fill="#000000" font-family="sans-serif" font-size="13" lengthAdjust="spacingAndGlyphs" textLength="68" x="240.5" y="227.5669">«includes»</text><!--MD5=[99395730da80e7b8c98f90ef2497d1dc]
link resolve to authen--><path d="M169.13,184.326 C151.931,204.2737 124.084,236.5706 105.781,257.7978 " fill="none" id="resolve-to-authen" style="stroke:#A80036;stroke-width:1.0;stroke-dasharray:7.0,7.0;"/><polygon fill="#A80036" points="102.4793,261.6271,111.3856,257.4227,105.7442,257.8402,105.3266,252.1988,102.4793,261.6271" style="stroke:#A80036;stroke-width:1.0;"/><text fill="#000000" font-family="sans-serif" font-size="13" lengthAdjust="spacingAndGlyphs" textLength="68" x="143.5" y="227.5669">«includes»</text><!--MD5=[a9cd537a0848fba9309800ad2d285e10]
@startuml
actor "User" as client
usecase "12. Authentication" as authen

package "DataONE"
  actor "Coordinating Node" as CN
  usecase "13. Authorization" as author
  usecase "36. Resolve Object" as resolve
  client - - resolve
  CN - - resolve
  resolve ..> author: <<includes>>
  resolve ..> authen: <<includes>>
@enduml

PlantUML version 1.2020.21beta3(Unknown compile time)
(GPL source distribution)
Java Runtime: Java(TM) SE Runtime Environment
JVM: Java HotSpot(TM) 64-Bit Server VM
Default Encoding: UTF-8
Language: en
Country: US
--></g></svg>