<?xml version="1.0" encoding="UTF-8" standalone="no"?><svg xmlns="http://www.w3.org/2000/svg" xmlns:xlink="http://www.w3.org/1999/xlink" contentScriptType="application/ecmascript" contentStyleType="text/css" height="313px" preserveAspectRatio="none" style="width:421px;height:313px;" version="1.1" viewBox="0 0 421 313" width="421px" zoomAndPan="magnify"><defs><filter height="300%" id="f1np8walxhvbs3" width="300%" x="-1" y="-1"><feGaussianBlur result="blurOut" stdDeviation="2.0"/><feColorMatrix in="blurOut" result="blurOut2" type="matrix" values="0 0 0 0 0 0 0 0 0 0 0 0 0 0 0 0 0 0 .4 0"/><feOffset dx="4.0" dy="4.0" in="blurOut2" result="blurOut3"/><feBlend in="SourceGraphic" in2="blurOut3" mode="normal"/></filter></defs><g><ellipse cx="87.4151" cy="283.183" fill="#FEFECE" filter="url(#f1np8walxhvbs3)" rx="81.4151" ry="18.683" style="stroke:#A80036;stroke-width:1.5;"/><text fill="#000000" font-family="sans-serif" font-size="14" lengthAdjust="spacingAndGlyphs" textLength="134" x="20.4151" y="287.8315">12. Authentication</text><!--MD5=[33392c2a02031376d07caec538d4dd7e]
entity DataONE--><polygon fill="#FEFECE" filter="url(#f1np8walxhvbs3)" points="303,25.5,380,25.5,387,47.7969,404,47.7969,404,64.7969,303,64.7969,303,25.5" style="stroke:#000000;stroke-width:1.5;"/><line style="stroke:#000000;stroke-width:1.5;" x1="303" x2="387" y1="47.7969" y2="47.7969"/><text fill="#000000" font-family="sans-serif" font-size="14" font-weight="bold" lengthAdjust="spacingAndGlyphs" textLength="71" x="307" y="41.4951">DataONE</text><!--MD5=[a7c3fe0f3374b913da9748d1ac0dbbf6]
entity CN--><ellipse cx="122.5" cy="14" fill="#FEFECE" filter="url(#f1np8walxhvbs3)" rx="8" ry="8" style="stroke:#A80036;stroke-width:1.5;"/><path d="M122.5,22 L122.5,49 M109.5,30 L135.5,30 M122.5,49 L109.5,64 M122.5,49 L135.5,64 " fill="none" filter="url(#f1np8walxhvbs3)" style="stroke:#A80036;stroke-width:1.5;"/><text fill="#000000" font-family="sans-serif" font-size="14" lengthAdjust="spacingAndGlyphs" textLength="134" x="55.5" y="82.4951">Coordinating Node</text><!--MD5=[c9a2ba68e0c0646a57a52bf4b09dc8f6]
entity ITK--><ellipse cx="246.5" cy="14" fill="#FEFECE" filter="url(#f1np8walxhvbs3)" rx="8" ry="8" style="stroke:#A80036;stroke-width:1.5;"/><path d="M246.5,22 L246.5,49 M233.5,30 L259.5,30 M246.5,49 L233.5,64 M246.5,49 L259.5,64 " fill="none" filter="url(#f1np8walxhvbs3)" style="stroke:#A80036;stroke-width:1.5;"/><text fill="#000000" font-family="sans-serif" font-size="14" lengthAdjust="spacingAndGlyphs" textLength="43" x="225" y="82.4951">Client</text><ellipse cx="281.6068" cy="282.9214" fill="#FEFECE" filter="url(#f1np8walxhvbs3)" rx="77.6068" ry="17.9214" style="stroke:#A80036;stroke-width:1.5;"/><text fill="#000000" font-family="sans-serif" font-size="14" lengthAdjust="spacingAndGlyphs" textLength="125" x="219.1068" y="287.5698">13. Authorization</text><ellipse cx="184.5567" cy="167.0113" fill="#FEFECE" filter="url(#f1np8walxhvbs3)" rx="90.5567" ry="20.5113" style="stroke:#A80036;stroke-width:1.5;"/><text fill="#000000" font-family="sans-serif" font-size="14" lengthAdjust="spacingAndGlyphs" textLength="155" x="107.0567" y="171.6598">38. Reserve Identifier</text><!--MD5=[4d9e44dcffac982b9a25be173cd49d63]
link CN to RES--><path d="M142.973,85.625 C153.555,106.106 165.993,130.18 174.479,146.605 " fill="none" id="CN-RES" style="stroke:#A80036;stroke-width:1.0;"/><!--MD5=[c4ac12917841641f70c52e618fdcc4d0]
link ITK to RES--><path d="M226.027,85.625 C215.445,106.106 203.007,130.18 194.521,146.605 " fill="none" id="ITK-RES" style="stroke:#A80036;stroke-width:1.0;"/><!--MD5=[dc344a9d1f814afb94347c1a6e342b96]
link RES to author--><path d="M200.955,187.339 C218.386,207.8253 245.815,240.0607 263.73,261.116 " fill="none" id="RES-to-author" style="stroke:#A80036;stroke-width:1.0;stroke-dasharray:7.0,7.0;"/><polygon fill="#A80036" points="267.181,265.1712,264.3941,255.7249,263.9404,261.3635,258.3018,260.9098,267.181,265.1712" style="stroke:#A80036;stroke-width:1.0;"/><text fill="#000000" font-family="sans-serif" font-size="13" lengthAdjust="spacingAndGlyphs" textLength="68" x="240.5" y="230.5669">«includes»</text><!--MD5=[76d4e49b1547645382aa77cdfb82c7a5]
link RES to authen--><path d="M168.045,187.339 C150.816,207.5871 123.822,239.3126 105.8985,260.3771 " fill="none" id="RES-to-authen" style="stroke:#A80036;stroke-width:1.0;stroke-dasharray:7.0,7.0;"/><polygon fill="#A80036" points="102.4404,264.4412,111.3194,260.1794,105.6808,260.6333,105.2268,254.9947,102.4404,264.4412" style="stroke:#A80036;stroke-width:1.0;"/><text fill="#000000" font-family="sans-serif" font-size="13" lengthAdjust="spacingAndGlyphs" textLength="68" x="143.5" y="230.5669">«includes»</text><!--MD5=[ba7dd14361e116db621317bc15decd0c]
@startuml
usecase "12. Authentication" as authen
package "DataONE"
  actor "Coordinating Node" as CN
  actor "Client" as ITK
  usecase "13. Authorization" as author
  usecase "38. Reserve Identifier" as RES
  CN - - RES
  ITK - - RES
  RES ..> author: <<includes>>
  RES ..> authen: <<includes>>
@enduml

PlantUML version 1.2020.21beta3(Unknown compile time)
(GPL source distribution)
Java Runtime: Java(TM) SE Runtime Environment
JVM: Java HotSpot(TM) 64-Bit Server VM
Default Encoding: UTF-8
Language: en
Country: US
--></g></svg>