<?xml version="1.0" encoding="UTF-8" standalone="no"?><svg xmlns="http://www.w3.org/2000/svg" xmlns:xlink="http://www.w3.org/1999/xlink" contentScriptType="application/ecmascript" contentStyleType="text/css" height="1113px" preserveAspectRatio="none" style="width:827px;height:1113px;" version="1.1" viewBox="0 0 827 1113" width="827px" zoomAndPan="magnify"><defs><filter height="300%" id="f1g2mo3kwdx2e7" width="300%" x="-1" y="-1"><feGaussianBlur result="blurOut" stdDeviation="2.0"/><feColorMatrix in="blurOut" result="blurOut2" type="matrix" values="0 0 0 0 0 0 0 0 0 0 0 0 0 0 0 0 0 0 .4 0"/><feOffset dx="4.0" dy="4.0" in="blurOut2" result="blurOut3"/><feBlend in="SourceGraphic" in2="blurOut3" mode="normal"/></filter></defs><g><rect fill="#FFFFFF" filter="url(#f1g2mo3kwdx2e7)" height="122.5313" style="stroke:#A80036;stroke-width:1.0;" width="10" x="113" y="635.2188"/><rect fill="#FFFFFF" filter="url(#f1g2mo3kwdx2e7)" height="254.3281" style="stroke:#A80036;stroke-width:1.0;" width="10" x="315" y="327.625"/><rect fill="#FFFFFF" filter="url(#f1g2mo3kwdx2e7)" height="29.1328" style="stroke:#A80036;stroke-width:1.0;" width="10" x="315" y="693.4844"/><rect fill="#FFFFFF" filter="url(#f1g2mo3kwdx2e7)" height="29.1328" style="stroke:#A80036;stroke-width:1.0;" width="10" x="315" y="863.2813"/><rect fill="#FFFFFF" filter="url(#f1g2mo3kwdx2e7)" height="263.1953" style="stroke:#A80036;stroke-width:1.0;" width="10" x="572" y="664.3516"/><rect fill="#FFFFFF" filter="url(#f1g2mo3kwdx2e7)" height="414.9922" style="stroke:#000000;stroke-width:2.0;" width="773" x="40" y="596.9531"/><line style="stroke:#A80036;stroke-width:1.0;stroke-dasharray:5.0,5.0;" x1="22" x2="22" y1="88.2969" y2="1028.9453"/><line style="stroke:#A80036;stroke-width:1.0;stroke-dasharray:5.0,5.0;" x1="118" x2="118" y1="88.2969" y2="1028.9453"/><line style="stroke:#A80036;stroke-width:1.0;stroke-dasharray:5.0,5.0;" x1="319.5" x2="319.5" y1="88.2969" y2="1028.9453"/><line style="stroke:#A80036;stroke-width:1.0;stroke-dasharray:5.0,5.0;" x1="577" x2="577" y1="88.2969" y2="1028.9453"/><text fill="#000000" font-family="sans-serif" font-size="14" lengthAdjust="spacingAndGlyphs" textLength="29" x="5" y="84.9951">Bob</text><ellipse cx="22.5" cy="15" fill="#FEFECE" filter="url(#f1g2mo3kwdx2e7)" rx="8" ry="8" style="stroke:#A80036;stroke-width:2.0;"/><path d="M22.5,23 L22.5,50 M9.5,31 L35.5,31 M22.5,50 L9.5,65 M22.5,50 L35.5,65 " fill="none" filter="url(#f1g2mo3kwdx2e7)" style="stroke:#A80036;stroke-width:2.0;"/><text fill="#000000" font-family="sans-serif" font-size="14" lengthAdjust="spacingAndGlyphs" textLength="29" x="5" y="1040.9404">Bob</text><ellipse cx="22.5" cy="1054.2422" fill="#FEFECE" filter="url(#f1g2mo3kwdx2e7)" rx="8" ry="8" style="stroke:#A80036;stroke-width:2.0;"/><path d="M22.5,1062.2422 L22.5,1089.2422 M9.5,1070.2422 L35.5,1070.2422 M22.5,1089.2422 L9.5,1104.2422 M22.5,1089.2422 L35.5,1104.2422 " fill="none" filter="url(#f1g2mo3kwdx2e7)" style="stroke:#A80036;stroke-width:2.0;"/><rect fill="#FEFECE" filter="url(#f1g2mo3kwdx2e7)" height="46.5938" style="stroke:#A80036;stroke-width:1.5;" width="132" x="50" y="36.7031"/><text fill="#000000" font-family="sans-serif" font-size="14" font-style="italic" lengthAdjust="spacingAndGlyphs" textLength="118" x="57" y="56.6982">«Member Node»</text><text fill="#000000" font-family="sans-serif" font-size="14" lengthAdjust="spacingAndGlyphs" textLength="96" x="68" y="72.9951">Authoritative</text><rect fill="#FEFECE" filter="url(#f1g2mo3kwdx2e7)" height="46.5938" style="stroke:#A80036;stroke-width:1.5;" width="132" x="50" y="1027.9453"/><text fill="#000000" font-family="sans-serif" font-size="14" font-style="italic" lengthAdjust="spacingAndGlyphs" textLength="118" x="57" y="1047.9404">«Member Node»</text><text fill="#000000" font-family="sans-serif" font-size="14" lengthAdjust="spacingAndGlyphs" textLength="96" x="68" y="1064.2373">Authoritative</text><rect fill="#FEFECE" filter="url(#f1g2mo3kwdx2e7)" height="46.5938" style="stroke:#A80036;stroke-width:1.5;" width="165" x="235.5" y="36.7031"/><text fill="#000000" font-family="sans-serif" font-size="14" font-style="italic" lengthAdjust="spacingAndGlyphs" textLength="151" x="242.5" y="56.6982">«Coordinating Node»</text><text fill="#000000" font-family="sans-serif" font-size="14" lengthAdjust="spacingAndGlyphs" textLength="134" x="251" y="72.9951">Coordinating Node</text><rect fill="#FEFECE" filter="url(#f1g2mo3kwdx2e7)" height="46.5938" style="stroke:#A80036;stroke-width:1.5;" width="165" x="235.5" y="1027.9453"/><text fill="#000000" font-family="sans-serif" font-size="14" font-style="italic" lengthAdjust="spacingAndGlyphs" textLength="151" x="242.5" y="1047.9404">«Coordinating Node»</text><text fill="#000000" font-family="sans-serif" font-size="14" lengthAdjust="spacingAndGlyphs" textLength="134" x="251" y="1064.2373">Coordinating Node</text><rect fill="#FEFECE" filter="url(#f1g2mo3kwdx2e7)" height="46.5938" style="stroke:#A80036;stroke-width:1.5;" width="132" x="509" y="36.7031"/><text fill="#000000" font-family="sans-serif" font-size="14" font-style="italic" lengthAdjust="spacingAndGlyphs" textLength="118" x="516" y="56.6982">«Member Node»</text><text fill="#000000" font-family="sans-serif" font-size="14" lengthAdjust="spacingAndGlyphs" textLength="53" x="548.5" y="72.9951">Replica</text><rect fill="#FEFECE" filter="url(#f1g2mo3kwdx2e7)" height="46.5938" style="stroke:#A80036;stroke-width:1.5;" width="132" x="509" y="1027.9453"/><text fill="#000000" font-family="sans-serif" font-size="14" font-style="italic" lengthAdjust="spacingAndGlyphs" textLength="118" x="516" y="1047.9404">«Member Node»</text><text fill="#000000" font-family="sans-serif" font-size="14" lengthAdjust="spacingAndGlyphs" textLength="53" x="548.5" y="1064.2373">Replica</text><rect fill="#FFFFFF" filter="url(#f1g2mo3kwdx2e7)" height="122.5313" style="stroke:#A80036;stroke-width:1.0;" width="10" x="113" y="635.2188"/><rect fill="#FFFFFF" filter="url(#f1g2mo3kwdx2e7)" height="254.3281" style="stroke:#A80036;stroke-width:1.0;" width="10" x="315" y="327.625"/><rect fill="#FFFFFF" filter="url(#f1g2mo3kwdx2e7)" height="29.1328" style="stroke:#A80036;stroke-width:1.0;" width="10" x="315" y="693.4844"/><rect fill="#FFFFFF" filter="url(#f1g2mo3kwdx2e7)" height="29.1328" style="stroke:#A80036;stroke-width:1.0;" width="10" x="315" y="863.2813"/><rect fill="#FFFFFF" filter="url(#f1g2mo3kwdx2e7)" height="263.1953" style="stroke:#A80036;stroke-width:1.0;" width="10" x="572" y="664.3516"/><path d="M325,103.2969 L325,158.2969 L542,158.2969 L542,113.2969 L532,103.2969 L325,103.2969 " fill="#FBFB77" filter="url(#f1g2mo3kwdx2e7)" style="stroke:#A80036;stroke-width:1.0;"/><path d="M532,103.2969 L532,113.2969 L542,113.2969 L532,103.2969 " fill="#FBFB77" style="stroke:#A80036;stroke-width:1.0;"/><text fill="#000000" font-family="sans-serif" font-size="13" lengthAdjust="spacingAndGlyphs" textLength="113" x="331" y="120.3638">System Metadata</text><text fill="#000000" font-family="sans-serif" font-size="13" lengthAdjust="spacingAndGlyphs" textLength="113" x="331" y="135.4966">Serial Version = 1</text><text fill="#000000" font-family="sans-serif" font-size="13" lengthAdjust="spacingAndGlyphs" textLength="196" x="331" y="150.6294">dateSysMetadataModified = t1</text><path d="M123,172.6953 L123,227.6953 L340,227.6953 L340,182.6953 L330,172.6953 L123,172.6953 " fill="#FBFB77" filter="url(#f1g2mo3kwdx2e7)" style="stroke:#A80036;stroke-width:1.0;"/><path d="M330,172.6953 L330,182.6953 L340,182.6953 L330,172.6953 " fill="#FBFB77" style="stroke:#A80036;stroke-width:1.0;"/><text fill="#000000" font-family="sans-serif" font-size="13" lengthAdjust="spacingAndGlyphs" textLength="113" x="129" y="189.7622">System Metadata</text><text fill="#000000" font-family="sans-serif" font-size="13" lengthAdjust="spacingAndGlyphs" textLength="113" x="129" y="204.895">Serial Version = 1</text><text fill="#000000" font-family="sans-serif" font-size="13" lengthAdjust="spacingAndGlyphs" textLength="196" x="129" y="220.0278">dateSysMetadataModified = t1</text><path d="M582,242.0938 L582,297.0938 L799,297.0938 L799,252.0938 L789,242.0938 L582,242.0938 " fill="#FBFB77" filter="url(#f1g2mo3kwdx2e7)" style="stroke:#A80036;stroke-width:1.0;"/><path d="M789,242.0938 L789,252.0938 L799,252.0938 L789,242.0938 " fill="#FBFB77" style="stroke:#A80036;stroke-width:1.0;"/><text fill="#000000" font-family="sans-serif" font-size="13" lengthAdjust="spacingAndGlyphs" textLength="113" x="588" y="259.1606">System Metadata</text><text fill="#000000" font-family="sans-serif" font-size="13" lengthAdjust="spacingAndGlyphs" textLength="113" x="588" y="274.2935">Serial Version = 1</text><text fill="#000000" font-family="sans-serif" font-size="13" lengthAdjust="spacingAndGlyphs" textLength="196" x="588" y="289.4263">dateSysMetadataModified = t1</text><polygon fill="#A80036" points="303,323.625,313,327.625,303,331.625,307,327.625" style="stroke:#A80036;stroke-width:1.0;"/><line style="stroke:#A80036;stroke-width:1.0;" x1="22.5" x2="309" y1="327.625" y2="327.625"/><text fill="#000000" font-family="sans-serif" font-size="13" font-weight="bold" lengthAdjust="spacingAndGlyphs" textLength="9" x="29.5" y="322.5591">1</text><text fill="#000000" font-family="sans-serif" font-size="13" lengthAdjust="spacingAndGlyphs" textLength="89" x="42.5" y="322.5591">Alter Property</text><line style="stroke:#A80036;stroke-width:1.0;" x1="325" x2="367" y1="387.0234" y2="387.0234"/><line style="stroke:#A80036;stroke-width:1.0;" x1="367" x2="367" y1="387.0234" y2="400.0234"/><line style="stroke:#A80036;stroke-width:1.0;" x1="326" x2="367" y1="400.0234" y2="400.0234"/><polygon fill="#A80036" points="336,396.0234,326,400.0234,336,404.0234,332,400.0234" style="stroke:#A80036;stroke-width:1.0;"/><text fill="#000000" font-family="sans-serif" font-size="13" font-weight="bold" lengthAdjust="spacingAndGlyphs" textLength="9" x="332" y="366.8247">2</text><text fill="#000000" font-family="sans-serif" font-size="13" lengthAdjust="spacingAndGlyphs" textLength="104" x="345" y="351.6919">update property</text><text fill="#000000" font-family="sans-serif" font-size="13" lengthAdjust="spacingAndGlyphs" textLength="102" x="345" y="366.8247">serialVersion++</text><text fill="#000000" font-family="sans-serif" font-size="13" lengthAdjust="spacingAndGlyphs" textLength="220" x="345" y="381.9575">dateSysMetadataModified = now()</text><path d="M330,413.0234 L330,468.0234 L547,468.0234 L547,423.0234 L537,413.0234 L330,413.0234 " fill="#FBFB77" filter="url(#f1g2mo3kwdx2e7)" style="stroke:#A80036;stroke-width:1.0;"/><path d="M537,413.0234 L537,423.0234 L547,423.0234 L537,413.0234 " fill="#FBFB77" style="stroke:#A80036;stroke-width:1.0;"/><text fill="#000000" font-family="sans-serif" font-size="13" lengthAdjust="spacingAndGlyphs" textLength="113" x="336" y="430.0903">System Metadata</text><text fill="#000000" font-family="sans-serif" font-size="13" lengthAdjust="spacingAndGlyphs" textLength="113" x="336" y="445.2231">Serial Version = 2</text><text fill="#000000" font-family="sans-serif" font-size="13" lengthAdjust="spacingAndGlyphs" textLength="196" x="336" y="460.356">dateSysMetadataModified = t2</text><polygon fill="#A80036" points="811,494.5547,821,498.5547,811,502.5547,815,498.5547" style="stroke:#A80036;stroke-width:1.0;"/><line style="stroke:#A80036;stroke-width:1.0;" x1="325" x2="817" y1="498.5547" y2="498.5547"/><text fill="#000000" font-family="sans-serif" font-size="13" font-weight="bold" lengthAdjust="spacingAndGlyphs" textLength="8" x="332" y="493.4888">3</text><text fill="#000000" font-family="sans-serif" font-size="13" lengthAdjust="spacingAndGlyphs" textLength="308" x="344" y="493.4888">&lt;&lt;internal&gt;&gt; Notify System Metadata Changed</text><path d="M330,511.5547 L330,551.5547 L550,551.5547 L550,521.5547 L540,511.5547 L330,511.5547 " fill="#FBFB77" filter="url(#f1g2mo3kwdx2e7)" style="stroke:#A80036;stroke-width:1.0;"/><path d="M540,511.5547 L540,521.5547 L550,521.5547 L540,511.5547 " fill="#FBFB77" style="stroke:#A80036;stroke-width:1.0;"/><text fill="#000000" font-family="sans-serif" font-size="13" lengthAdjust="spacingAndGlyphs" textLength="199" x="336" y="528.6216">Indexing and other CN services</text><text fill="#000000" font-family="sans-serif" font-size="13" lengthAdjust="spacingAndGlyphs" textLength="166" x="336" y="543.7544">are notified of the change</text><polygon fill="#A80036" points="33.5,577.9531,23.5,581.9531,33.5,585.9531,29.5,581.9531" style="stroke:#A80036;stroke-width:1.0;"/><line style="stroke:#A80036;stroke-width:1.0;" x1="27.5" x2="319" y1="581.9531" y2="581.9531"/><text fill="#000000" font-family="sans-serif" font-size="13" font-weight="bold" lengthAdjust="spacingAndGlyphs" textLength="9" x="39.5" y="576.8872">4</text><text fill="#000000" font-family="sans-serif" font-size="13" lengthAdjust="spacingAndGlyphs" textLength="22" x="52.5" y="576.8872">ack</text><path d="M40,596.9531 L280,596.9531 L280,603.9531 L270,613.9531 L40,613.9531 L40,596.9531 " fill="#EEEEEE" style="stroke:#000000;stroke-width:1.0;"/><rect fill="none" height="414.9922" style="stroke:#000000;stroke-width:2.0;" width="773" x="40" y="596.9531"/><text fill="#000000" font-family="sans-serif" font-size="13" font-weight="bold" lengthAdjust="spacingAndGlyphs" textLength="195" x="55" y="610.02">Update All Member Nodes</text><polygon fill="#A80036" points="134,631.2188,124,635.2188,134,639.2188,130,635.2188" style="stroke:#A80036;stroke-width:1.0;"/><line style="stroke:#A80036;stroke-width:1.0;" x1="128" x2="319" y1="635.2188" y2="635.2188"/><text fill="#000000" font-family="sans-serif" font-size="13" font-weight="bold" lengthAdjust="spacingAndGlyphs" textLength="9" x="140" y="630.1528">5</text><text fill="#000000" font-family="sans-serif" font-size="13" lengthAdjust="spacingAndGlyphs" textLength="165" x="153" y="630.1528">systemMetadataChanged</text><polygon fill="#A80036" points="560,660.3516,570,664.3516,560,668.3516,564,664.3516" style="stroke:#A80036;stroke-width:1.0;"/><line style="stroke:#A80036;stroke-width:1.0;" x1="320" x2="566" y1="664.3516" y2="664.3516"/><text fill="#000000" font-family="sans-serif" font-size="13" font-weight="bold" lengthAdjust="spacingAndGlyphs" textLength="9" x="327" y="659.2856">6</text><text fill="#000000" font-family="sans-serif" font-size="13" lengthAdjust="spacingAndGlyphs" textLength="165" x="340" y="659.2856">systemMetadataChanged</text><polygon fill="#A80036" points="303,689.4844,313,693.4844,303,697.4844,307,693.4844" style="stroke:#A80036;stroke-width:1.0;"/><line style="stroke:#A80036;stroke-width:1.0;" x1="123" x2="309" y1="693.4844" y2="693.4844"/><text fill="#000000" font-family="sans-serif" font-size="13" font-weight="bold" lengthAdjust="spacingAndGlyphs" textLength="9" x="130" y="688.4185">7</text><text fill="#000000" font-family="sans-serif" font-size="13" lengthAdjust="spacingAndGlyphs" textLength="130" x="143" y="688.4185">getSystemMetadata</text><polygon fill="#A80036" points="134,718.6172,124,722.6172,134,726.6172,130,722.6172" style="stroke:#A80036;stroke-width:1.0;"/><line style="stroke:#A80036;stroke-width:1.0;" x1="128" x2="319" y1="722.6172" y2="722.6172"/><text fill="#000000" font-family="sans-serif" font-size="13" font-weight="bold" lengthAdjust="spacingAndGlyphs" textLength="9" x="140" y="717.5513">8</text><text fill="#000000" font-family="sans-serif" font-size="13" lengthAdjust="spacingAndGlyphs" textLength="109" x="153" y="717.5513">SystemMetadata</text><line style="stroke:#A80036;stroke-width:1.0;" x1="123" x2="165" y1="756.75" y2="756.75"/><line style="stroke:#A80036;stroke-width:1.0;" x1="165" x2="165" y1="756.75" y2="769.75"/><line style="stroke:#A80036;stroke-width:1.0;" x1="118" x2="165" y1="769.75" y2="769.75"/><polygon fill="#A80036" points="128,765.75,118,769.75,128,773.75,124,769.75" style="stroke:#A80036;stroke-width:1.0;"/><text fill="#000000" font-family="sans-serif" font-size="13" font-weight="bold" lengthAdjust="spacingAndGlyphs" textLength="9" x="130" y="751.6841">9</text><text fill="#000000" font-family="sans-serif" font-size="13" lengthAdjust="spacingAndGlyphs" textLength="104" x="143" y="751.6841">update property</text><path d="M123,777.75 L123,832.75 L340,832.75 L340,787.75 L330,777.75 L123,777.75 " fill="#FBFB77" filter="url(#f1g2mo3kwdx2e7)" style="stroke:#A80036;stroke-width:1.0;"/><path d="M330,777.75 L330,787.75 L340,787.75 L330,777.75 " fill="#FBFB77" style="stroke:#A80036;stroke-width:1.0;"/><text fill="#000000" font-family="sans-serif" font-size="13" lengthAdjust="spacingAndGlyphs" textLength="113" x="129" y="794.8169">System Metadata</text><text fill="#000000" font-family="sans-serif" font-size="13" lengthAdjust="spacingAndGlyphs" textLength="113" x="129" y="809.9497">Serial Version = 2</text><text fill="#000000" font-family="sans-serif" font-size="13" lengthAdjust="spacingAndGlyphs" textLength="196" x="129" y="825.0825">dateSysMetadataModified = t2</text><polygon fill="#A80036" points="336,859.2813,326,863.2813,336,867.2813,332,863.2813" style="stroke:#A80036;stroke-width:1.0;"/><line style="stroke:#A80036;stroke-width:1.0;" x1="330" x2="571" y1="863.2813" y2="863.2813"/><text fill="#000000" font-family="sans-serif" font-size="13" font-weight="bold" lengthAdjust="spacingAndGlyphs" textLength="19" x="342" y="858.2153">10</text><text fill="#000000" font-family="sans-serif" font-size="13" lengthAdjust="spacingAndGlyphs" textLength="130" x="365" y="858.2153">getSystemMetadata</text><polygon fill="#A80036" points="560,888.4141,570,892.4141,560,896.4141,564,892.4141" style="stroke:#A80036;stroke-width:1.0;"/><line style="stroke:#A80036;stroke-width:1.0;" x1="320" x2="566" y1="892.4141" y2="892.4141"/><text fill="#000000" font-family="sans-serif" font-size="13" font-weight="bold" lengthAdjust="spacingAndGlyphs" textLength="18" x="327" y="887.3481">11</text><text fill="#000000" font-family="sans-serif" font-size="13" lengthAdjust="spacingAndGlyphs" textLength="109" x="349" y="887.3481">SystemMetadata</text><line style="stroke:#A80036;stroke-width:1.0;" x1="582" x2="624" y1="926.5469" y2="926.5469"/><line style="stroke:#A80036;stroke-width:1.0;" x1="624" x2="624" y1="926.5469" y2="939.5469"/><line style="stroke:#A80036;stroke-width:1.0;" x1="577" x2="624" y1="939.5469" y2="939.5469"/><polygon fill="#A80036" points="587,935.5469,577,939.5469,587,943.5469,583,939.5469" style="stroke:#A80036;stroke-width:1.0;"/><text fill="#000000" font-family="sans-serif" font-size="13" font-weight="bold" lengthAdjust="spacingAndGlyphs" textLength="18" x="589" y="921.481">12</text><text fill="#000000" font-family="sans-serif" font-size="13" lengthAdjust="spacingAndGlyphs" textLength="104" x="611" y="921.481">update property</text><path d="M582,947.5469 L582,1002.5469 L799,1002.5469 L799,957.5469 L789,947.5469 L582,947.5469 " fill="#FBFB77" filter="url(#f1g2mo3kwdx2e7)" style="stroke:#A80036;stroke-width:1.0;"/><path d="M789,947.5469 L789,957.5469 L799,957.5469 L789,947.5469 " fill="#FBFB77" style="stroke:#A80036;stroke-width:1.0;"/><text fill="#000000" font-family="sans-serif" font-size="13" lengthAdjust="spacingAndGlyphs" textLength="113" x="588" y="964.6138">System Metadata</text><text fill="#000000" font-family="sans-serif" font-size="13" lengthAdjust="spacingAndGlyphs" textLength="113" x="588" y="979.7466">Serial Version = 2</text><text fill="#000000" font-family="sans-serif" font-size="13" lengthAdjust="spacingAndGlyphs" textLength="196" x="588" y="994.8794">dateSysMetadataModified = t2</text><!--MD5=[8e651ffc2d1f73cd510fab64ab806efe]
@startuml
autonumber
actor Bob
participant "Authoritative" as MN <<Member Node>>
participant "Coordinating Node" as CN <<Coordinating Node>>
participant "Replica" as MN_repl <<Member Node>>
note right of CN
  System Metadata
  Serial Version = 1
  dateSysMetadataModified = t1
end note
note right of MN
  System Metadata
  Serial Version = 1
  dateSysMetadataModified = t1
end note
note right of MN_repl
  System Metadata
  Serial Version = 1
  dateSysMetadataModified = t1
end note
Bob -> CN : Alter Property
activate CN
CN -> CN : update property\nserialVersion++\ndateSysMetadataModified = now()
note right of CN
  System Metadata
  Serial Version = 2
  dateSysMetadataModified = t2
end note
CN ->] : <<internal>> Notify System Metadata Changed
note right of CN
  Indexing and other CN services
  are notified of the change
end note
CN -> Bob: ack
deactivate CN

group Update All Member Nodes
CN -> MN: systemMetadataChanged
activate MN
CN->MN_repl: systemMetadataChanged
activate MN_repl
MN -> CN: getSystemMetadata
activate CN
CN -> MN: SystemMetadata
deactivate CN
MN -> MN : update property
note right of MN
  System Metadata
  Serial Version = 2
  dateSysMetadataModified = t2
end note
deactivate MN
MN_repl -> CN: getSystemMetadata
activate CN
CN -> MN_repl: SystemMetadata
deactivate CN
MN_repl -> MN_repl : update property
note right of MN_repl
  System Metadata
  Serial Version = 2
  dateSysMetadataModified = t2
end note
deactivate MN_repl
end
@enduml

PlantUML version 1.2020.21beta3(Unknown compile time)
(GPL source distribution)
Java Runtime: Java(TM) SE Runtime Environment
JVM: Java HotSpot(TM) 64-Bit Server VM
Default Encoding: UTF-8
Language: en
Country: US
--></g></svg>