<?xml version="1.0" encoding="UTF-8" standalone="no"?><svg xmlns="http://www.w3.org/2000/svg" xmlns:xlink="http://www.w3.org/1999/xlink" contentScriptType="application/ecmascript" contentStyleType="text/css" height="305px" preserveAspectRatio="none" style="width:745px;height:305px;" version="1.1" viewBox="0 0 745 305" width="745px" zoomAndPan="magnify"><defs><filter height="300%" id="frruqjf80puzz" width="300%" x="-1" y="-1"><feGaussianBlur result="blurOut" stdDeviation="2.0"/><feColorMatrix in="blurOut" result="blurOut2" type="matrix" values="0 0 0 0 0 0 0 0 0 0 0 0 0 0 0 0 0 0 .4 0"/><feOffset dx="4.0" dy="4.0" in="blurOut2" result="blurOut3"/><feBlend in="SourceGraphic" in2="blurOut3" mode="normal"/></filter></defs><g><line style="stroke:#A80036;stroke-width:1.0;stroke-dasharray:5.0,5.0;" x1="208" x2="208" y1="88.2969" y2="220.8281"/><line style="stroke:#A80036;stroke-width:1.0;stroke-dasharray:5.0,5.0;" x1="344" x2="344" y1="88.2969" y2="220.8281"/><line style="stroke:#A80036;stroke-width:1.0;stroke-dasharray:5.0,5.0;" x1="650.5" x2="650.5" y1="88.2969" y2="220.8281"/><text fill="#000000" font-family="sans-serif" font-size="14" lengthAdjust="spacingAndGlyphs" textLength="129" x="141" y="84.9951">User (Data Owner)</text><ellipse cx="208.5" cy="15" fill="#FEFECE" filter="url(#frruqjf80puzz)" rx="8" ry="8" style="stroke:#A80036;stroke-width:2.0;"/><path d="M208.5,23 L208.5,50 M195.5,31 L221.5,31 M208.5,50 L195.5,65 M208.5,50 L221.5,65 " fill="none" filter="url(#frruqjf80puzz)" style="stroke:#A80036;stroke-width:2.0;"/><text fill="#000000" font-family="sans-serif" font-size="14" lengthAdjust="spacingAndGlyphs" textLength="129" x="141" y="232.8232">User (Data Owner)</text><ellipse cx="208.5" cy="246.125" fill="#FEFECE" filter="url(#frruqjf80puzz)" rx="8" ry="8" style="stroke:#A80036;stroke-width:2.0;"/><path d="M208.5,254.125 L208.5,281.125 M195.5,262.125 L221.5,262.125 M208.5,281.125 L195.5,296.125 M208.5,281.125 L221.5,296.125 " fill="none" filter="url(#frruqjf80puzz)" style="stroke:#A80036;stroke-width:2.0;"/><rect fill="#FEFECE" filter="url(#frruqjf80puzz)" height="46.5938" style="stroke:#A80036;stroke-width:1.5;" width="112" x="286" y="36.7031"/><text fill="#000000" font-family="sans-serif" font-size="14" font-style="italic" lengthAdjust="spacingAndGlyphs" textLength="98" x="293" y="56.6982">«Application»</text><text fill="#000000" font-family="sans-serif" font-size="14" lengthAdjust="spacingAndGlyphs" textLength="43" x="320.5" y="72.9951">Client</text><rect fill="#FEFECE" filter="url(#frruqjf80puzz)" height="46.5938" style="stroke:#A80036;stroke-width:1.5;" width="112" x="286" y="219.8281"/><text fill="#000000" font-family="sans-serif" font-size="14" font-style="italic" lengthAdjust="spacingAndGlyphs" textLength="98" x="293" y="239.8232">«Application»</text><text fill="#000000" font-family="sans-serif" font-size="14" lengthAdjust="spacingAndGlyphs" textLength="43" x="320.5" y="256.1201">Client</text><rect fill="#FEFECE" filter="url(#frruqjf80puzz)" height="46.5938" style="stroke:#A80036;stroke-width:1.5;" width="165" x="566.5" y="36.7031"/><text fill="#000000" font-family="sans-serif" font-size="14" font-style="italic" lengthAdjust="spacingAndGlyphs" textLength="151" x="573.5" y="56.6982">«Coordinating Node»</text><text fill="#000000" font-family="sans-serif" font-size="14" lengthAdjust="spacingAndGlyphs" textLength="88" x="605" y="72.9951">Register API</text><rect fill="#FEFECE" filter="url(#frruqjf80puzz)" height="46.5938" style="stroke:#A80036;stroke-width:1.5;" width="165" x="566.5" y="219.8281"/><text fill="#000000" font-family="sans-serif" font-size="14" font-style="italic" lengthAdjust="spacingAndGlyphs" textLength="151" x="573.5" y="239.8232">«Coordinating Node»</text><text fill="#000000" font-family="sans-serif" font-size="14" lengthAdjust="spacingAndGlyphs" textLength="88" x="605" y="256.1201">Register API</text><polygon fill="#A80036" points="332,120.4297,342,124.4297,332,128.4297,336,124.4297" style="stroke:#A80036;stroke-width:1.0;"/><line style="stroke:#A80036;stroke-width:1.0;" x1="208.5" x2="338" y1="124.4297" y2="124.4297"/><path d="M5,103.2969 L5,143.2969 L200,143.2969 L200,113.2969 L190,103.2969 L5,103.2969 " fill="#FBFB77" filter="url(#frruqjf80puzz)" style="stroke:#A80036;stroke-width:1.0;"/><path d="M190,103.2969 L190,113.2969 L200,113.2969 L190,103.2969 " fill="#FBFB77" style="stroke:#A80036;stroke-width:1.0;"/><text fill="#000000" font-family="sans-serif" font-size="13" lengthAdjust="spacingAndGlyphs" textLength="146" x="11" y="120.3638">Assume user authority</text><text fill="#000000" font-family="sans-serif" font-size="13" lengthAdjust="spacingAndGlyphs" textLength="174" x="11" y="135.4966">for notification registration.</text><polygon fill="#A80036" points="639,169.6953,649,173.6953,639,177.6953,643,173.6953" style="stroke:#A80036;stroke-width:1.0;"/><line style="stroke:#A80036;stroke-width:1.0;" x1="344" x2="645" y1="173.6953" y2="173.6953"/><text fill="#000000" font-family="sans-serif" font-size="13" lengthAdjust="spacingAndGlyphs" textLength="283" x="351" y="168.6294">registerForNotification (token, dataOwnerID)</text><polygon fill="#A80036" points="355,198.8281,345,202.8281,355,206.8281,351,202.8281" style="stroke:#A80036;stroke-width:1.0;"/><line style="stroke:#A80036;stroke-width:1.0;stroke-dasharray:2.0,2.0;" x1="349" x2="650" y1="202.8281" y2="202.8281"/><text fill="#000000" font-family="sans-serif" font-size="13" lengthAdjust="spacingAndGlyphs" textLength="62" x="361" y="197.7622">ack or fail</text><!--MD5=[50d2fe762bb3e37f9a4405b0601e5767]
@startuml
actor "User (Data Owner)" as user
participant "Client" as app_client << Application >>
user -> app_client
note left
Assume user authority
for notification registration.
end note
participant "Register API" as c_reg << Coordinating Node >>
app_client -> c_reg: registerForNotification (token, dataOwnerID)
app_client <- - c_reg: ack or fail
@enduml

PlantUML version 1.2020.21beta3(Unknown compile time)
(GPL source distribution)
Java Runtime: Java(TM) SE Runtime Environment
JVM: Java HotSpot(TM) 64-Bit Server VM
Default Encoding: UTF-8
Language: en
Country: US
--></g></svg>