<?xml version="1.0" encoding="UTF-8" standalone="no"?><svg xmlns="http://www.w3.org/2000/svg" xmlns:xlink="http://www.w3.org/1999/xlink" contentScriptType="application/ecmascript" contentStyleType="text/css" height="330px" preserveAspectRatio="none" style="width:724px;height:330px;" version="1.1" viewBox="0 0 724 330" width="724px" zoomAndPan="magnify"><defs><filter height="300%" id="f1143qkhrq6jw8" width="300%" x="-1" y="-1"><feGaussianBlur result="blurOut" stdDeviation="2.0"/><feColorMatrix in="blurOut" result="blurOut2" type="matrix" values="0 0 0 0 0 0 0 0 0 0 0 0 0 0 0 0 0 0 .4 0"/><feOffset dx="4.0" dy="4.0" in="blurOut2" result="blurOut3"/><feBlend in="SourceGraphic" in2="blurOut3" mode="normal"/></filter></defs><g><line style="stroke:#A80036;stroke-width:1.0;stroke-dasharray:5.0,5.0;" x1="72" x2="72" y1="88.2969" y2="245.9609"/><line style="stroke:#A80036;stroke-width:1.0;stroke-dasharray:5.0,5.0;" x1="208" x2="208" y1="88.2969" y2="245.9609"/><line style="stroke:#A80036;stroke-width:1.0;stroke-dasharray:5.0,5.0;" x1="417.5" x2="417.5" y1="88.2969" y2="245.9609"/><text fill="#000000" font-family="sans-serif" font-size="14" lengthAdjust="spacingAndGlyphs" textLength="129" x="5" y="84.9951">User (Data Owner)</text><ellipse cx="72.5" cy="15" fill="#FEFECE" filter="url(#f1143qkhrq6jw8)" rx="8" ry="8" style="stroke:#A80036;stroke-width:2.0;"/><path d="M72.5,23 L72.5,50 M59.5,31 L85.5,31 M72.5,50 L59.5,65 M72.5,50 L85.5,65 " fill="none" filter="url(#f1143qkhrq6jw8)" style="stroke:#A80036;stroke-width:2.0;"/><text fill="#000000" font-family="sans-serif" font-size="14" lengthAdjust="spacingAndGlyphs" textLength="129" x="5" y="257.9561">User (Data Owner)</text><ellipse cx="72.5" cy="271.2578" fill="#FEFECE" filter="url(#f1143qkhrq6jw8)" rx="8" ry="8" style="stroke:#A80036;stroke-width:2.0;"/><path d="M72.5,279.2578 L72.5,306.2578 M59.5,287.2578 L85.5,287.2578 M72.5,306.2578 L59.5,321.2578 M72.5,306.2578 L85.5,321.2578 " fill="none" filter="url(#f1143qkhrq6jw8)" style="stroke:#A80036;stroke-width:2.0;"/><rect fill="#FEFECE" filter="url(#f1143qkhrq6jw8)" height="46.5938" style="stroke:#A80036;stroke-width:1.5;" width="112" x="150" y="36.7031"/><text fill="#000000" font-family="sans-serif" font-size="14" font-style="italic" lengthAdjust="spacingAndGlyphs" textLength="98" x="157" y="56.6982">«Application»</text><text fill="#000000" font-family="sans-serif" font-size="14" lengthAdjust="spacingAndGlyphs" textLength="43" x="184.5" y="72.9951">Client</text><rect fill="#FEFECE" filter="url(#f1143qkhrq6jw8)" height="46.5938" style="stroke:#A80036;stroke-width:1.5;" width="112" x="150" y="244.9609"/><text fill="#000000" font-family="sans-serif" font-size="14" font-style="italic" lengthAdjust="spacingAndGlyphs" textLength="98" x="157" y="264.9561">«Application»</text><text fill="#000000" font-family="sans-serif" font-size="14" lengthAdjust="spacingAndGlyphs" textLength="43" x="184.5" y="281.2529">Client</text><rect fill="#FEFECE" filter="url(#f1143qkhrq6jw8)" height="46.5938" style="stroke:#A80036;stroke-width:1.5;" width="165" x="333.5" y="36.7031"/><text fill="#000000" font-family="sans-serif" font-size="14" font-style="italic" lengthAdjust="spacingAndGlyphs" textLength="151" x="340.5" y="56.6982">«Coordinating Node»</text><text fill="#000000" font-family="sans-serif" font-size="14" lengthAdjust="spacingAndGlyphs" textLength="125" x="353.5" y="72.9951">Authorization API</text><rect fill="#FEFECE" filter="url(#f1143qkhrq6jw8)" height="46.5938" style="stroke:#A80036;stroke-width:1.5;" width="165" x="333.5" y="244.9609"/><text fill="#000000" font-family="sans-serif" font-size="14" font-style="italic" lengthAdjust="spacingAndGlyphs" textLength="151" x="340.5" y="264.9561">«Coordinating Node»</text><text fill="#000000" font-family="sans-serif" font-size="14" lengthAdjust="spacingAndGlyphs" textLength="125" x="353.5" y="281.2529">Authorization API</text><polygon fill="#A80036" points="196,120.4297,206,124.4297,196,128.4297,200,124.4297" style="stroke:#A80036;stroke-width:1.0;"/><line style="stroke:#A80036;stroke-width:1.0;" x1="72.5" x2="202" y1="124.4297" y2="124.4297"/><path d="M213,103.2969 L213,143.2969 L402,143.2969 L402,113.2969 L392,103.2969 L213,103.2969 " fill="#FBFB77" filter="url(#f1143qkhrq6jw8)" style="stroke:#A80036;stroke-width:1.0;"/><path d="M392,103.2969 L392,113.2969 L402,113.2969 L392,103.2969 " fill="#FBFB77" style="stroke:#A80036;stroke-width:1.0;"/><text fill="#000000" font-family="sans-serif" font-size="13" lengthAdjust="spacingAndGlyphs" textLength="168" x="219" y="120.3638">Assume user authority for</text><text fill="#000000" font-family="sans-serif" font-size="13" lengthAdjust="spacingAndGlyphs" textLength="140" x="219" y="135.4966">specifying restrictions</text><polygon fill="#A80036" points="406,169.6953,416,173.6953,406,177.6953,410,173.6953" style="stroke:#A80036;stroke-width:1.0;"/><line style="stroke:#A80036;stroke-width:1.0;" x1="208" x2="412" y1="173.6953" y2="173.6953"/><text fill="#000000" font-family="sans-serif" font-size="13" lengthAdjust="spacingAndGlyphs" textLength="186" x="215" y="168.6294">setAccess (PID, accessLevel)</text><polygon fill="#A80036" points="219,211.3945,209,215.3945,219,219.3945,215,215.3945" style="stroke:#A80036;stroke-width:1.0;"/><line style="stroke:#A80036;stroke-width:1.0;stroke-dasharray:2.0,2.0;" x1="213" x2="417" y1="215.3945" y2="215.3945"/><text fill="#000000" font-family="sans-serif" font-size="13" lengthAdjust="spacingAndGlyphs" textLength="62" x="225" y="210.3286">ack or fail</text><path d="M423,186.6953 L423,226.6953 L715,226.6953 L715,196.6953 L705,186.6953 L423,186.6953 " fill="#FBFB77" filter="url(#f1143qkhrq6jw8)" style="stroke:#A80036;stroke-width:1.0;"/><path d="M705,186.6953 L705,196.6953 L715,196.6953 L705,186.6953 " fill="#FBFB77" style="stroke:#A80036;stroke-width:1.0;"/><text fill="#000000" font-family="sans-serif" font-size="13" lengthAdjust="spacingAndGlyphs" textLength="271" x="429" y="203.7622">Users can be members of groups that can</text><text fill="#000000" font-family="sans-serif" font-size="13" lengthAdjust="spacingAndGlyphs" textLength="201" x="429" y="218.895">participate in access directives.</text><!--MD5=[4b4068d1092253f4dfaf55fa7c2457e8]
@startuml
actor "User (Data Owner)" as user
participant "Client" as app_client << Application >>
user -> app_client
note right
Assume user authority for
specifying restrictions
end note
participant "Authorization API" as c_authorize << Coordinating Node >>
app_client -> c_authorize: setAccess (PID, accessLevel)
app_client <- - c_authorize: ack or fail
note right
Users can be members of groups that can
participate in access directives.
end note
@enduml

PlantUML version 1.2020.21beta3(Unknown compile time)
(GPL source distribution)
Java Runtime: Java(TM) SE Runtime Environment
JVM: Java HotSpot(TM) 64-Bit Server VM
Default Encoding: UTF-8
Language: en
Country: US
--></g></svg>