<?xml version="1.0" encoding="UTF-8" standalone="no"?><svg xmlns="http://www.w3.org/2000/svg" xmlns:xlink="http://www.w3.org/1999/xlink" contentScriptType="application/ecmascript" contentStyleType="text/css" height="449px" preserveAspectRatio="none" style="width:792px;height:449px;" version="1.1" viewBox="0 0 792 449" width="792px" zoomAndPan="magnify"><defs><filter height="300%" id="f1nxy0kne4v8u5" width="300%" x="-1" y="-1"><feGaussianBlur result="blurOut" stdDeviation="2.0"/><feColorMatrix in="blurOut" result="blurOut2" type="matrix" values="0 0 0 0 0 0 0 0 0 0 0 0 0 0 0 0 0 0 .4 0"/><feOffset dx="4.0" dy="4.0" in="blurOut2" result="blurOut3"/><feBlend in="SourceGraphic" in2="blurOut3" mode="normal"/></filter></defs><g><rect fill="#FFFFFF" filter="url(#f1nxy0kne4v8u5)" height="213.7969" style="stroke:#A80036;stroke-width:1.0;" width="10" x="441" y="133.4297"/><line style="stroke:#A80036;stroke-width:1.0;stroke-dasharray:5.0,5.0;" x1="23" x2="23" y1="88.2969" y2="365.2266"/><line style="stroke:#A80036;stroke-width:1.0;stroke-dasharray:5.0,5.0;" x1="110" x2="110" y1="88.2969" y2="365.2266"/><line style="stroke:#A80036;stroke-width:1.0;stroke-dasharray:5.0,5.0;" x1="446" x2="446" y1="88.2969" y2="365.2266"/><line style="stroke:#A80036;stroke-width:1.0;stroke-dasharray:5.0,5.0;" x1="697.5" x2="697.5" y1="88.2969" y2="365.2266"/><text fill="#000000" font-family="sans-serif" font-size="14" lengthAdjust="spacingAndGlyphs" textLength="31" x="5" y="84.9951">User</text><ellipse cx="23.5" cy="15" fill="#FEFECE" filter="url(#f1nxy0kne4v8u5)" rx="8" ry="8" style="stroke:#A80036;stroke-width:2.0;"/><path d="M23.5,23 L23.5,50 M10.5,31 L36.5,31 M23.5,50 L10.5,65 M23.5,50 L36.5,65 " fill="none" filter="url(#f1nxy0kne4v8u5)" style="stroke:#A80036;stroke-width:2.0;"/><text fill="#000000" font-family="sans-serif" font-size="14" lengthAdjust="spacingAndGlyphs" textLength="31" x="5" y="377.2217">User</text><ellipse cx="23.5" cy="390.5234" fill="#FEFECE" filter="url(#f1nxy0kne4v8u5)" rx="8" ry="8" style="stroke:#A80036;stroke-width:2.0;"/><path d="M23.5,398.5234 L23.5,425.5234 M10.5,406.5234 L36.5,406.5234 M23.5,425.5234 L10.5,440.5234 M23.5,425.5234 L36.5,440.5234 " fill="none" filter="url(#f1nxy0kne4v8u5)" style="stroke:#A80036;stroke-width:2.0;"/><rect fill="#FEFECE" filter="url(#f1nxy0kne4v8u5)" height="46.5938" style="stroke:#A80036;stroke-width:1.5;" width="112" x="52" y="36.7031"/><text fill="#000000" font-family="sans-serif" font-size="14" font-style="italic" lengthAdjust="spacingAndGlyphs" textLength="98" x="59" y="56.6982">«Application»</text><text fill="#000000" font-family="sans-serif" font-size="14" lengthAdjust="spacingAndGlyphs" textLength="43" x="86.5" y="72.9951">Client</text><rect fill="#FEFECE" filter="url(#f1nxy0kne4v8u5)" height="46.5938" style="stroke:#A80036;stroke-width:1.5;" width="112" x="52" y="364.2266"/><text fill="#000000" font-family="sans-serif" font-size="14" font-style="italic" lengthAdjust="spacingAndGlyphs" textLength="98" x="59" y="384.2217">«Application»</text><text fill="#000000" font-family="sans-serif" font-size="14" lengthAdjust="spacingAndGlyphs" textLength="43" x="86.5" y="400.5186">Client</text><rect fill="#FEFECE" filter="url(#f1nxy0kne4v8u5)" height="46.5938" style="stroke:#A80036;stroke-width:1.5;" width="132" x="378" y="36.7031"/><text fill="#000000" font-family="sans-serif" font-size="14" font-style="italic" lengthAdjust="spacingAndGlyphs" textLength="118" x="385" y="56.6982">«Member Node»</text><text fill="#000000" font-family="sans-serif" font-size="14" lengthAdjust="spacingAndGlyphs" textLength="67" x="410.5" y="72.9951">CRUD API</text><rect fill="#FEFECE" filter="url(#f1nxy0kne4v8u5)" height="46.5938" style="stroke:#A80036;stroke-width:1.5;" width="132" x="378" y="364.2266"/><text fill="#000000" font-family="sans-serif" font-size="14" font-style="italic" lengthAdjust="spacingAndGlyphs" textLength="118" x="385" y="384.2217">«Member Node»</text><text fill="#000000" font-family="sans-serif" font-size="14" lengthAdjust="spacingAndGlyphs" textLength="67" x="410.5" y="400.5186">CRUD API</text><rect fill="#FEFECE" filter="url(#f1nxy0kne4v8u5)" height="46.5938" style="stroke:#A80036;stroke-width:1.5;" width="165" x="613.5" y="36.7031"/><text fill="#000000" font-family="sans-serif" font-size="14" font-style="italic" lengthAdjust="spacingAndGlyphs" textLength="151" x="620.5" y="56.6982">«Coordinating Node»</text><text fill="#000000" font-family="sans-serif" font-size="14" lengthAdjust="spacingAndGlyphs" textLength="67" x="662.5" y="72.9951">CRUD API</text><rect fill="#FEFECE" filter="url(#f1nxy0kne4v8u5)" height="46.5938" style="stroke:#A80036;stroke-width:1.5;" width="165" x="613.5" y="364.2266"/><text fill="#000000" font-family="sans-serif" font-size="14" font-style="italic" lengthAdjust="spacingAndGlyphs" textLength="151" x="620.5" y="384.2217">«Coordinating Node»</text><text fill="#000000" font-family="sans-serif" font-size="14" lengthAdjust="spacingAndGlyphs" textLength="67" x="662.5" y="400.5186">CRUD API</text><rect fill="#FFFFFF" filter="url(#f1nxy0kne4v8u5)" height="213.7969" style="stroke:#A80036;stroke-width:1.0;" width="10" x="441" y="133.4297"/><polygon fill="#A80036" points="98,100.2969,108,104.2969,98,108.2969,102,104.2969" style="stroke:#A80036;stroke-width:1.0;"/><line style="stroke:#A80036;stroke-width:1.0;" x1="23.5" x2="104" y1="104.2969" y2="104.2969"/><polygon fill="#A80036" points="429,129.4297,439,133.4297,429,137.4297,433,133.4297" style="stroke:#A80036;stroke-width:1.0;"/><line style="stroke:#A80036;stroke-width:1.0;" x1="110" x2="435" y1="133.4297" y2="133.4297"/><text fill="#000000" font-family="sans-serif" font-size="13" lengthAdjust="spacingAndGlyphs" textLength="312" x="117" y="128.3638">update(token, obsoletedID, ID, scienceMetadata)</text><polygon fill="#A80036" points="686,158.5625,696,162.5625,686,166.5625,690,162.5625" style="stroke:#A80036;stroke-width:1.0;"/><line style="stroke:#A80036;stroke-width:1.0;" x1="451" x2="692" y1="162.5625" y2="162.5625"/><text fill="#000000" font-family="sans-serif" font-size="13" lengthAdjust="spacingAndGlyphs" textLength="139" x="458" y="157.4966">validatePID(token, ID)</text><polygon fill="#A80036" points="462,187.6953,452,191.6953,462,195.6953,458,191.6953" style="stroke:#A80036;stroke-width:1.0;"/><line style="stroke:#A80036;stroke-width:1.0;" x1="456" x2="697" y1="191.6953" y2="191.6953"/><text fill="#000000" font-family="sans-serif" font-size="13" lengthAdjust="spacingAndGlyphs" textLength="18" x="468" y="186.6294">OK</text><line style="stroke:#A80036;stroke-width:1.0;" x1="451" x2="493" y1="220.8281" y2="220.8281"/><line style="stroke:#A80036;stroke-width:1.0;" x1="493" x2="493" y1="220.8281" y2="233.8281"/><line style="stroke:#A80036;stroke-width:1.0;" x1="452" x2="493" y1="233.8281" y2="233.8281"/><polygon fill="#A80036" points="462,229.8281,452,233.8281,462,237.8281,458,233.8281" style="stroke:#A80036;stroke-width:1.0;"/><text fill="#000000" font-family="sans-serif" font-size="13" lengthAdjust="spacingAndGlyphs" textLength="224" x="458" y="215.7622">create(token, ID, scienceMetadata)</text><line style="stroke:#A80036;stroke-width:1.0;" x1="451" x2="493" y1="262.9609" y2="262.9609"/><line style="stroke:#A80036;stroke-width:1.0;" x1="493" x2="493" y1="262.9609" y2="275.9609"/><line style="stroke:#A80036;stroke-width:1.0;" x1="452" x2="493" y1="275.9609" y2="275.9609"/><polygon fill="#A80036" points="462,271.9609,452,275.9609,462,279.9609,458,275.9609" style="stroke:#A80036;stroke-width:1.0;"/><text fill="#000000" font-family="sans-serif" font-size="13" lengthAdjust="spacingAndGlyphs" textLength="228" x="458" y="257.895">setObsolete(token, ID, obsoletedID)</text><line style="stroke:#A80036;stroke-width:1.0;" x1="451" x2="493" y1="305.0938" y2="305.0938"/><line style="stroke:#A80036;stroke-width:1.0;" x1="493" x2="493" y1="305.0938" y2="318.0938"/><line style="stroke:#A80036;stroke-width:1.0;" x1="452" x2="493" y1="318.0938" y2="318.0938"/><polygon fill="#A80036" points="462,314.0938,452,318.0938,462,322.0938,458,318.0938" style="stroke:#A80036;stroke-width:1.0;"/><text fill="#000000" font-family="sans-serif" font-size="13" lengthAdjust="spacingAndGlyphs" textLength="43" x="458" y="300.0278">store()</text><polygon fill="#A80036" points="121,343.2266,111,347.2266,121,351.2266,117,347.2266" style="stroke:#A80036;stroke-width:1.0;"/><line style="stroke:#A80036;stroke-width:1.0;" x1="115" x2="445" y1="347.2266" y2="347.2266"/><text fill="#000000" font-family="sans-serif" font-size="13" lengthAdjust="spacingAndGlyphs" textLength="18" x="127" y="342.1606">OK</text><!--MD5=[51d0886d07e77a97cc8954f167237f97]
@startuml
Actor User
participant "Client" as app_client << Application >>
User -> app_client

participant "CRUD API" as m_crud << Member Node >>
app_client -> m_crud: update(token, obsoletedID, ID, scienceMetadata)
activate m_crud
participant "CRUD API" as c_crud << Coordinating Node >>
  m_crud -> c_crud: validatePID(token, ID)
  c_crud -> m_crud: OK
  m_crud -> m_crud: create(token, ID, scienceMetadata)
  m_crud -> m_crud: setObsolete(token, ID, obsoletedID)
  m_crud -> m_crud: store()
m_crud -> app_client: OK
deactivate m_crud
@enduml

PlantUML version 1.2020.21beta3(Unknown compile time)
(GPL source distribution)
Java Runtime: Java(TM) SE Runtime Environment
JVM: Java HotSpot(TM) 64-Bit Server VM
Default Encoding: UTF-8
Language: en
Country: US
--></g></svg>