<?xml version="1.0" encoding="UTF-8" standalone="no"?><svg xmlns="http://www.w3.org/2000/svg" xmlns:xlink="http://www.w3.org/1999/xlink" contentScriptType="application/ecmascript" contentStyleType="text/css" height="1114px" preserveAspectRatio="none" style="width:771px;height:1114px;" version="1.1" viewBox="0 0 771 1114" width="771px" zoomAndPan="magnify"><defs><filter height="300%" id="f1xmsvlh74mkuj" width="300%" x="-1" y="-1"><feGaussianBlur result="blurOut" stdDeviation="2.0"/><feColorMatrix in="blurOut" result="blurOut2" type="matrix" values="0 0 0 0 0 0 0 0 0 0 0 0 0 0 0 0 0 0 .4 0"/><feOffset dx="4.0" dy="4.0" in="blurOut2" result="blurOut3"/><feBlend in="SourceGraphic" in2="blurOut3" mode="normal"/></filter></defs><g><text fill="#000000" font-family="sans-serif" font-size="18" lengthAdjust="spacingAndGlyphs" textLength="533" x="117" y="28.708">Replicate content across mixed API versions (authMN.v2)</text><rect fill="#FFFFFF" filter="url(#f1xmsvlh74mkuj)" height="378.5938" style="stroke:#000000;stroke-width:2.0;" width="747" x="10" y="92.25"/><rect fill="#FFFFFF" filter="url(#f1xmsvlh74mkuj)" height="221.0625" style="stroke:#000000;stroke-width:2.0;" width="686" x="10" y="512.8438"/><rect fill="#FFFFFF" filter="url(#f1xmsvlh74mkuj)" height="278.1953" style="stroke:#000000;stroke-width:2.0;" width="686" x="10" y="775.9063"/><line style="stroke:#A80036;stroke-width:1.0;" x1="44" x2="44" y1="75.25" y2="209.7813"/><line style="stroke:#A80036;stroke-width:1.0;stroke-dasharray:1.0,4.0;" x1="44" x2="44" y1="209.7813" y2="237.7813"/><line style="stroke:#A80036;stroke-width:1.0;" x1="44" x2="44" y1="237.7813" y2="477.8438"/><line style="stroke:#A80036;stroke-width:1.0;stroke-dasharray:1.0,4.0;" x1="44" x2="44" y1="477.8438" y2="505.8438"/><line style="stroke:#A80036;stroke-width:1.0;" x1="44" x2="44" y1="505.8438" y2="740.9063"/><line style="stroke:#A80036;stroke-width:1.0;stroke-dasharray:1.0,4.0;" x1="44" x2="44" y1="740.9063" y2="768.9063"/><line style="stroke:#A80036;stroke-width:1.0;" x1="44" x2="44" y1="768.9063" y2="909.5703"/><line style="stroke:#A80036;stroke-width:1.0;stroke-dasharray:1.0,4.0;" x1="44" x2="44" y1="909.5703" y2="937.5703"/><line style="stroke:#A80036;stroke-width:1.0;" x1="44" x2="44" y1="937.5703" y2="1071.1016"/><line style="stroke:#A80036;stroke-width:1.0;" x1="228" x2="228" y1="75.25" y2="209.7813"/><line style="stroke:#A80036;stroke-width:1.0;stroke-dasharray:1.0,4.0;" x1="228" x2="228" y1="209.7813" y2="237.7813"/><line style="stroke:#A80036;stroke-width:1.0;" x1="228" x2="228" y1="237.7813" y2="477.8438"/><line style="stroke:#A80036;stroke-width:1.0;stroke-dasharray:1.0,4.0;" x1="228" x2="228" y1="477.8438" y2="505.8438"/><line style="stroke:#A80036;stroke-width:1.0;" x1="228" x2="228" y1="505.8438" y2="740.9063"/><line style="stroke:#A80036;stroke-width:1.0;stroke-dasharray:1.0,4.0;" x1="228" x2="228" y1="740.9063" y2="768.9063"/><line style="stroke:#A80036;stroke-width:1.0;" x1="228" x2="228" y1="768.9063" y2="909.5703"/><line style="stroke:#A80036;stroke-width:1.0;stroke-dasharray:1.0,4.0;" x1="228" x2="228" y1="909.5703" y2="937.5703"/><line style="stroke:#A80036;stroke-width:1.0;" x1="228" x2="228" y1="937.5703" y2="1071.1016"/><line style="stroke:#A80036;stroke-width:1.0;" x1="325" x2="325" y1="75.25" y2="209.7813"/><line style="stroke:#A80036;stroke-width:1.0;stroke-dasharray:1.0,4.0;" x1="325" x2="325" y1="209.7813" y2="237.7813"/><line style="stroke:#A80036;stroke-width:1.0;" x1="325" x2="325" y1="237.7813" y2="477.8438"/><line style="stroke:#A80036;stroke-width:1.0;stroke-dasharray:1.0,4.0;" x1="325" x2="325" y1="477.8438" y2="505.8438"/><line style="stroke:#A80036;stroke-width:1.0;" x1="325" x2="325" y1="505.8438" y2="740.9063"/><line style="stroke:#A80036;stroke-width:1.0;stroke-dasharray:1.0,4.0;" x1="325" x2="325" y1="740.9063" y2="768.9063"/><line style="stroke:#A80036;stroke-width:1.0;" x1="325" x2="325" y1="768.9063" y2="909.5703"/><line style="stroke:#A80036;stroke-width:1.0;stroke-dasharray:1.0,4.0;" x1="325" x2="325" y1="909.5703" y2="937.5703"/><line style="stroke:#A80036;stroke-width:1.0;" x1="325" x2="325" y1="937.5703" y2="1071.1016"/><line style="stroke:#A80036;stroke-width:1.0;" x1="448" x2="448" y1="75.25" y2="209.7813"/><line style="stroke:#A80036;stroke-width:1.0;stroke-dasharray:1.0,4.0;" x1="448" x2="448" y1="209.7813" y2="237.7813"/><line style="stroke:#A80036;stroke-width:1.0;" x1="448" x2="448" y1="237.7813" y2="477.8438"/><line style="stroke:#A80036;stroke-width:1.0;stroke-dasharray:1.0,4.0;" x1="448" x2="448" y1="477.8438" y2="505.8438"/><line style="stroke:#A80036;stroke-width:1.0;" x1="448" x2="448" y1="505.8438" y2="740.9063"/><line style="stroke:#A80036;stroke-width:1.0;stroke-dasharray:1.0,4.0;" x1="448" x2="448" y1="740.9063" y2="768.9063"/><line style="stroke:#A80036;stroke-width:1.0;" x1="448" x2="448" y1="768.9063" y2="909.5703"/><line style="stroke:#A80036;stroke-width:1.0;stroke-dasharray:1.0,4.0;" x1="448" x2="448" y1="909.5703" y2="937.5703"/><line style="stroke:#A80036;stroke-width:1.0;" x1="448" x2="448" y1="937.5703" y2="1071.1016"/><line style="stroke:#A80036;stroke-width:1.0;" x1="667" x2="667" y1="75.25" y2="209.7813"/><line style="stroke:#A80036;stroke-width:1.0;stroke-dasharray:1.0,4.0;" x1="667" x2="667" y1="209.7813" y2="237.7813"/><line style="stroke:#A80036;stroke-width:1.0;" x1="667" x2="667" y1="237.7813" y2="477.8438"/><line style="stroke:#A80036;stroke-width:1.0;stroke-dasharray:1.0,4.0;" x1="667" x2="667" y1="477.8438" y2="505.8438"/><line style="stroke:#A80036;stroke-width:1.0;" x1="667" x2="667" y1="505.8438" y2="740.9063"/><line style="stroke:#A80036;stroke-width:1.0;stroke-dasharray:1.0,4.0;" x1="667" x2="667" y1="740.9063" y2="768.9063"/><line style="stroke:#A80036;stroke-width:1.0;" x1="667" x2="667" y1="768.9063" y2="909.5703"/><line style="stroke:#A80036;stroke-width:1.0;stroke-dasharray:1.0,4.0;" x1="667" x2="667" y1="909.5703" y2="937.5703"/><line style="stroke:#A80036;stroke-width:1.0;" x1="667" x2="667" y1="937.5703" y2="1071.1016"/><rect fill="#FEFECE" filter="url(#f1xmsvlh74mkuj)" height="30.2969" style="stroke:#A80036;stroke-width:1.5;" width="45" x="20" y="39.9531"/><text fill="#000000" font-family="sans-serif" font-size="14" lengthAdjust="spacingAndGlyphs" textLength="31" x="27" y="59.9482">User</text><rect fill="#FEFECE" filter="url(#f1xmsvlh74mkuj)" height="30.2969" style="stroke:#A80036;stroke-width:1.5;" width="45" x="20" y="1070.1016"/><text fill="#000000" font-family="sans-serif" font-size="14" lengthAdjust="spacingAndGlyphs" textLength="31" x="27" y="1090.0967">User</text><rect fill="#FEFECE" filter="url(#f1xmsvlh74mkuj)" height="30.2969" style="stroke:#A80036;stroke-width:1.5;" width="57" x="198" y="39.9531"/><text fill="#000000" font-family="sans-serif" font-size="14" lengthAdjust="spacingAndGlyphs" textLength="43" x="205" y="59.9482">MN.v2</text><rect fill="#FEFECE" filter="url(#f1xmsvlh74mkuj)" height="30.2969" style="stroke:#A80036;stroke-width:1.5;" width="57" x="198" y="1070.1016"/><text fill="#000000" font-family="sans-serif" font-size="14" lengthAdjust="spacingAndGlyphs" textLength="43" x="205" y="1090.0967">MN.v2</text><rect fill="#FEFECE" filter="url(#f1xmsvlh74mkuj)" height="30.2969" style="stroke:#A80036;stroke-width:1.5;" width="109" x="269" y="39.9531"/><text fill="#000000" font-family="sans-serif" font-size="14" lengthAdjust="spacingAndGlyphs" textLength="95" x="276" y="59.9482">MN.target.v1</text><rect fill="#FEFECE" filter="url(#f1xmsvlh74mkuj)" height="30.2969" style="stroke:#A80036;stroke-width:1.5;" width="109" x="269" y="1070.1016"/><text fill="#000000" font-family="sans-serif" font-size="14" lengthAdjust="spacingAndGlyphs" textLength="95" x="276" y="1090.0967">MN.target.v1</text><rect fill="#FEFECE" filter="url(#f1xmsvlh74mkuj)" height="30.2969" style="stroke:#A80036;stroke-width:1.5;" width="108" x="392" y="39.9531"/><text fill="#000000" font-family="sans-serif" font-size="14" lengthAdjust="spacingAndGlyphs" textLength="94" x="399" y="59.9482">MN.target.v2</text><rect fill="#FEFECE" filter="url(#f1xmsvlh74mkuj)" height="30.2969" style="stroke:#A80036;stroke-width:1.5;" width="108" x="392" y="1070.1016"/><text fill="#000000" font-family="sans-serif" font-size="14" lengthAdjust="spacingAndGlyphs" textLength="94" x="399" y="1090.0967">MN.target.v2</text><rect fill="#FEFECE" filter="url(#f1xmsvlh74mkuj)" height="30.2969" style="stroke:#A80036;stroke-width:1.5;" width="34" x="648" y="39.9531"/><text fill="#000000" font-family="sans-serif" font-size="14" lengthAdjust="spacingAndGlyphs" textLength="20" x="655" y="59.9482">CN</text><rect fill="#FEFECE" filter="url(#f1xmsvlh74mkuj)" height="30.2969" style="stroke:#A80036;stroke-width:1.5;" width="34" x="648" y="1070.1016"/><text fill="#000000" font-family="sans-serif" font-size="14" lengthAdjust="spacingAndGlyphs" textLength="20" x="655" y="1090.0967">CN</text><path d="M10,92.25 L207,92.25 L207,99.25 L197,109.25 L10,109.25 L10,92.25 " fill="#EEEEEE" style="stroke:#000000;stroke-width:1.0;"/><rect fill="none" height="378.5938" style="stroke:#000000;stroke-width:2.0;" width="747" x="10" y="92.25"/><text fill="#000000" font-family="sans-serif" font-size="13" font-weight="bold" lengthAdjust="spacingAndGlyphs" textLength="152" x="25" y="105.3169">Create, Synch, Read</text><polygon fill="#A80036" points="216.5,126.5156,226.5,130.5156,216.5,134.5156,220.5,130.5156" style="stroke:#A80036;stroke-width:1.0;"/><line style="stroke:#A80036;stroke-width:1.0;" x1="44.5" x2="222.5" y1="130.5156" y2="130.5156"/><text fill="#000000" font-family="sans-serif" font-size="13" lengthAdjust="spacingAndGlyphs" textLength="51" x="51.5" y="125.4497">create()</text><polygon fill="#A80036" points="239.5,155.6484,229.5,159.6484,239.5,163.6484,235.5,159.6484" style="stroke:#A80036;stroke-width:1.0;"/><line style="stroke:#A80036;stroke-width:1.0;" x1="233.5" x2="666" y1="159.6484" y2="159.6484"/><text fill="#000000" font-family="sans-serif" font-size="13" lengthAdjust="spacingAndGlyphs" textLength="96" x="245.5" y="154.5825">v2.listObjects()</text><line style="stroke:#A80036;stroke-width:1.0;" x1="667" x2="709" y1="188.7813" y2="188.7813"/><line style="stroke:#A80036;stroke-width:1.0;" x1="709" x2="709" y1="188.7813" y2="201.7813"/><line style="stroke:#A80036;stroke-width:1.0;" x1="668" x2="709" y1="201.7813" y2="201.7813"/><polygon fill="#A80036" points="678,197.7813,668,201.7813,678,205.7813,674,201.7813" style="stroke:#A80036;stroke-width:1.0;"/><text fill="#000000" font-family="sans-serif" font-size="13" lengthAdjust="spacingAndGlyphs" textLength="71" x="674" y="183.7153">v2.create()</text><polygon fill="#A80036" points="216.5,254.9141,226.5,258.9141,216.5,262.9141,220.5,258.9141" style="stroke:#A80036;stroke-width:1.0;"/><line style="stroke:#A80036;stroke-width:1.0;stroke-dasharray:2.0,2.0;" x1="44.5" x2="222.5" y1="258.9141" y2="258.9141"/><text fill="#000000" font-family="sans-serif" font-size="13" lengthAdjust="spacingAndGlyphs" textLength="160" x="51.5" y="253.8481">v1.getSystemMetadata()</text><polygon fill="#A80036" points="55.5,284.0469,45.5,288.0469,55.5,292.0469,51.5,288.0469" style="stroke:#A80036;stroke-width:1.0;"/><line style="stroke:#A80036;stroke-width:1.0;stroke-dasharray:2.0,2.0;" x1="49.5" x2="227.5" y1="288.0469" y2="288.0469"/><text fill="#000000" font-family="sans-serif" font-size="13" lengthAdjust="spacingAndGlyphs" textLength="129" x="61.5" y="282.981">v1.SystemMetadata</text><polygon fill="#A80036" points="216.5,313.1797,226.5,317.1797,216.5,321.1797,220.5,317.1797" style="stroke:#A80036;stroke-width:1.0;"/><line style="stroke:#A80036;stroke-width:1.0;stroke-dasharray:2.0,2.0;" x1="44.5" x2="222.5" y1="317.1797" y2="317.1797"/><text fill="#000000" font-family="sans-serif" font-size="13" lengthAdjust="spacingAndGlyphs" textLength="160" x="51.5" y="312.1138">v2.getSystemMetadata()</text><polygon fill="#A80036" points="55.5,342.3125,45.5,346.3125,55.5,350.3125,51.5,346.3125" style="stroke:#A80036;stroke-width:1.0;"/><line style="stroke:#A80036;stroke-width:1.0;stroke-dasharray:2.0,2.0;" x1="49.5" x2="227.5" y1="346.3125" y2="346.3125"/><text fill="#000000" font-family="sans-serif" font-size="13" lengthAdjust="spacingAndGlyphs" textLength="129" x="61.5" y="341.2466">v2.SystemMetadata</text><polygon fill="#A80036" points="655,371.4453,665,375.4453,655,379.4453,659,375.4453" style="stroke:#A80036;stroke-width:1.0;"/><line style="stroke:#A80036;stroke-width:1.0;stroke-dasharray:2.0,2.0;" x1="44.5" x2="661" y1="375.4453" y2="375.4453"/><text fill="#000000" font-family="sans-serif" font-size="13" lengthAdjust="spacingAndGlyphs" textLength="160" x="51.5" y="370.3794">v1.getSystemMetadata()</text><polygon fill="#A80036" points="55.5,400.5781,45.5,404.5781,55.5,408.5781,51.5,404.5781" style="stroke:#A80036;stroke-width:1.0;"/><line style="stroke:#A80036;stroke-width:1.0;stroke-dasharray:2.0,2.0;" x1="49.5" x2="666" y1="404.5781" y2="404.5781"/><text fill="#000000" font-family="sans-serif" font-size="13" lengthAdjust="spacingAndGlyphs" textLength="129" x="61.5" y="399.5122">v1.SystemMetadata</text><polygon fill="#A80036" points="655,429.7109,665,433.7109,655,437.7109,659,433.7109" style="stroke:#A80036;stroke-width:1.0;"/><line style="stroke:#A80036;stroke-width:1.0;stroke-dasharray:2.0,2.0;" x1="44.5" x2="661" y1="433.7109" y2="433.7109"/><text fill="#000000" font-family="sans-serif" font-size="13" lengthAdjust="spacingAndGlyphs" textLength="160" x="51.5" y="428.645">v2.getSystemMetadata()</text><polygon fill="#A80036" points="55.5,458.8438,45.5,462.8438,55.5,466.8438,51.5,462.8438" style="stroke:#A80036;stroke-width:1.0;"/><line style="stroke:#A80036;stroke-width:1.0;stroke-dasharray:2.0,2.0;" x1="49.5" x2="666" y1="462.8438" y2="462.8438"/><text fill="#000000" font-family="sans-serif" font-size="13" lengthAdjust="spacingAndGlyphs" textLength="129" x="61.5" y="457.7778">v2.SystemMetadata</text><path d="M10,512.8438 L125,512.8438 L125,519.8438 L115,529.8438 L10,529.8438 L10,512.8438 " fill="#EEEEEE" style="stroke:#000000;stroke-width:1.0;"/><rect fill="none" height="221.0625" style="stroke:#000000;stroke-width:2.0;" width="686" x="10" y="512.8438"/><text fill="#000000" font-family="sans-serif" font-size="13" font-weight="bold" lengthAdjust="spacingAndGlyphs" textLength="70" x="25" y="525.9106">Replicate</text><polygon fill="#A80036" points="459,547.1094,449,551.1094,459,555.1094,455,551.1094" style="stroke:#A80036;stroke-width:1.0;"/><line style="stroke:#A80036;stroke-width:1.0;" x1="453" x2="666" y1="551.1094" y2="551.1094"/><text fill="#000000" font-family="sans-serif" font-size="13" lengthAdjust="spacingAndGlyphs" textLength="85" x="465" y="546.0435">v2.replicate()</text><polygon fill="#A80036" points="239.5,576.2422,229.5,580.2422,239.5,584.2422,235.5,580.2422" style="stroke:#A80036;stroke-width:1.0;"/><line style="stroke:#A80036;stroke-width:1.0;" x1="233.5" x2="447" y1="580.2422" y2="580.2422"/><text fill="#000000" font-family="sans-serif" font-size="13" lengthAdjust="spacingAndGlyphs" textLength="97" x="245.5" y="575.1763">v2.getReplica()</text><polygon fill="#A80036" points="436,605.375,446,609.375,436,613.375,440,609.375" style="stroke:#A80036;stroke-width:1.0;"/><line style="stroke:#A80036;stroke-width:1.0;stroke-dasharray:2.0,2.0;" x1="44.5" x2="442" y1="609.375" y2="609.375"/><text fill="#000000" font-family="sans-serif" font-size="13" lengthAdjust="spacingAndGlyphs" textLength="160" x="51.5" y="604.3091">v1.getSystemMetadata()</text><polygon fill="#A80036" points="55.5,634.5078,45.5,638.5078,55.5,642.5078,51.5,638.5078" style="stroke:#A80036;stroke-width:1.0;"/><line style="stroke:#A80036;stroke-width:1.0;stroke-dasharray:2.0,2.0;" x1="49.5" x2="447" y1="638.5078" y2="638.5078"/><text fill="#000000" font-family="sans-serif" font-size="13" lengthAdjust="spacingAndGlyphs" textLength="129" x="61.5" y="633.4419">v1.SystemMetadata</text><polygon fill="#A80036" points="436,663.6406,446,667.6406,436,671.6406,440,667.6406" style="stroke:#A80036;stroke-width:1.0;"/><line style="stroke:#A80036;stroke-width:1.0;stroke-dasharray:2.0,2.0;" x1="44.5" x2="442" y1="667.6406" y2="667.6406"/><text fill="#000000" font-family="sans-serif" font-size="13" lengthAdjust="spacingAndGlyphs" textLength="160" x="51.5" y="662.5747">v2.getSystemMetadata()</text><polygon fill="#A80036" points="55.5,692.7734,45.5,696.7734,55.5,700.7734,51.5,696.7734" style="stroke:#A80036;stroke-width:1.0;"/><line style="stroke:#A80036;stroke-width:1.0;stroke-dasharray:2.0,2.0;" x1="49.5" x2="447" y1="696.7734" y2="696.7734"/><text fill="#000000" font-family="sans-serif" font-size="13" lengthAdjust="spacingAndGlyphs" textLength="129" x="61.5" y="691.7075">v2.SystemMetadata</text><polygon fill="#A80036" points="336.5,721.9063,326.5,725.9063,336.5,729.9063,332.5,725.9063" style="stroke:#A80036;stroke-width:1.0;"/><line style="stroke:#A80036;stroke-width:1.0;stroke-dasharray:2.0,2.0;" x1="330.5" x2="666" y1="725.9063" y2="725.9063"/><text fill="#000000" font-family="sans-serif" font-size="13" lengthAdjust="spacingAndGlyphs" textLength="184" x="342.5" y="720.8403">v1.replicate() NOT ALLOWED</text><path d="M10,775.9063 L109,775.9063 L109,782.9063 L99,792.9063 L10,792.9063 L10,775.9063 " fill="#EEEEEE" style="stroke:#000000;stroke-width:1.0;"/><rect fill="none" height="278.1953" style="stroke:#000000;stroke-width:2.0;" width="686" x="10" y="775.9063"/><text fill="#000000" font-family="sans-serif" font-size="13" font-weight="bold" lengthAdjust="spacingAndGlyphs" textLength="54" x="25" y="788.9731">Update</text><polygon fill="#A80036" points="655,810.1719,665,814.1719,655,818.1719,659,814.1719" style="stroke:#A80036;stroke-width:1.0;"/><line style="stroke:#A80036;stroke-width:1.0;" x1="44.5" x2="661" y1="814.1719" y2="814.1719"/><text fill="#000000" font-family="sans-serif" font-size="13" lengthAdjust="spacingAndGlyphs" textLength="132" x="51.5" y="809.106">v1.setAccessPolicy()</text><polygon fill="#A80036" points="459,839.3047,449,843.3047,459,847.3047,455,843.3047" style="stroke:#A80036;stroke-width:1.0;"/><line style="stroke:#A80036;stroke-width:1.0;" x1="453" x2="666" y1="843.3047" y2="843.3047"/><text fill="#000000" font-family="sans-serif" font-size="13" lengthAdjust="spacingAndGlyphs" textLength="195" x="465" y="838.2388">v1.systemMetadataChanged()</text><polygon fill="#A80036" points="655,868.4375,665,872.4375,655,876.4375,659,872.4375" style="stroke:#A80036;stroke-width:1.0;"/><line style="stroke:#A80036;stroke-width:1.0;" x1="448" x2="661" y1="872.4375" y2="872.4375"/><text fill="#000000" font-family="sans-serif" font-size="13" lengthAdjust="spacingAndGlyphs" textLength="160" x="455" y="867.3716">v1.getSystemMetadata()</text><polygon fill="#A80036" points="459,897.5703,449,901.5703,459,905.5703,455,901.5703" style="stroke:#A80036;stroke-width:1.0;"/><line style="stroke:#A80036;stroke-width:1.0;" x1="453" x2="666" y1="901.5703" y2="901.5703"/><text fill="#000000" font-family="sans-serif" font-size="13" lengthAdjust="spacingAndGlyphs" textLength="129" x="465" y="896.5044">v1.SystemMetadata</text><polygon fill="#A80036" points="655,954.7031,665,958.7031,655,962.7031,659,958.7031" style="stroke:#A80036;stroke-width:1.0;"/><line style="stroke:#A80036;stroke-width:1.0;" x1="44.5" x2="661" y1="958.7031" y2="958.7031"/><text fill="#000000" font-family="sans-serif" font-size="13" lengthAdjust="spacingAndGlyphs" textLength="132" x="51.5" y="953.6372">v2.setAccessPolicy()</text><polygon fill="#A80036" points="459,983.8359,449,987.8359,459,991.8359,455,987.8359" style="stroke:#A80036;stroke-width:1.0;"/><line style="stroke:#A80036;stroke-width:1.0;" x1="453" x2="666" y1="987.8359" y2="987.8359"/><text fill="#000000" font-family="sans-serif" font-size="13" lengthAdjust="spacingAndGlyphs" textLength="195" x="465" y="982.77">v2.systemMetadataChanged()</text><polygon fill="#A80036" points="655,1012.9688,665,1016.9688,655,1020.9688,659,1016.9688" style="stroke:#A80036;stroke-width:1.0;"/><line style="stroke:#A80036;stroke-width:1.0;" x1="448" x2="661" y1="1016.9688" y2="1016.9688"/><text fill="#000000" font-family="sans-serif" font-size="13" lengthAdjust="spacingAndGlyphs" textLength="160" x="455" y="1011.9028">v2.getSystemMetadata()</text><polygon fill="#A80036" points="459,1042.1016,449,1046.1016,459,1050.1016,455,1046.1016" style="stroke:#A80036;stroke-width:1.0;"/><line style="stroke:#A80036;stroke-width:1.0;" x1="453" x2="666" y1="1046.1016" y2="1046.1016"/><text fill="#000000" font-family="sans-serif" font-size="13" lengthAdjust="spacingAndGlyphs" textLength="129" x="465" y="1041.0356">v2.SystemMetadata</text><!--MD5=[9a9c0dee83bd53ff545c3e31fb7fb0fc]
@startuml
title Replicate content across mixed API versions (authMN.v2)
participant "User" as client
participant "MN.v2" as MN
participant "MN.target.v1" as MN.target.v1
participant "MN.target.v2" as MN.target.v2
participant "CN" as CN

group Create, Synch, Read
  'create content on the MN
  client -> MN: create()
  'Synchronize on the CN
  CN -> MN: v2.listObjects()
  CN -> CN: v2.create()
  ...
  'Retrieve objects
  client - -> MN: v1.getSystemMetadata()
  client <- - MN: v1.SystemMetadata
  client - -> MN: v2.getSystemMetadata()
  client <- - MN: v2.SystemMetadata
  client - -> CN: v1.getSystemMetadata()
  client <- - CN: v1.SystemMetadata
  client - -> CN: v2.getSystemMetadata()
  client <- - CN: v2.SystemMetadata
end
...
group Replicate
  CN -> MN.target.v2: v2.replicate()
  MN.target.v2 -> MN:  v2.getReplica()
  client - -> MN.target.v2: v1.getSystemMetadata()
  client <- - MN.target.v2: v1.SystemMetadata
  client - -> MN.target.v2: v2.getSystemMetadata()
  client <- - MN.target.v2: v2.SystemMetadata
  CN - -> MN.target.v1: v1.replicate() NOT ALLOWED
end
...
group Update
      'update the access policy using v1
  client -> CN: v1.setAccessPolicy()
  CN -> MN.target.v2:  v1.systemMetadataChanged()
  MN.target.v2 -> CN: v1.getSystemMetadata()
  MN.target.v2 <- CN: v1.SystemMetadata
  ...
  'update the access policy using v2
  client -> CN: v2.setAccessPolicy()
  CN -> MN.target.v2:  v2.systemMetadataChanged()
  MN.target.v2 -> CN: v2.getSystemMetadata()
  MN.target.v2 <- CN: v2.SystemMetadata
end
@enduml

@startuml
title Replicate content across mixed API versions (authMN.v2)
participant "User" as client
participant "MN.v2" as MN
participant "MN.target.v1" as MN.target.v1
participant "MN.target.v2" as MN.target.v2
participant "CN" as CN

group Create, Synch, Read
  client -> MN: create()
  CN -> MN: v2.listObjects()
  CN -> CN: v2.create()
  ...
  client - -> MN: v1.getSystemMetadata()
  client <- - MN: v1.SystemMetadata
  client - -> MN: v2.getSystemMetadata()
  client <- - MN: v2.SystemMetadata
  client - -> CN: v1.getSystemMetadata()
  client <- - CN: v1.SystemMetadata
  client - -> CN: v2.getSystemMetadata()
  client <- - CN: v2.SystemMetadata
end
...
group Replicate
  CN -> MN.target.v2: v2.replicate()
  MN.target.v2 -> MN:  v2.getReplica()
  client - -> MN.target.v2: v1.getSystemMetadata()
  client <- - MN.target.v2: v1.SystemMetadata
  client - -> MN.target.v2: v2.getSystemMetadata()
  client <- - MN.target.v2: v2.SystemMetadata
  CN - -> MN.target.v1: v1.replicate() NOT ALLOWED
end
...
group Update
  client -> CN: v1.setAccessPolicy()
  CN -> MN.target.v2:  v1.systemMetadataChanged()
  MN.target.v2 -> CN: v1.getSystemMetadata()
  MN.target.v2 <- CN: v1.SystemMetadata
  ...
  client -> CN: v2.setAccessPolicy()
  CN -> MN.target.v2:  v2.systemMetadataChanged()
  MN.target.v2 -> CN: v2.getSystemMetadata()
  MN.target.v2 <- CN: v2.SystemMetadata
end
@enduml

PlantUML version 1.2020.21beta3(Unknown compile time)
(GPL source distribution)
Java Runtime: Java(TM) SE Runtime Environment
JVM: Java HotSpot(TM) 64-Bit Server VM
Default Encoding: UTF-8
Language: en
Country: US
--></g></svg>