<?xml version="1.0" encoding="UTF-8" standalone="no"?><svg xmlns="http://www.w3.org/2000/svg" xmlns:xlink="http://www.w3.org/1999/xlink" contentScriptType="application/ecmascript" contentStyleType="text/css" height="1058px" preserveAspectRatio="none" style="width:795px;height:1058px;" version="1.1" viewBox="0 0 795 1058" width="795px" zoomAndPan="magnify"><defs><filter height="300%" id="f1bfr6hht73vwm" width="300%" x="-1" y="-1"><feGaussianBlur result="blurOut" stdDeviation="2.0"/><feColorMatrix in="blurOut" result="blurOut2" type="matrix" values="0 0 0 0 0 0 0 0 0 0 0 0 0 0 0 0 0 0 .4 0"/><feOffset dx="4.0" dy="4.0" in="blurOut2" result="blurOut3"/><feBlend in="SourceGraphic" in2="blurOut3" mode="normal"/></filter></defs><g><text fill="#000000" font-family="sans-serif" font-size="18" lengthAdjust="spacingAndGlyphs" textLength="534" x="128.5" y="28.708">Replicate content across mixed API versions (authMN.v1)</text><rect fill="#FFFFFF" filter="url(#f1bfr6hht73vwm)" height="292.3281" style="stroke:#000000;stroke-width:2.0;" width="771" x="10" y="92.25"/><rect fill="#FFFFFF" filter="url(#f1bfr6hht73vwm)" height="308.4609" style="stroke:#000000;stroke-width:2.0;" width="710" x="10" y="426.5781"/><rect fill="#FFFFFF" filter="url(#f1bfr6hht73vwm)" height="221.0625" style="stroke:#000000;stroke-width:2.0;" width="710" x="10" y="777.0391"/><line style="stroke:#A80036;stroke-width:1.0;" x1="44" x2="44" y1="75.25" y2="391.5781"/><line style="stroke:#A80036;stroke-width:1.0;stroke-dasharray:1.0,4.0;" x1="44" x2="44" y1="391.5781" y2="419.5781"/><line style="stroke:#A80036;stroke-width:1.0;" x1="44" x2="44" y1="419.5781" y2="742.0391"/><line style="stroke:#A80036;stroke-width:1.0;stroke-dasharray:1.0,4.0;" x1="44" x2="44" y1="742.0391" y2="770.0391"/><line style="stroke:#A80036;stroke-width:1.0;" x1="44" x2="44" y1="770.0391" y2="1015.1016"/><line style="stroke:#A80036;stroke-width:1.0;" x1="228.5" x2="228.5" y1="75.25" y2="391.5781"/><line style="stroke:#A80036;stroke-width:1.0;stroke-dasharray:1.0,4.0;" x1="228.5" x2="228.5" y1="391.5781" y2="419.5781"/><line style="stroke:#A80036;stroke-width:1.0;" x1="228.5" x2="228.5" y1="419.5781" y2="742.0391"/><line style="stroke:#A80036;stroke-width:1.0;stroke-dasharray:1.0,4.0;" x1="228.5" x2="228.5" y1="742.0391" y2="770.0391"/><line style="stroke:#A80036;stroke-width:1.0;" x1="228.5" x2="228.5" y1="770.0391" y2="1015.1016"/><line style="stroke:#A80036;stroke-width:1.0;" x1="349" x2="349" y1="75.25" y2="391.5781"/><line style="stroke:#A80036;stroke-width:1.0;stroke-dasharray:1.0,4.0;" x1="349" x2="349" y1="391.5781" y2="419.5781"/><line style="stroke:#A80036;stroke-width:1.0;" x1="349" x2="349" y1="419.5781" y2="742.0391"/><line style="stroke:#A80036;stroke-width:1.0;stroke-dasharray:1.0,4.0;" x1="349" x2="349" y1="742.0391" y2="770.0391"/><line style="stroke:#A80036;stroke-width:1.0;" x1="349" x2="349" y1="770.0391" y2="1015.1016"/><line style="stroke:#A80036;stroke-width:1.0;" x1="472" x2="472" y1="75.25" y2="391.5781"/><line style="stroke:#A80036;stroke-width:1.0;stroke-dasharray:1.0,4.0;" x1="472" x2="472" y1="391.5781" y2="419.5781"/><line style="stroke:#A80036;stroke-width:1.0;" x1="472" x2="472" y1="419.5781" y2="742.0391"/><line style="stroke:#A80036;stroke-width:1.0;stroke-dasharray:1.0,4.0;" x1="472" x2="472" y1="742.0391" y2="770.0391"/><line style="stroke:#A80036;stroke-width:1.0;" x1="472" x2="472" y1="770.0391" y2="1015.1016"/><line style="stroke:#A80036;stroke-width:1.0;" x1="691" x2="691" y1="75.25" y2="391.5781"/><line style="stroke:#A80036;stroke-width:1.0;stroke-dasharray:1.0,4.0;" x1="691" x2="691" y1="391.5781" y2="419.5781"/><line style="stroke:#A80036;stroke-width:1.0;" x1="691" x2="691" y1="419.5781" y2="742.0391"/><line style="stroke:#A80036;stroke-width:1.0;stroke-dasharray:1.0,4.0;" x1="691" x2="691" y1="742.0391" y2="770.0391"/><line style="stroke:#A80036;stroke-width:1.0;" x1="691" x2="691" y1="770.0391" y2="1015.1016"/><rect fill="#FEFECE" filter="url(#f1bfr6hht73vwm)" height="30.2969" style="stroke:#A80036;stroke-width:1.5;" width="45" x="20" y="39.9531"/><text fill="#000000" font-family="sans-serif" font-size="14" lengthAdjust="spacingAndGlyphs" textLength="31" x="27" y="59.9482">User</text><rect fill="#FEFECE" filter="url(#f1bfr6hht73vwm)" height="30.2969" style="stroke:#A80036;stroke-width:1.5;" width="45" x="20" y="1014.1016"/><text fill="#000000" font-family="sans-serif" font-size="14" lengthAdjust="spacingAndGlyphs" textLength="31" x="27" y="1034.0967">User</text><rect fill="#FEFECE" filter="url(#f1bfr6hht73vwm)" height="30.2969" style="stroke:#A80036;stroke-width:1.5;" width="58" x="197.5" y="39.9531"/><text fill="#000000" font-family="sans-serif" font-size="14" lengthAdjust="spacingAndGlyphs" textLength="44" x="204.5" y="59.9482">MN.v1</text><rect fill="#FEFECE" filter="url(#f1bfr6hht73vwm)" height="30.2969" style="stroke:#A80036;stroke-width:1.5;" width="58" x="197.5" y="1014.1016"/><text fill="#000000" font-family="sans-serif" font-size="14" lengthAdjust="spacingAndGlyphs" textLength="44" x="204.5" y="1034.0967">MN.v1</text><rect fill="#FEFECE" filter="url(#f1bfr6hht73vwm)" height="30.2969" style="stroke:#A80036;stroke-width:1.5;" width="109" x="293" y="39.9531"/><text fill="#000000" font-family="sans-serif" font-size="14" lengthAdjust="spacingAndGlyphs" textLength="95" x="300" y="59.9482">MN.target.v1</text><rect fill="#FEFECE" filter="url(#f1bfr6hht73vwm)" height="30.2969" style="stroke:#A80036;stroke-width:1.5;" width="109" x="293" y="1014.1016"/><text fill="#000000" font-family="sans-serif" font-size="14" lengthAdjust="spacingAndGlyphs" textLength="95" x="300" y="1034.0967">MN.target.v1</text><rect fill="#FEFECE" filter="url(#f1bfr6hht73vwm)" height="30.2969" style="stroke:#A80036;stroke-width:1.5;" width="108" x="416" y="39.9531"/><text fill="#000000" font-family="sans-serif" font-size="14" lengthAdjust="spacingAndGlyphs" textLength="94" x="423" y="59.9482">MN.target.v2</text><rect fill="#FEFECE" filter="url(#f1bfr6hht73vwm)" height="30.2969" style="stroke:#A80036;stroke-width:1.5;" width="108" x="416" y="1014.1016"/><text fill="#000000" font-family="sans-serif" font-size="14" lengthAdjust="spacingAndGlyphs" textLength="94" x="423" y="1034.0967">MN.target.v2</text><rect fill="#FEFECE" filter="url(#f1bfr6hht73vwm)" height="30.2969" style="stroke:#A80036;stroke-width:1.5;" width="34" x="672" y="39.9531"/><text fill="#000000" font-family="sans-serif" font-size="14" lengthAdjust="spacingAndGlyphs" textLength="20" x="679" y="59.9482">CN</text><rect fill="#FEFECE" filter="url(#f1bfr6hht73vwm)" height="30.2969" style="stroke:#A80036;stroke-width:1.5;" width="34" x="672" y="1014.1016"/><text fill="#000000" font-family="sans-serif" font-size="14" lengthAdjust="spacingAndGlyphs" textLength="20" x="679" y="1034.0967">CN</text><path d="M10,92.25 L207,92.25 L207,99.25 L197,109.25 L10,109.25 L10,92.25 " fill="#EEEEEE" style="stroke:#000000;stroke-width:1.0;"/><rect fill="none" height="292.3281" style="stroke:#000000;stroke-width:2.0;" width="771" x="10" y="92.25"/><text fill="#000000" font-family="sans-serif" font-size="13" font-weight="bold" lengthAdjust="spacingAndGlyphs" textLength="152" x="25" y="105.3169">Create, Synch, Read</text><polygon fill="#A80036" points="216.5,126.5156,226.5,130.5156,216.5,134.5156,220.5,130.5156" style="stroke:#A80036;stroke-width:1.0;"/><line style="stroke:#A80036;stroke-width:1.0;" x1="44.5" x2="222.5" y1="130.5156" y2="130.5156"/><text fill="#000000" font-family="sans-serif" font-size="13" lengthAdjust="spacingAndGlyphs" textLength="71" x="51.5" y="125.4497">v1.create()</text><polygon fill="#A80036" points="239.5,155.6484,229.5,159.6484,239.5,163.6484,235.5,159.6484" style="stroke:#A80036;stroke-width:1.0;"/><line style="stroke:#A80036;stroke-width:1.0;" x1="233.5" x2="690" y1="159.6484" y2="159.6484"/><text fill="#000000" font-family="sans-serif" font-size="13" lengthAdjust="spacingAndGlyphs" textLength="96" x="245.5" y="154.5825">v1.listObjects()</text><line style="stroke:#A80036;stroke-width:1.0;" x1="691" x2="733" y1="188.7813" y2="188.7813"/><line style="stroke:#A80036;stroke-width:1.0;" x1="733" x2="733" y1="188.7813" y2="201.7813"/><line style="stroke:#A80036;stroke-width:1.0;" x1="692" x2="733" y1="201.7813" y2="201.7813"/><polygon fill="#A80036" points="702,197.7813,692,201.7813,702,205.7813,698,201.7813" style="stroke:#A80036;stroke-width:1.0;"/><text fill="#000000" font-family="sans-serif" font-size="13" lengthAdjust="spacingAndGlyphs" textLength="71" x="698" y="183.7153">v1.create()</text><polygon fill="#A80036" points="216.5,226.9141,226.5,230.9141,216.5,234.9141,220.5,230.9141" style="stroke:#A80036;stroke-width:1.0;"/><line style="stroke:#A80036;stroke-width:1.0;stroke-dasharray:2.0,2.0;" x1="44.5" x2="222.5" y1="230.9141" y2="230.9141"/><text fill="#000000" font-family="sans-serif" font-size="13" lengthAdjust="spacingAndGlyphs" textLength="160" x="51.5" y="225.8481">v1.getSystemMetadata()</text><polygon fill="#A80036" points="55.5,256.0469,45.5,260.0469,55.5,264.0469,51.5,260.0469" style="stroke:#A80036;stroke-width:1.0;"/><line style="stroke:#A80036;stroke-width:1.0;stroke-dasharray:2.0,2.0;" x1="49.5" x2="227.5" y1="260.0469" y2="260.0469"/><text fill="#000000" font-family="sans-serif" font-size="13" lengthAdjust="spacingAndGlyphs" textLength="129" x="61.5" y="254.981">v1.SystemMetadata</text><polygon fill="#A80036" points="679,285.1797,689,289.1797,679,293.1797,683,289.1797" style="stroke:#A80036;stroke-width:1.0;"/><line style="stroke:#A80036;stroke-width:1.0;stroke-dasharray:2.0,2.0;" x1="44.5" x2="685" y1="289.1797" y2="289.1797"/><text fill="#000000" font-family="sans-serif" font-size="13" lengthAdjust="spacingAndGlyphs" textLength="160" x="51.5" y="284.1138">v1.getSystemMetadata()</text><polygon fill="#A80036" points="55.5,314.3125,45.5,318.3125,55.5,322.3125,51.5,318.3125" style="stroke:#A80036;stroke-width:1.0;"/><line style="stroke:#A80036;stroke-width:1.0;stroke-dasharray:2.0,2.0;" x1="49.5" x2="690" y1="318.3125" y2="318.3125"/><text fill="#000000" font-family="sans-serif" font-size="13" lengthAdjust="spacingAndGlyphs" textLength="129" x="61.5" y="313.2466">v1.SystemMetadata</text><polygon fill="#A80036" points="679,343.4453,689,347.4453,679,351.4453,683,347.4453" style="stroke:#A80036;stroke-width:1.0;"/><line style="stroke:#A80036;stroke-width:1.0;stroke-dasharray:2.0,2.0;" x1="44.5" x2="685" y1="347.4453" y2="347.4453"/><text fill="#000000" font-family="sans-serif" font-size="13" lengthAdjust="spacingAndGlyphs" textLength="160" x="51.5" y="342.3794">v2.getSystemMetadata()</text><polygon fill="#A80036" points="55.5,372.5781,45.5,376.5781,55.5,380.5781,51.5,376.5781" style="stroke:#A80036;stroke-width:1.0;"/><line style="stroke:#A80036;stroke-width:1.0;stroke-dasharray:2.0,2.0;" x1="49.5" x2="690" y1="376.5781" y2="376.5781"/><text fill="#000000" font-family="sans-serif" font-size="13" lengthAdjust="spacingAndGlyphs" textLength="129" x="61.5" y="371.5122">v2.SystemMetadata</text><path d="M10,426.5781 L125,426.5781 L125,433.5781 L115,443.5781 L10,443.5781 L10,426.5781 " fill="#EEEEEE" style="stroke:#000000;stroke-width:1.0;"/><rect fill="none" height="308.4609" style="stroke:#000000;stroke-width:2.0;" width="710" x="10" y="426.5781"/><text fill="#000000" font-family="sans-serif" font-size="13" font-weight="bold" lengthAdjust="spacingAndGlyphs" textLength="70" x="25" y="439.645">Replicate</text><polygon fill="#A80036" points="360.5,460.8438,350.5,464.8438,360.5,468.8438,356.5,464.8438" style="stroke:#A80036;stroke-width:1.0;"/><line style="stroke:#A80036;stroke-width:1.0;" x1="354.5" x2="690" y1="464.8438" y2="464.8438"/><text fill="#000000" font-family="sans-serif" font-size="13" lengthAdjust="spacingAndGlyphs" textLength="85" x="366.5" y="459.7778">v1.replicate()</text><polygon fill="#A80036" points="239.5,489.9766,229.5,493.9766,239.5,497.9766,235.5,493.9766" style="stroke:#A80036;stroke-width:1.0;"/><line style="stroke:#A80036;stroke-width:1.0;" x1="233.5" x2="348.5" y1="493.9766" y2="493.9766"/><text fill="#000000" font-family="sans-serif" font-size="13" lengthAdjust="spacingAndGlyphs" textLength="97" x="245.5" y="488.9106">v1.getReplica()</text><polygon fill="#A80036" points="337.5,519.1094,347.5,523.1094,337.5,527.1094,341.5,523.1094" style="stroke:#A80036;stroke-width:1.0;"/><line style="stroke:#A80036;stroke-width:1.0;stroke-dasharray:2.0,2.0;" x1="44.5" x2="343.5" y1="523.1094" y2="523.1094"/><text fill="#000000" font-family="sans-serif" font-size="13" lengthAdjust="spacingAndGlyphs" textLength="160" x="51.5" y="518.0435">v1.getSystemMetadata()</text><polygon fill="#A80036" points="55.5,548.2422,45.5,552.2422,55.5,556.2422,51.5,552.2422" style="stroke:#A80036;stroke-width:1.0;"/><line style="stroke:#A80036;stroke-width:1.0;stroke-dasharray:2.0,2.0;" x1="49.5" x2="348.5" y1="552.2422" y2="552.2422"/><text fill="#000000" font-family="sans-serif" font-size="13" lengthAdjust="spacingAndGlyphs" textLength="129" x="61.5" y="547.1763">v1.SystemMetadata</text><polygon fill="#A80036" points="483,577.375,473,581.375,483,585.375,479,581.375" style="stroke:#A80036;stroke-width:1.0;"/><line style="stroke:#A80036;stroke-width:1.0;" x1="477" x2="690" y1="581.375" y2="581.375"/><text fill="#000000" font-family="sans-serif" font-size="13" lengthAdjust="spacingAndGlyphs" textLength="85" x="489" y="576.3091">v1.replicate()</text><polygon fill="#A80036" points="239.5,606.5078,229.5,610.5078,239.5,614.5078,235.5,610.5078" style="stroke:#A80036;stroke-width:1.0;"/><line style="stroke:#A80036;stroke-width:1.0;" x1="233.5" x2="471" y1="610.5078" y2="610.5078"/><text fill="#000000" font-family="sans-serif" font-size="13" lengthAdjust="spacingAndGlyphs" textLength="97" x="245.5" y="605.4419">v1.getReplica()</text><polygon fill="#A80036" points="460,635.6406,470,639.6406,460,643.6406,464,639.6406" style="stroke:#A80036;stroke-width:1.0;"/><line style="stroke:#A80036;stroke-width:1.0;stroke-dasharray:2.0,2.0;" x1="44.5" x2="466" y1="639.6406" y2="639.6406"/><text fill="#000000" font-family="sans-serif" font-size="13" lengthAdjust="spacingAndGlyphs" textLength="160" x="51.5" y="634.5747">v1.getSystemMetadata()</text><polygon fill="#A80036" points="55.5,664.7734,45.5,668.7734,55.5,672.7734,51.5,668.7734" style="stroke:#A80036;stroke-width:1.0;"/><line style="stroke:#A80036;stroke-width:1.0;stroke-dasharray:2.0,2.0;" x1="49.5" x2="471" y1="668.7734" y2="668.7734"/><text fill="#000000" font-family="sans-serif" font-size="13" lengthAdjust="spacingAndGlyphs" textLength="129" x="61.5" y="663.7075">v1.SystemMetadata</text><polygon fill="#A80036" points="460,693.9063,470,697.9063,460,701.9063,464,697.9063" style="stroke:#A80036;stroke-width:1.0;"/><line style="stroke:#A80036;stroke-width:1.0;stroke-dasharray:2.0,2.0;" x1="44.5" x2="466" y1="697.9063" y2="697.9063"/><text fill="#000000" font-family="sans-serif" font-size="13" lengthAdjust="spacingAndGlyphs" textLength="160" x="51.5" y="692.8403">v2.getSystemMetadata()</text><polygon fill="#A80036" points="55.5,723.0391,45.5,727.0391,55.5,731.0391,51.5,727.0391" style="stroke:#A80036;stroke-width:1.0;"/><line style="stroke:#A80036;stroke-width:1.0;stroke-dasharray:2.0,2.0;" x1="49.5" x2="471" y1="727.0391" y2="727.0391"/><text fill="#000000" font-family="sans-serif" font-size="13" lengthAdjust="spacingAndGlyphs" textLength="129" x="61.5" y="721.9731">v2.SystemMetadata</text><path d="M10,777.0391 L109,777.0391 L109,784.0391 L99,794.0391 L10,794.0391 L10,777.0391 " fill="#EEEEEE" style="stroke:#000000;stroke-width:1.0;"/><rect fill="none" height="221.0625" style="stroke:#000000;stroke-width:2.0;" width="710" x="10" y="777.0391"/><text fill="#000000" font-family="sans-serif" font-size="13" font-weight="bold" lengthAdjust="spacingAndGlyphs" textLength="54" x="25" y="790.106">Update</text><polygon fill="#A80036" points="679,811.3047,689,815.3047,679,819.3047,683,815.3047" style="stroke:#A80036;stroke-width:1.0;"/><line style="stroke:#A80036;stroke-width:1.0;" x1="44.5" x2="685" y1="815.3047" y2="815.3047"/><text fill="#000000" font-family="sans-serif" font-size="13" lengthAdjust="spacingAndGlyphs" textLength="132" x="51.5" y="810.2388">v1.setAccessPolicy()</text><polygon fill="#A80036" points="360.5,840.4375,350.5,844.4375,360.5,848.4375,356.5,844.4375" style="stroke:#A80036;stroke-width:1.0;"/><line style="stroke:#A80036;stroke-width:1.0;" x1="354.5" x2="690" y1="844.4375" y2="844.4375"/><text fill="#000000" font-family="sans-serif" font-size="13" lengthAdjust="spacingAndGlyphs" textLength="195" x="366.5" y="839.3716">v1.systemMetadataChanged()</text><polygon fill="#A80036" points="679,869.5703,689,873.5703,679,877.5703,683,873.5703" style="stroke:#A80036;stroke-width:1.0;"/><line style="stroke:#A80036;stroke-width:1.0;" x1="349.5" x2="685" y1="873.5703" y2="873.5703"/><text fill="#000000" font-family="sans-serif" font-size="13" lengthAdjust="spacingAndGlyphs" textLength="160" x="356.5" y="868.5044">v1.getSystemMetadata()</text><polygon fill="#A80036" points="360.5,898.7031,350.5,902.7031,360.5,906.7031,356.5,902.7031" style="stroke:#A80036;stroke-width:1.0;"/><line style="stroke:#A80036;stroke-width:1.0;" x1="354.5" x2="690" y1="902.7031" y2="902.7031"/><text fill="#000000" font-family="sans-serif" font-size="13" lengthAdjust="spacingAndGlyphs" textLength="129" x="366.5" y="897.6372">v1.SystemMetadata</text><polygon fill="#A80036" points="483,927.8359,473,931.8359,483,935.8359,479,931.8359" style="stroke:#A80036;stroke-width:1.0;"/><line style="stroke:#A80036;stroke-width:1.0;" x1="477" x2="690" y1="931.8359" y2="931.8359"/><text fill="#000000" font-family="sans-serif" font-size="13" lengthAdjust="spacingAndGlyphs" textLength="195" x="489" y="926.77">v1.systemMetadataChanged()</text><polygon fill="#A80036" points="679,956.9688,689,960.9688,679,964.9688,683,960.9688" style="stroke:#A80036;stroke-width:1.0;"/><line style="stroke:#A80036;stroke-width:1.0;" x1="472" x2="685" y1="960.9688" y2="960.9688"/><text fill="#000000" font-family="sans-serif" font-size="13" lengthAdjust="spacingAndGlyphs" textLength="160" x="479" y="955.9028">v1.getSystemMetadata()</text><polygon fill="#A80036" points="483,986.1016,473,990.1016,483,994.1016,479,990.1016" style="stroke:#A80036;stroke-width:1.0;"/><line style="stroke:#A80036;stroke-width:1.0;" x1="477" x2="690" y1="990.1016" y2="990.1016"/><text fill="#000000" font-family="sans-serif" font-size="13" lengthAdjust="spacingAndGlyphs" textLength="129" x="489" y="985.0356">v1.SystemMetadata</text><!--MD5=[11ea5e09689f862ed4e08359e6416136]
@startuml
title Replicate content across mixed API versions (authMN.v1)
participant "User" as client
participant "MN.v1" as MN
participant "MN.target.v1" as MN.target.v1
participant "MN.target.v2" as MN.target.v2
participant "CN" as CN

group Create, Synch, Read
  'create content on the MN
  client -> MN: v1.create()
  'Synchronize on the CN
  CN -> MN: v1.listObjects()
  CN -> CN: v1.create()
  'Retrieve objects
  client - -> MN: v1.getSystemMetadata()
  client <- - MN: v1.SystemMetadata
  client - -> CN: v1.getSystemMetadata()
  client <- - CN: v1.SystemMetadata
  client - -> CN: v2.getSystemMetadata()
  client <- - CN: v2.SystemMetadata
end
...
group Replicate
      'replicate to a v1 MN
  CN -> MN.target.v1: v1.replicate()
  MN.target.v1 -> MN:  v1.getReplica()
  client - -> MN.target.v1: v1.getSystemMetadata()
  client <- - MN.target.v1: v1.SystemMetadata
  'replicate to a v2 MN
  CN -> MN.target.v2: v1.replicate()
  MN.target.v2 -> MN:  v1.getReplica()
  client - -> MN.target.v2: v1.getSystemMetadata()
  client <- - MN.target.v2: v1.SystemMetadata
  client - -> MN.target.v2: v2.getSystemMetadata()
  client <- - MN.target.v2: v2.SystemMetadata
end
...
group Update
      'update the access policy
  client -> CN: v1.setAccessPolicy()
  CN -> MN.target.v1:  v1.systemMetadataChanged()
  MN.target.v1 -> CN: v1.getSystemMetadata()
  MN.target.v1 <- CN: v1.SystemMetadata

  CN -> MN.target.v2:  v1.systemMetadataChanged()
  MN.target.v2 -> CN: v1.getSystemMetadata()
  MN.target.v2 <- CN: v1.SystemMetadata
end
@enduml

@startuml
title Replicate content across mixed API versions (authMN.v1)
participant "User" as client
participant "MN.v1" as MN
participant "MN.target.v1" as MN.target.v1
participant "MN.target.v2" as MN.target.v2
participant "CN" as CN

group Create, Synch, Read
  client -> MN: v1.create()
  CN -> MN: v1.listObjects()
  CN -> CN: v1.create()
  client - -> MN: v1.getSystemMetadata()
  client <- - MN: v1.SystemMetadata
  client - -> CN: v1.getSystemMetadata()
  client <- - CN: v1.SystemMetadata
  client - -> CN: v2.getSystemMetadata()
  client <- - CN: v2.SystemMetadata
end
...
group Replicate
  CN -> MN.target.v1: v1.replicate()
  MN.target.v1 -> MN:  v1.getReplica()
  client - -> MN.target.v1: v1.getSystemMetadata()
  client <- - MN.target.v1: v1.SystemMetadata
  CN -> MN.target.v2: v1.replicate()
  MN.target.v2 -> MN:  v1.getReplica()
  client - -> MN.target.v2: v1.getSystemMetadata()
  client <- - MN.target.v2: v1.SystemMetadata
  client - -> MN.target.v2: v2.getSystemMetadata()
  client <- - MN.target.v2: v2.SystemMetadata
end
...
group Update
  client -> CN: v1.setAccessPolicy()
  CN -> MN.target.v1:  v1.systemMetadataChanged()
  MN.target.v1 -> CN: v1.getSystemMetadata()
  MN.target.v1 <- CN: v1.SystemMetadata

  CN -> MN.target.v2:  v1.systemMetadataChanged()
  MN.target.v2 -> CN: v1.getSystemMetadata()
  MN.target.v2 <- CN: v1.SystemMetadata
end
@enduml

PlantUML version 1.2020.21beta3(Unknown compile time)
(GPL source distribution)
Java Runtime: Java(TM) SE Runtime Environment
JVM: Java HotSpot(TM) 64-Bit Server VM
Default Encoding: UTF-8
Language: en
Country: US
--></g></svg>