<?xml version="1.0" encoding="UTF-8" standalone="no"?><svg xmlns="http://www.w3.org/2000/svg" xmlns:xlink="http://www.w3.org/1999/xlink" contentScriptType="application/ecmascript" contentStyleType="text/css" height="330px" preserveAspectRatio="none" style="width:693px;height:330px;" version="1.1" viewBox="0 0 693 330" width="693px" zoomAndPan="magnify"><defs><filter height="300%" id="fv3q89lv6e8sx" width="300%" x="-1" y="-1"><feGaussianBlur result="blurOut" stdDeviation="2.0"/><feColorMatrix in="blurOut" result="blurOut2" type="matrix" values="0 0 0 0 0 0 0 0 0 0 0 0 0 0 0 0 0 0 .4 0"/><feOffset dx="4.0" dy="4.0" in="blurOut2" result="blurOut3"/><feBlend in="SourceGraphic" in2="blurOut3" mode="normal"/></filter></defs><g><line style="stroke:#A80036;stroke-width:1.0;stroke-dasharray:5.0,5.0;" x1="103" x2="103" y1="88.2969" y2="245.9609"/><line style="stroke:#A80036;stroke-width:1.0;stroke-dasharray:5.0,5.0;" x1="270" x2="270" y1="88.2969" y2="245.9609"/><line style="stroke:#A80036;stroke-width:1.0;stroke-dasharray:5.0,5.0;" x1="464.5" x2="464.5" y1="88.2969" y2="245.9609"/><text fill="#000000" font-family="sans-serif" font-size="14" lengthAdjust="spacingAndGlyphs" textLength="191" x="5" y="84.9951">User (User or Organization)</text><ellipse cx="103.5" cy="15" fill="#FEFECE" filter="url(#fv3q89lv6e8sx)" rx="8" ry="8" style="stroke:#A80036;stroke-width:2.0;"/><path d="M103.5,23 L103.5,50 M90.5,31 L116.5,31 M103.5,50 L90.5,65 M103.5,50 L116.5,65 " fill="none" filter="url(#fv3q89lv6e8sx)" style="stroke:#A80036;stroke-width:2.0;"/><text fill="#000000" font-family="sans-serif" font-size="14" lengthAdjust="spacingAndGlyphs" textLength="191" x="5" y="257.9561">User (User or Organization)</text><ellipse cx="103.5" cy="271.2578" fill="#FEFECE" filter="url(#fv3q89lv6e8sx)" rx="8" ry="8" style="stroke:#A80036;stroke-width:2.0;"/><path d="M103.5,279.2578 L103.5,306.2578 M90.5,287.2578 L116.5,287.2578 M103.5,306.2578 L90.5,321.2578 M103.5,306.2578 L116.5,321.2578 " fill="none" filter="url(#fv3q89lv6e8sx)" style="stroke:#A80036;stroke-width:2.0;"/><rect fill="#FEFECE" filter="url(#fv3q89lv6e8sx)" height="46.5938" style="stroke:#A80036;stroke-width:1.5;" width="112" x="212" y="36.7031"/><text fill="#000000" font-family="sans-serif" font-size="14" font-style="italic" lengthAdjust="spacingAndGlyphs" textLength="98" x="219" y="56.6982">«Application»</text><text fill="#000000" font-family="sans-serif" font-size="14" lengthAdjust="spacingAndGlyphs" textLength="43" x="246.5" y="72.9951">Client</text><rect fill="#FEFECE" filter="url(#fv3q89lv6e8sx)" height="46.5938" style="stroke:#A80036;stroke-width:1.5;" width="112" x="212" y="244.9609"/><text fill="#000000" font-family="sans-serif" font-size="14" font-style="italic" lengthAdjust="spacingAndGlyphs" textLength="98" x="219" y="264.9561">«Application»</text><text fill="#000000" font-family="sans-serif" font-size="14" lengthAdjust="spacingAndGlyphs" textLength="43" x="246.5" y="281.2529">Client</text><rect fill="#FEFECE" filter="url(#fv3q89lv6e8sx)" height="46.5938" style="stroke:#A80036;stroke-width:1.5;" width="165" x="380.5" y="36.7031"/><text fill="#000000" font-family="sans-serif" font-size="14" font-style="italic" lengthAdjust="spacingAndGlyphs" textLength="151" x="387.5" y="56.6982">«Coordinating Node»</text><text fill="#000000" font-family="sans-serif" font-size="14" lengthAdjust="spacingAndGlyphs" textLength="125" x="400.5" y="72.9951">Authorization API</text><rect fill="#FEFECE" filter="url(#fv3q89lv6e8sx)" height="46.5938" style="stroke:#A80036;stroke-width:1.5;" width="165" x="380.5" y="244.9609"/><text fill="#000000" font-family="sans-serif" font-size="14" font-style="italic" lengthAdjust="spacingAndGlyphs" textLength="151" x="387.5" y="264.9561">«Coordinating Node»</text><text fill="#000000" font-family="sans-serif" font-size="14" lengthAdjust="spacingAndGlyphs" textLength="125" x="400.5" y="281.2529">Authorization API</text><polygon fill="#A80036" points="258,120.4297,268,124.4297,258,128.4297,262,124.4297" style="stroke:#A80036;stroke-width:1.0;"/><line style="stroke:#A80036;stroke-width:1.0;" x1="103.5" x2="264" y1="124.4297" y2="124.4297"/><path d="M275,103.2969 L275,143.2969 L464,143.2969 L464,113.2969 L454,103.2969 L275,103.2969 " fill="#FBFB77" filter="url(#fv3q89lv6e8sx)" style="stroke:#A80036;stroke-width:1.0;"/><path d="M454,103.2969 L454,113.2969 L464,113.2969 L454,103.2969 " fill="#FBFB77" style="stroke:#A80036;stroke-width:1.0;"/><text fill="#000000" font-family="sans-serif" font-size="13" lengthAdjust="spacingAndGlyphs" textLength="168" x="281" y="120.3638">Assume user authority for</text><text fill="#000000" font-family="sans-serif" font-size="13" lengthAdjust="spacingAndGlyphs" textLength="140" x="281" y="135.4966">specifying restrictions</text><polygon fill="#A80036" points="453,169.6953,463,173.6953,453,177.6953,457,173.6953" style="stroke:#A80036;stroke-width:1.0;"/><line style="stroke:#A80036;stroke-width:1.0;" x1="270" x2="459" y1="173.6953" y2="173.6953"/><text fill="#000000" font-family="sans-serif" font-size="13" lengthAdjust="spacingAndGlyphs" textLength="171" x="277" y="168.6294">takeOwnership (objectList)</text><polygon fill="#A80036" points="281,211.3945,271,215.3945,281,219.3945,277,215.3945" style="stroke:#A80036;stroke-width:1.0;"/><line style="stroke:#A80036;stroke-width:1.0;stroke-dasharray:2.0,2.0;" x1="275" x2="464" y1="215.3945" y2="215.3945"/><text fill="#000000" font-family="sans-serif" font-size="13" lengthAdjust="spacingAndGlyphs" textLength="62" x="287" y="210.3286">ack or fail</text><path d="M470,186.6953 L470,226.6953 L684,226.6953 L684,196.6953 L674,186.6953 L470,186.6953 " fill="#FBFB77" filter="url(#fv3q89lv6e8sx)" style="stroke:#A80036;stroke-width:1.0;"/><path d="M674,186.6953 L674,196.6953 L684,196.6953 L674,186.6953 " fill="#FBFB77" style="stroke:#A80036;stroke-width:1.0;"/><text fill="#000000" font-family="sans-serif" font-size="13" lengthAdjust="spacingAndGlyphs" textLength="180" x="476" y="203.7622">Is there an authority for any</text><text fill="#000000" font-family="sans-serif" font-size="13" lengthAdjust="spacingAndGlyphs" textLength="193" x="476" y="218.895">given data / metadata object?</text><!--MD5=[9a4b02e623c720e5708f68859929093c]
@startuml
actor "User (User or Organization)" as user
participant "Client" as app_client << Application >>
user -> app_client
note right
Assume user authority for
specifying restrictions
end note
participant "Authorization API" as c_authorize << Coordinating Node >>
app_client -> c_authorize: takeOwnership (objectList)
app_client <- - c_authorize: ack or fail
note right
Is there an authority for any
given data / metadata object?
end note
@enduml

PlantUML version 1.2020.21beta3(Unknown compile time)
(GPL source distribution)
Java Runtime: Java(TM) SE Runtime Environment
JVM: Java HotSpot(TM) 64-Bit Server VM
Default Encoding: UTF-8
Language: en
Country: US
--></g></svg>