<?xml version="1.0" encoding="UTF-8" standalone="no"?><svg xmlns="http://www.w3.org/2000/svg" xmlns:xlink="http://www.w3.org/1999/xlink" contentScriptType="application/ecmascript" contentStyleType="text/css" height="605px" preserveAspectRatio="none" style="width:631px;height:605px;" version="1.1" viewBox="0 0 631 605" width="631px" zoomAndPan="magnify"><defs><filter height="300%" id="f1c1j4ucxi9onn" width="300%" x="-1" y="-1"><feGaussianBlur result="blurOut" stdDeviation="2.0"/><feColorMatrix in="blurOut" result="blurOut2" type="matrix" values="0 0 0 0 0 0 0 0 0 0 0 0 0 0 0 0 0 0 .4 0"/><feOffset dx="4.0" dy="4.0" in="blurOut2" result="blurOut3"/><feBlend in="SourceGraphic" in2="blurOut3" mode="normal"/></filter></defs><g><rect fill="#FFFFFF" filter="url(#f1c1j4ucxi9onn)" height="329.4609" style="stroke:#A80036;stroke-width:1.0;" width="10" x="211.5" y="173.6953"/><rect fill="#FFFFFF" filter="url(#f1c1j4ucxi9onn)" height="29.1328" style="stroke:#A80036;stroke-width:1.0;" width="10" x="361.5" y="286.2266"/><rect fill="#FFFFFF" filter="url(#f1c1j4ucxi9onn)" height="29.1328" style="stroke:#A80036;stroke-width:1.0;" width="10" x="532" y="344.4922"/><line style="stroke:#A80036;stroke-width:1.0;stroke-dasharray:5.0,5.0;" x1="23" x2="23" y1="88.2969" y2="521.1563"/><line style="stroke:#A80036;stroke-width:1.0;stroke-dasharray:5.0,5.0;" x1="216.5" x2="216.5" y1="88.2969" y2="521.1563"/><line style="stroke:#A80036;stroke-width:1.0;stroke-dasharray:5.0,5.0;" x1="366.5" x2="366.5" y1="88.2969" y2="521.1563"/><line style="stroke:#A80036;stroke-width:1.0;stroke-dasharray:5.0,5.0;" x1="536.5" x2="536.5" y1="88.2969" y2="521.1563"/><text fill="#000000" font-family="sans-serif" font-size="14" lengthAdjust="spacingAndGlyphs" textLength="31" x="5" y="84.9951">User</text><ellipse cx="23.5" cy="15" fill="#FEFECE" filter="url(#f1c1j4ucxi9onn)" rx="8" ry="8" style="stroke:#A80036;stroke-width:2.0;"/><path d="M23.5,23 L23.5,50 M10.5,31 L36.5,31 M23.5,50 L10.5,65 M23.5,50 L36.5,65 " fill="none" filter="url(#f1c1j4ucxi9onn)" style="stroke:#A80036;stroke-width:2.0;"/><text fill="#000000" font-family="sans-serif" font-size="14" lengthAdjust="spacingAndGlyphs" textLength="31" x="5" y="533.1514">User</text><ellipse cx="23.5" cy="546.4531" fill="#FEFECE" filter="url(#f1c1j4ucxi9onn)" rx="8" ry="8" style="stroke:#A80036;stroke-width:2.0;"/><path d="M23.5,554.4531 L23.5,581.4531 M10.5,562.4531 L36.5,562.4531 M23.5,581.4531 L10.5,596.4531 M23.5,581.4531 L36.5,596.4531 " fill="none" filter="url(#f1c1j4ucxi9onn)" style="stroke:#A80036;stroke-width:2.0;"/><rect fill="#FEFECE" filter="url(#f1c1j4ucxi9onn)" height="30.2969" style="stroke:#A80036;stroke-width:1.5;" width="72" x="178.5" y="53"/><text fill="#000000" font-family="sans-serif" font-size="14" lengthAdjust="spacingAndGlyphs" textLength="58" x="185.5" y="72.9951">CILogon</text><rect fill="#FEFECE" filter="url(#f1c1j4ucxi9onn)" height="30.2969" style="stroke:#A80036;stroke-width:1.5;" width="72" x="178.5" y="520.1563"/><text fill="#000000" font-family="sans-serif" font-size="14" lengthAdjust="spacingAndGlyphs" textLength="58" x="185.5" y="540.1514">CILogon</text><rect fill="#FEFECE" filter="url(#f1c1j4ucxi9onn)" height="46.5938" style="stroke:#A80036;stroke-width:1.5;" width="148" x="290.5" y="36.7031"/><text fill="#000000" font-family="sans-serif" font-size="14" font-style="italic" lengthAdjust="spacingAndGlyphs" textLength="134" x="297.5" y="56.6982">«Identity Provider»</text><text fill="#000000" font-family="sans-serif" font-size="14" lengthAdjust="spacingAndGlyphs" textLength="24" x="352.5" y="72.9951">IDP</text><rect fill="#FEFECE" filter="url(#f1c1j4ucxi9onn)" height="46.5938" style="stroke:#A80036;stroke-width:1.5;" width="148" x="290.5" y="520.1563"/><text fill="#000000" font-family="sans-serif" font-size="14" font-style="italic" lengthAdjust="spacingAndGlyphs" textLength="134" x="297.5" y="540.1514">«Identity Provider»</text><text fill="#000000" font-family="sans-serif" font-size="14" lengthAdjust="spacingAndGlyphs" textLength="24" x="352.5" y="556.4482">IDP</text><rect fill="#FEFECE" filter="url(#f1c1j4ucxi9onn)" height="46.5938" style="stroke:#A80036;stroke-width:1.5;" width="165" x="452.5" y="36.7031"/><text fill="#000000" font-family="sans-serif" font-size="14" font-style="italic" lengthAdjust="spacingAndGlyphs" textLength="151" x="459.5" y="56.6982">«Coordinating Node»</text><text fill="#000000" font-family="sans-serif" font-size="14" lengthAdjust="spacingAndGlyphs" textLength="20" x="525" y="72.9951">CN</text><rect fill="#FEFECE" filter="url(#f1c1j4ucxi9onn)" height="46.5938" style="stroke:#A80036;stroke-width:1.5;" width="165" x="452.5" y="520.1563"/><text fill="#000000" font-family="sans-serif" font-size="14" font-style="italic" lengthAdjust="spacingAndGlyphs" textLength="151" x="459.5" y="540.1514">«Coordinating Node»</text><text fill="#000000" font-family="sans-serif" font-size="14" lengthAdjust="spacingAndGlyphs" textLength="20" x="525" y="556.4482">CN</text><rect fill="#FFFFFF" filter="url(#f1c1j4ucxi9onn)" height="329.4609" style="stroke:#A80036;stroke-width:1.0;" width="10" x="211.5" y="173.6953"/><rect fill="#FFFFFF" filter="url(#f1c1j4ucxi9onn)" height="29.1328" style="stroke:#A80036;stroke-width:1.0;" width="10" x="361.5" y="286.2266"/><rect fill="#FFFFFF" filter="url(#f1c1j4ucxi9onn)" height="29.1328" style="stroke:#A80036;stroke-width:1.0;" width="10" x="532" y="344.4922"/><path d="M221,103.2969 L221,143.2969 L457,143.2969 L457,113.2969 L447,103.2969 L221,103.2969 " fill="#FBFB77" filter="url(#f1c1j4ucxi9onn)" style="stroke:#A80036;stroke-width:1.0;"/><path d="M447,103.2969 L447,113.2969 L457,113.2969 L447,103.2969 " fill="#FBFB77" style="stroke:#A80036;stroke-width:1.0;"/><text fill="#000000" font-family="sans-serif" font-size="13" lengthAdjust="spacingAndGlyphs" textLength="206" x="227" y="120.3638">DataONE Authentication Service</text><text fill="#000000" font-family="sans-serif" font-size="13" lengthAdjust="spacingAndGlyphs" textLength="215" x="227" y="135.4966">https://cilogon.org/?skin=dataone</text><polygon fill="#A80036" points="199.5,169.6953,209.5,173.6953,199.5,177.6953,203.5,173.6953" style="stroke:#A80036;stroke-width:1.0;"/><line style="stroke:#A80036;stroke-width:1.0;" x1="23.5" x2="205.5" y1="173.6953" y2="173.6953"/><text fill="#000000" font-family="sans-serif" font-size="13" lengthAdjust="spacingAndGlyphs" textLength="82" x="30.5" y="168.6294">Authenticate</text><polygon fill="#A80036" points="34.5,198.8281,24.5,202.8281,34.5,206.8281,30.5,202.8281" style="stroke:#A80036;stroke-width:1.0;"/><line style="stroke:#A80036;stroke-width:1.0;" x1="28.5" x2="210.5" y1="202.8281" y2="202.8281"/><text fill="#000000" font-family="sans-serif" font-size="13" lengthAdjust="spacingAndGlyphs" textLength="98" x="40.5" y="197.7622">auth_using_IDP</text><path d="M371,215.8281 L371,255.8281 L497,255.8281 L497,225.8281 L487,215.8281 L371,215.8281 " fill="#FBFB77" filter="url(#f1c1j4ucxi9onn)" style="stroke:#A80036;stroke-width:1.0;"/><path d="M487,215.8281 L487,225.8281 L497,225.8281 L487,215.8281 " fill="#FBFB77" style="stroke:#A80036;stroke-width:1.0;"/><text fill="#000000" font-family="sans-serif" font-size="13" lengthAdjust="spacingAndGlyphs" textLength="87" x="377" y="232.895">User selected</text><text fill="#000000" font-family="sans-serif" font-size="13" lengthAdjust="spacingAndGlyphs" textLength="105" x="377" y="248.0278">Identity Provider</text><polygon fill="#A80036" points="349.5,282.2266,359.5,286.2266,349.5,290.2266,353.5,286.2266" style="stroke:#A80036;stroke-width:1.0;"/><line style="stroke:#A80036;stroke-width:1.0;" x1="23.5" x2="355.5" y1="286.2266" y2="286.2266"/><text fill="#000000" font-family="sans-serif" font-size="13" lengthAdjust="spacingAndGlyphs" textLength="81" x="30.5" y="281.1606">authenticate</text><polygon fill="#A80036" points="232.5,311.3594,222.5,315.3594,232.5,319.3594,228.5,315.3594" style="stroke:#A80036;stroke-width:1.0;"/><line style="stroke:#A80036;stroke-width:1.0;" x1="226.5" x2="365.5" y1="315.3594" y2="315.3594"/><text fill="#000000" font-family="sans-serif" font-size="13" lengthAdjust="spacingAndGlyphs" textLength="95" x="238.5" y="310.2935">user metadata</text><polygon fill="#A80036" points="520,340.4922,530,344.4922,520,348.4922,524,344.4922" style="stroke:#A80036;stroke-width:1.0;"/><line style="stroke:#A80036;stroke-width:1.0;" x1="221.5" x2="526" y1="344.4922" y2="344.4922"/><text fill="#000000" font-family="sans-serif" font-size="13" lengthAdjust="spacingAndGlyphs" textLength="92" x="228.5" y="339.4263">getSubjectInfo</text><polygon fill="#A80036" points="232.5,369.625,222.5,373.625,232.5,377.625,228.5,373.625" style="stroke:#A80036;stroke-width:1.0;"/><line style="stroke:#A80036;stroke-width:1.0;" x1="226.5" x2="536" y1="373.625" y2="373.625"/><text fill="#000000" font-family="sans-serif" font-size="13" lengthAdjust="spacingAndGlyphs" textLength="71" x="238.5" y="368.5591">SubjectInfo</text><line style="stroke:#A80036;stroke-width:1.0;" x1="221.5" x2="263.5" y1="402.7578" y2="402.7578"/><line style="stroke:#A80036;stroke-width:1.0;" x1="263.5" x2="263.5" y1="402.7578" y2="415.7578"/><line style="stroke:#A80036;stroke-width:1.0;" x1="222.5" x2="263.5" y1="415.7578" y2="415.7578"/><polygon fill="#A80036" points="232.5,411.7578,222.5,415.7578,232.5,419.7578,228.5,415.7578" style="stroke:#A80036;stroke-width:1.0;"/><text fill="#000000" font-family="sans-serif" font-size="13" lengthAdjust="spacingAndGlyphs" textLength="126" x="228.5" y="397.6919">generate certificate</text><polygon fill="#A80036" points="34.5,440.8906,24.5,444.8906,34.5,448.8906,30.5,444.8906" style="stroke:#A80036;stroke-width:1.0;"/><line style="stroke:#A80036;stroke-width:1.0;" x1="28.5" x2="210.5" y1="444.8906" y2="444.8906"/><text fill="#000000" font-family="sans-serif" font-size="13" lengthAdjust="spacingAndGlyphs" textLength="164" x="40.5" y="439.8247">certificate_download_tool</text><polygon fill="#A80036" points="199.5,470.0234,209.5,474.0234,199.5,478.0234,203.5,474.0234" style="stroke:#A80036;stroke-width:1.0;"/><line style="stroke:#A80036;stroke-width:1.0;" x1="23.5" x2="205.5" y1="474.0234" y2="474.0234"/><text fill="#000000" font-family="sans-serif" font-size="13" lengthAdjust="spacingAndGlyphs" textLength="130" x="30.5" y="468.9575">download certificate</text><polygon fill="#A80036" points="34.5,499.1563,24.5,503.1563,34.5,507.1563,30.5,503.1563" style="stroke:#A80036;stroke-width:1.0;"/><line style="stroke:#A80036;stroke-width:1.0;" x1="28.5" x2="215.5" y1="503.1563" y2="503.1563"/><text fill="#000000" font-family="sans-serif" font-size="13" lengthAdjust="spacingAndGlyphs" textLength="64" x="40.5" y="498.0903">certificate</text><!--MD5=[6c4d126a1bb309f1ddfb8cf19c0c26f0]
@startuml
actor User
participant CILogon
participant IDP <<Identity Provider >>
participant CN <<Coordinating Node>>

note right of CILogon
  DataONE Authentication Service
  https://cilogon.org/?skin=dataone
end note
User -> CILogon: Authenticate
activate CILogon
CILogon -> User: auth_using_IDP

note right of IDP
  User selected
  Identity Provider
end note
User -> IDP: authenticate
activate IDP
IDP -> CILogon: user metadata
deactivate IDP
CILogon -> CN: getSubjectInfo
activate CN
CN -> CILogon: SubjectInfo
deactivate CN
CILogon -> CILogon: generate certificate
CILogon -> User: certificate_download_tool
User -> CILogon: download certificate
CILogon -> User: certificate
deactivate CILogon
@enduml

PlantUML version 1.2020.21beta3(Unknown compile time)
(GPL source distribution)
Java Runtime: Java(TM) SE Runtime Environment
JVM: Java HotSpot(TM) 64-Bit Server VM
Default Encoding: UTF-8
Language: en
Country: US
--></g></svg>