<?xml version="1.0" encoding="UTF-8" standalone="no"?><svg xmlns="http://www.w3.org/2000/svg" xmlns:xlink="http://www.w3.org/1999/xlink" contentScriptType="application/ecmascript" contentStyleType="text/css" height="331px" preserveAspectRatio="none" style="width:988px;height:331px;" version="1.1" viewBox="0 0 988 331" width="988px" zoomAndPan="magnify"><defs><filter height="300%" id="fb810arls1ne9" width="300%" x="-1" y="-1"><feGaussianBlur result="blurOut" stdDeviation="2.0"/><feColorMatrix in="blurOut" result="blurOut2" type="matrix" values="0 0 0 0 0 0 0 0 0 0 0 0 0 0 0 0 0 0 .4 0"/><feOffset dx="4.0" dy="4.0" in="blurOut2" result="blurOut3"/><feBlend in="SourceGraphic" in2="blurOut3" mode="normal"/></filter></defs><g><!--MD5=[4a65e84059005d12693a083370a06717]
entity client--><ellipse cx="338.5" cy="14" fill="#FEFECE" filter="url(#fb810arls1ne9)" rx="8" ry="8" style="stroke:#A80036;stroke-width:1.5;"/><path d="M338.5,22 L338.5,49 M325.5,30 L351.5,30 M338.5,49 L325.5,64 M338.5,49 L351.5,64 " fill="none" filter="url(#fb810arls1ne9)" style="stroke:#A80036;stroke-width:1.5;"/><text fill="#000000" font-family="sans-serif" font-size="14" lengthAdjust="spacingAndGlyphs" textLength="31" x="323" y="82.4951">User</text><ellipse cx="863.4151" cy="299.183" fill="#FEFECE" filter="url(#fb810arls1ne9)" rx="81.4151" ry="18.683" style="stroke:#A80036;stroke-width:1.5;"/><text fill="#000000" font-family="sans-serif" font-size="14" lengthAdjust="spacingAndGlyphs" textLength="134" x="796.4151" y="303.8315">12. Authentication</text><path d="M752,146.5 L752,186.7656 A0,0 0 0 0 752,186.7656 L861.205,186.7656 L863.771,280.3408 L869.205,186.7656 L979,186.7656 A0,0 0 0 0 979,186.7656 L979,156.5 L969,146.5 L752,146.5 A0,0 0 0 0 752,146.5 " fill="#FBFB77" filter="url(#fb810arls1ne9)" style="stroke:#A80036;stroke-width:1.0;"/><path d="M969,146.5 L969,156.5 L979,156.5 L969,146.5 " fill="#FBFB77" style="stroke:#A80036;stroke-width:1.0;"/><text fill="#000000" font-family="sans-serif" font-size="13" lengthAdjust="spacingAndGlyphs" textLength="206" x="758" y="163.5669">Authentication may be provided</text><text fill="#000000" font-family="sans-serif" font-size="13" lengthAdjust="spacingAndGlyphs" textLength="143" x="758" y="178.6997">by an external service</text><!--MD5=[a7c3fe0f3374b913da9748d1ac0dbbf6]
entity CN--><ellipse cx="456.5" cy="14" fill="#FEFECE" filter="url(#fb810arls1ne9)" rx="8" ry="8" style="stroke:#A80036;stroke-width:1.5;"/><path d="M456.5,22 L456.5,49 M443.5,30 L469.5,30 M456.5,49 L443.5,64 M456.5,49 L469.5,64 " fill="none" filter="url(#fb810arls1ne9)" style="stroke:#A80036;stroke-width:1.5;"/><text fill="#000000" font-family="sans-serif" font-size="14" lengthAdjust="spacingAndGlyphs" textLength="134" x="389.5" y="82.4951">Coordinating Node</text><!--MD5=[9db44d1591da4edca772ec356c96774d]
entity MN--><ellipse cx="609.5" cy="14" fill="#FEFECE" filter="url(#fb810arls1ne9)" rx="8" ry="8" style="stroke:#A80036;stroke-width:1.5;"/><path d="M609.5,22 L609.5,49 M596.5,30 L622.5,30 M609.5,49 L596.5,64 M609.5,49 L622.5,64 " fill="none" filter="url(#fb810arls1ne9)" style="stroke:#A80036;stroke-width:1.5;"/><text fill="#000000" font-family="sans-serif" font-size="14" lengthAdjust="spacingAndGlyphs" textLength="101" x="559" y="82.4951">Member Node</text><ellipse cx="83.6068" cy="298.9214" fill="#FEFECE" filter="url(#fb810arls1ne9)" rx="77.6068" ry="17.9214" style="stroke:#A80036;stroke-width:1.5;"/><text fill="#000000" font-family="sans-serif" font-size="14" lengthAdjust="spacingAndGlyphs" textLength="125" x="21.1068" y="303.5698">13. Authorization</text><ellipse cx="456.7471" cy="166.4494" fill="#FEFECE" filter="url(#fb810arls1ne9)" rx="70.2471" ry="16.4494" style="stroke:#A80036;stroke-width:1.5;"/><text fill="#000000" font-family="sans-serif" font-size="14" lengthAdjust="spacingAndGlyphs" textLength="107" x="403.2471" y="171.0979">01. Get Object</text><ellipse cx="263.6107" cy="298.8221" fill="#FEFECE" filter="url(#fb810arls1ne9)" rx="67.1107" ry="15.8221" style="stroke:#A80036;stroke-width:1.5;"/><text fill="#000000" font-family="sans-serif" font-size="14" lengthAdjust="spacingAndGlyphs" textLength="99" x="214.1107" y="303.4706">16. Log event</text><ellipse cx="456.4996" cy="299.0999" fill="#FEFECE" filter="url(#fb810arls1ne9)" rx="90.9996" ry="20.5999" style="stroke:#A80036;stroke-width:1.5;"/><text fill="#000000" font-family="sans-serif" font-size="14" lengthAdjust="spacingAndGlyphs" textLength="156" x="378.4996" y="303.7484">21. Notify subscribers</text><ellipse cx="664.4151" cy="299.183" fill="#FEFECE" filter="url(#fb810arls1ne9)" rx="81.4151" ry="18.683" style="stroke:#A80036;stroke-width:1.5;"/><text fill="#000000" font-family="sans-serif" font-size="14" lengthAdjust="spacingAndGlyphs" textLength="134" x="597.4151" y="303.8315">36. Resolve object</text><!--MD5=[72602590c2efccde9715a9d51a81e52d]
link client to GET--><path d="M354.163,65.686 C359.504,72.142 365.616,79.257 371.5,85.5 C393.879,109.242 421.729,134.763 439.317,150.435 " fill="none" id="client-GET" style="stroke:#A80036;stroke-width:1.0;"/><!--MD5=[89e0b5ecb643ff53915e381d84ba3e6f]
link CN to GET--><path d="M456.5,85.792 C456.5,107.654 456.5,133.544 456.5,149.749 " fill="none" id="CN-GET" style="stroke:#A80036;stroke-width:1.0;"/><!--MD5=[b8a7fe5fff29d3fedb4044951cc2bcc6]
link MN to GET--><path d="M558.978,85.46 C530.428,107.759 496.401,134.336 475.631,150.558 " fill="none" id="MN-GET" style="stroke:#A80036;stroke-width:1.0;"/><!--MD5=[ae6bc061749d6d467710d81fc8d53dfe]
link GET to author--><path d="M403.865,177.391 C363.038,185.778 305.364,199.2 256.5,216.5 C206.33,234.262 151.157,261.736 116.918,279.7945 " fill="none" id="GET-to-author" style="stroke:#A80036;stroke-width:1.0;stroke-dasharray:7.0,7.0;"/><polygon fill="#A80036" points="112.436,282.1682,122.2617,281.4937,116.8552,279.8293,118.5196,274.4229,112.436,282.1682" style="stroke:#A80036;stroke-width:1.0;"/><text fill="#000000" font-family="sans-serif" font-size="13" lengthAdjust="spacingAndGlyphs" textLength="68" x="257.5" y="229.5669">«includes»</text><text fill="#000000" font-family="sans-serif" font-size="13" lengthAdjust="spacingAndGlyphs" textLength="61" x="261" y="244.6997">[optional]</text><!--MD5=[917ca20c0b0b8bd5c535372b3f5f2dee]
link GET to authen--><path d="M509.003,177.587 C551.216,186.254 611.795,199.955 663.5,216.5 C720.636,234.783 784.475,262.0472 824.321,279.9249 " fill="none" id="GET-to-authen" style="stroke:#A80036;stroke-width:1.0;stroke-dasharray:7.0,7.0;"/><polygon fill="#A80036" points="829.059,282.0574,822.4946,274.7152,824.4998,280.0047,819.2103,282.0099,829.059,282.0574" style="stroke:#A80036;stroke-width:1.0;"/><text fill="#000000" font-family="sans-serif" font-size="13" lengthAdjust="spacingAndGlyphs" textLength="68" x="748.5" y="229.5669">«includes»</text><text fill="#000000" font-family="sans-serif" font-size="13" lengthAdjust="spacingAndGlyphs" textLength="61" x="752" y="244.6997">[optional]</text><!--MD5=[6a7b5841373afba7e927e2ac9c075bab]
link GET to log--><path d="M432.383,182.171 C416.857,191.733 396.322,204.6 378.5,216.5 C346.505,237.8631 310.436,263.7244 287.364,280.5021 " fill="none" id="GET-to-log" style="stroke:#A80036;stroke-width:1.0;stroke-dasharray:7.0,7.0;"/><polygon fill="#A80036" points="283.211,283.526,292.8412,281.4624,287.2531,280.583,288.1325,274.9949,283.211,283.526" style="stroke:#A80036;stroke-width:1.0;"/><text fill="#000000" font-family="sans-serif" font-size="13" lengthAdjust="spacingAndGlyphs" textLength="68" x="379.5" y="237.0669">«includes»</text><!--MD5=[c5159778bb00886f4233680e68fdec68]
link GET to subscribe--><path d="M456.5,183.241 C456.5,205.612 456.5,246.8189 456.5,273.2873 " fill="none" id="GET-to-subscribe" style="stroke:#A80036;stroke-width:1.0;stroke-dasharray:7.0,7.0;"/><polygon fill="#A80036" points="456.5,278.3746,460.5,269.3746,456.5,273.3746,452.5,269.3746,456.5,278.3746" style="stroke:#A80036;stroke-width:1.0;"/><text fill="#000000" font-family="sans-serif" font-size="13" lengthAdjust="spacingAndGlyphs" textLength="68" x="457.5" y="237.0669">«includes»</text><!--MD5=[b4eeb8b9bc34e83a9bb3cca7ad21075c]
link GET to resolve--><path d="M479.956,182.216 C517.577,205.82 591.429,252.1552 633.404,278.4901 " fill="none" id="GET-to-resolve" style="stroke:#A80036;stroke-width:1.0;stroke-dasharray:7.0,7.0;"/><polygon fill="#A80036" points="637.862,281.2871,632.3658,273.1144,633.6272,278.6289,628.1127,279.8902,637.862,281.2871" style="stroke:#A80036;stroke-width:1.0;"/><text fill="#000000" font-family="sans-serif" font-size="13" lengthAdjust="spacingAndGlyphs" textLength="68" x="586.5" y="229.5669">«includes»</text><text fill="#000000" font-family="sans-serif" font-size="13" lengthAdjust="spacingAndGlyphs" textLength="61" x="590" y="244.6997">[optional]</text><!--MD5=[22e6951a601f0111c3bbda79d3690ad9]
@startuml
actor "User" as client
usecase "12. Authentication" as authen
note top of authen
Authentication may be provided
by an external service
end note

  actor "Coordinating Node" as CN
  actor "Member Node" as MN
  usecase "13. Authorization" as author
  usecase "01. Get Object" as GET
  usecase "16. Log event" as log
  usecase "21. Notify subscribers" as subscribe
  usecase "36. Resolve object" as resolve
  client - - GET
  CN - - GET
  MN - - GET
  GET ..> author: <<includes>>\n[optional]
  GET ..> authen: <<includes>>\n[optional]
  GET ..> log: <<includes>>
  GET ..> subscribe: <<includes>>
  GET ..> resolve: <<includes>>\n[optional]
@enduml

PlantUML version 1.2020.21beta3(Unknown compile time)
(GPL source distribution)
Java Runtime: Java(TM) SE Runtime Environment
JVM: Java HotSpot(TM) 64-Bit Server VM
Default Encoding: UTF-8
Language: en
Country: US
--></g></svg>