<?xml version="1.0" encoding="UTF-8" standalone="no"?><svg xmlns="http://www.w3.org/2000/svg" xmlns:xlink="http://www.w3.org/1999/xlink" contentScriptType="application/ecmascript" contentStyleType="text/css" height="310px" preserveAspectRatio="none" style="width:574px;height:310px;" version="1.1" viewBox="0 0 574 310" width="574px" zoomAndPan="magnify"><defs><filter height="300%" id="famcyve0kgco0" width="300%" x="-1" y="-1"><feGaussianBlur result="blurOut" stdDeviation="2.0"/><feColorMatrix in="blurOut" result="blurOut2" type="matrix" values="0 0 0 0 0 0 0 0 0 0 0 0 0 0 0 0 0 0 .4 0"/><feOffset dx="4.0" dy="4.0" in="blurOut2" result="blurOut3"/><feBlend in="SourceGraphic" in2="blurOut3" mode="normal"/></filter></defs><g><!--MD5=[4a65e84059005d12693a083370a06717]
entity client--><ellipse cx="163.5" cy="14" fill="#FEFECE" filter="url(#famcyve0kgco0)" rx="8" ry="8" style="stroke:#A80036;stroke-width:1.5;"/><path d="M163.5,22 L163.5,49 M150.5,30 L176.5,30 M163.5,49 L150.5,64 M163.5,49 L176.5,64 " fill="none" filter="url(#famcyve0kgco0)" style="stroke:#A80036;stroke-width:1.5;"/><text fill="#000000" font-family="sans-serif" font-size="14" lengthAdjust="spacingAndGlyphs" textLength="31" x="148" y="82.4951">User</text><ellipse cx="87.4151" cy="279.183" fill="#FEFECE" filter="url(#famcyve0kgco0)" rx="81.4151" ry="18.683" style="stroke:#A80036;stroke-width:1.5;"/><text fill="#000000" font-family="sans-serif" font-size="14" lengthAdjust="spacingAndGlyphs" textLength="134" x="20.4151" y="283.8315">12. Authentication</text><!--MD5=[a7c3fe0f3374b913da9748d1ac0dbbf6]
entity CN--><ellipse cx="281.5" cy="14" fill="#FEFECE" filter="url(#famcyve0kgco0)" rx="8" ry="8" style="stroke:#A80036;stroke-width:1.5;"/><path d="M281.5,22 L281.5,49 M268.5,30 L294.5,30 M281.5,49 L268.5,64 M281.5,49 L294.5,64 " fill="none" filter="url(#famcyve0kgco0)" style="stroke:#A80036;stroke-width:1.5;"/><text fill="#000000" font-family="sans-serif" font-size="14" lengthAdjust="spacingAndGlyphs" textLength="134" x="214.5" y="82.4951">Coordinating Node</text><!--MD5=[9db44d1591da4edca772ec356c96774d]
entity MN--><ellipse cx="434.5" cy="14" fill="#FEFECE" filter="url(#famcyve0kgco0)" rx="8" ry="8" style="stroke:#A80036;stroke-width:1.5;"/><path d="M434.5,22 L434.5,49 M421.5,30 L447.5,30 M434.5,49 L421.5,64 M434.5,49 L447.5,64 " fill="none" filter="url(#famcyve0kgco0)" style="stroke:#A80036;stroke-width:1.5;"/><text fill="#000000" font-family="sans-serif" font-size="14" lengthAdjust="spacingAndGlyphs" textLength="101" x="384" y="82.4951">Member Node</text><ellipse cx="281.6068" cy="278.9214" fill="#FEFECE" filter="url(#famcyve0kgco0)" rx="77.6068" ry="17.9214" style="stroke:#A80036;stroke-width:1.5;"/><text fill="#000000" font-family="sans-serif" font-size="14" lengthAdjust="spacingAndGlyphs" textLength="125" x="219.1068" y="283.5698">13. Authorization</text><ellipse cx="281.3678" cy="164.6736" fill="#FEFECE" filter="url(#famcyve0kgco0)" rx="78.8678" ry="18.1736" style="stroke:#A80036;stroke-width:1.5;"/><text fill="#000000" font-family="sans-serif" font-size="14" lengthAdjust="spacingAndGlyphs" textLength="128" x="217.3678" y="169.322">04. Create Object</text><ellipse cx="478.4259" cy="278.7852" fill="#FEFECE" filter="url(#famcyve0kgco0)" rx="84.4259" ry="19.2852" style="stroke:#A80036;stroke-width:1.5;"/><text fill="#000000" font-family="sans-serif" font-size="14" lengthAdjust="spacingAndGlyphs" textLength="141" x="407.9259" y="283.4336">06. MN Synchronize</text><!--MD5=[6dbd3c4c733c05090b4a73694bce4958]
link client to create--><path d="M179.117,65.73 C184.455,72.189 190.577,79.295 196.5,85.5 C217.797,107.811 244.231,131.506 261.914,146.845 " fill="none" id="client-create" style="stroke:#A80036;stroke-width:1.0;"/><!--MD5=[138bcecdb29415305f6e8dfbd42f11fa]
link CN to create--><path d="M281.5,85.78 C281.5,106.419 281.5,130.557 281.5,146.391 " fill="none" id="CN-create" style="stroke:#A80036;stroke-width:1.0;"/><!--MD5=[0ca39be1ccbd753a32c8b31b1af39119]
link MN to create--><path d="M383.978,84.8 C356.473,105.923 323.883,130.951 302.963,147.017 " fill="none" id="MN-create" style="stroke:#A80036;stroke-width:1.0;"/><!--MD5=[92b14dd847cb54f0b8031ef0da875774]
link create to author--><path d="M281.5,182.586 C281.5,202.0793 281.5,234.0292 281.5,255.5266 " fill="none" id="create-to-author" style="stroke:#A80036;stroke-width:1.0;stroke-dasharray:7.0,7.0;"/><polygon fill="#A80036" points="281.5,260.7529,285.5,251.7529,281.5,255.7529,277.5,251.7529,281.5,260.7529" style="stroke:#A80036;stroke-width:1.0;"/><text fill="#000000" font-family="sans-serif" font-size="13" lengthAdjust="spacingAndGlyphs" textLength="68" x="282.5" y="225.5669">«includes»</text><!--MD5=[f1207c998a8858b4a6000437be6e91ec]
link create to authen--><path d="M253.705,181.619 C218.467,202.0526 157.806,237.2299 120.327,258.9636 " fill="none" id="create-to-authen" style="stroke:#A80036;stroke-width:1.0;stroke-dasharray:7.0,7.0;"/><polygon fill="#A80036" points="115.875,261.5456,125.6672,260.4904,120.2002,259.0371,121.6535,253.5701,115.875,261.5456" style="stroke:#A80036;stroke-width:1.0;"/><text fill="#000000" font-family="sans-serif" font-size="13" lengthAdjust="spacingAndGlyphs" textLength="68" x="197.5" y="225.5669">«includes»</text><!--MD5=[4478905c93a893a55f40e2a7a19d945f]
link create to mn_sync--><path d="M309.307,181.38 C344.571,201.5177 405.384,236.2458 443.693,258.1227 " fill="none" id="create-to-mn_sync" style="stroke:#A80036;stroke-width:1.0;stroke-dasharray:7.0,7.0;"/><polygon fill="#A80036" points="448.25,260.7251,442.4188,252.788,443.9083,258.2453,438.4511,259.7348,448.25,260.7251" style="stroke:#A80036;stroke-width:1.0;"/><text fill="#000000" font-family="sans-serif" font-size="13" lengthAdjust="spacingAndGlyphs" textLength="68" x="393.5" y="225.5669">«includes»</text><!--MD5=[16bc467d76e039806685e72d2930c53e]
@startuml
actor "User" as client
usecase "12. Authentication" as authen

actor "Coordinating Node" as CN
actor "Member Node" as MN
usecase "13. Authorization" as author
usecase "04. Create Object" as create
usecase "06. MN Synchronize" as mn_sync
client - - create
CN - - create
MN - - create
create ..> author: <<includes>>
create ..> authen: <<includes>>
create ..> mn_sync: <<includes>>
@enduml

PlantUML version 1.2020.21beta3(Unknown compile time)
(GPL source distribution)
Java Runtime: Java(TM) SE Runtime Environment
JVM: Java HotSpot(TM) 64-Bit Server VM
Default Encoding: UTF-8
Language: en
Country: US
--></g></svg>