<?xml version="1.0" encoding="UTF-8" standalone="no"?><svg xmlns="http://www.w3.org/2000/svg" xmlns:xlink="http://www.w3.org/1999/xlink" contentScriptType="application/ecmascript" contentStyleType="text/css" height="305px" preserveAspectRatio="none" style="width:592px;height:305px;" version="1.1" viewBox="0 0 592 305" width="592px" zoomAndPan="magnify"><defs><filter height="300%" id="f1560kfx07h0a4" width="300%" x="-1" y="-1"><feGaussianBlur result="blurOut" stdDeviation="2.0"/><feColorMatrix in="blurOut" result="blurOut2" type="matrix" values="0 0 0 0 0 0 0 0 0 0 0 0 0 0 0 0 0 0 .4 0"/><feOffset dx="4.0" dy="4.0" in="blurOut2" result="blurOut3"/><feBlend in="SourceGraphic" in2="blurOut3" mode="normal"/></filter></defs><g><!--MD5=[33392c2a02031376d07caec538d4dd7e]
entity DataONE--><polygon fill="#FEFECE" filter="url(#f1560kfx07h0a4)" points="16,25.5,93,25.5,100,47.7969,117,47.7969,117,64.7969,16,64.7969,16,25.5" style="stroke:#000000;stroke-width:1.5;"/><line style="stroke:#000000;stroke-width:1.5;" x1="16" x2="100" y1="47.7969" y2="47.7969"/><text fill="#000000" font-family="sans-serif" font-size="14" font-weight="bold" lengthAdjust="spacingAndGlyphs" textLength="71" x="20" y="41.4951">DataONE</text><!--MD5=[a7c3fe0f3374b913da9748d1ac0dbbf6]
entity CN--><ellipse cx="219.5" cy="14" fill="#FEFECE" filter="url(#f1560kfx07h0a4)" rx="8" ry="8" style="stroke:#A80036;stroke-width:1.5;"/><path d="M219.5,22 L219.5,49 M206.5,30 L232.5,30 M219.5,49 L206.5,64 M219.5,49 L232.5,64 " fill="none" filter="url(#f1560kfx07h0a4)" style="stroke:#A80036;stroke-width:1.5;"/><text fill="#000000" font-family="sans-serif" font-size="14" lengthAdjust="spacingAndGlyphs" textLength="134" x="152.5" y="82.4951">Coordinating Node</text><!--MD5=[9db44d1591da4edca772ec356c96774d]
entity MN--><ellipse cx="372.5" cy="14" fill="#FEFECE" filter="url(#f1560kfx07h0a4)" rx="8" ry="8" style="stroke:#A80036;stroke-width:1.5;"/><path d="M372.5,22 L372.5,49 M359.5,30 L385.5,30 M372.5,49 L359.5,64 M372.5,49 L385.5,64 " fill="none" filter="url(#f1560kfx07h0a4)" style="stroke:#A80036;stroke-width:1.5;"/><text fill="#000000" font-family="sans-serif" font-size="14" lengthAdjust="spacingAndGlyphs" textLength="101" x="322" y="82.4951">Member Node</text><ellipse cx="96.6068" cy="273.9214" fill="#FEFECE" filter="url(#f1560kfx07h0a4)" rx="77.6068" ry="17.9214" style="stroke:#A80036;stroke-width:1.5;"/><text fill="#000000" font-family="sans-serif" font-size="14" lengthAdjust="spacingAndGlyphs" textLength="125" x="34.1068" y="278.5698">13. Authorization</text><ellipse cx="295.5794" cy="162.0159" fill="#FEFECE" filter="url(#f1560kfx07h0a4)" rx="65.5794" ry="15.5159" style="stroke:#A80036;stroke-width:1.5;"/><text fill="#000000" font-family="sans-serif" font-size="14" lengthAdjust="spacingAndGlyphs" textLength="95" x="248.0794" y="166.6643">01. MN Policy</text><ellipse cx="295.6635" cy="274.1327" fill="#FEFECE" filter="url(#f1560kfx07h0a4)" rx="86.1635" ry="19.6327" style="stroke:#A80036;stroke-width:1.5;"/><text fill="#000000" font-family="sans-serif" font-size="14" lengthAdjust="spacingAndGlyphs" textLength="145" x="223.1635" y="278.7811">XX. Notify Watchers</text><ellipse cx="498.3427" cy="273.7685" fill="#FEFECE" filter="url(#f1560kfx07h0a4)" rx="81.8427" ry="18.7685" style="stroke:#A80036;stroke-width:1.5;"/><text fill="#000000" font-family="sans-serif" font-size="14" lengthAdjust="spacingAndGlyphs" textLength="135" x="430.8427" y="278.417">XX. CN Replication</text><!--MD5=[73ac9a3d2f7c6bede5dfde05c363f0fd]
link CN to policy--><path d="M245.655,85.576 C259.567,106.627 275.832,131.239 285.901,146.475 " fill="none" id="CN-policy" style="stroke:#A80036;stroke-width:1.0;"/><!--MD5=[583a4d4bdd3169d9a95bbbd20daa0be9]
link MN to policy--><path d="M346.001,85.576 C331.906,106.627 315.427,131.239 305.225,146.475 " fill="none" id="MN-policy" style="stroke:#A80036;stroke-width:1.0;"/><!--MD5=[06519d9f6f3e4c8977b01344980f380f]
link policy to author--><path d="M271.099,176.488 C235.694,196.0588 169.959,232.3943 130.028,254.4669 " fill="none" id="policy-to-author" style="stroke:#A80036;stroke-width:1.0;stroke-dasharray:7.0,7.0;"/><polygon fill="#A80036" points="125.29,257.0859,135.1017,256.2308,129.6655,254.6662,131.2301,249.23,125.29,257.0859" style="stroke:#A80036;stroke-width:1.0;"/><text fill="#000000" font-family="sans-serif" font-size="13" lengthAdjust="spacingAndGlyphs" textLength="68" x="214.5" y="220.5669">«includes»</text><!--MD5=[90258bb9a79a565927fad776ac57ac14]
link policy to NOTIFY--><path d="M295.5,177.835 C295.5,196.1854 295.5,227.6514 295.5,249.3474 " fill="none" id="policy-to-NOTIFY" style="stroke:#A80036;stroke-width:1.0;stroke-dasharray:7.0,7.0;"/><polygon fill="#A80036" points="295.5,254.3653,299.5,245.3653,295.5,249.3653,291.5,245.3653,295.5,254.3653" style="stroke:#A80036;stroke-width:1.0;"/><text fill="#000000" font-family="sans-serif" font-size="13" lengthAdjust="spacingAndGlyphs" textLength="68" x="296.5" y="220.5669">«includes»</text><!--MD5=[4c72814565b6e8a052af23b2d84300d6]
link policy to CNSYNC--><path d="M320.392,176.488 C356.102,195.8383 422.057,231.5776 462.911,253.7154 " fill="none" id="policy-to-CNSYNC" style="stroke:#A80036;stroke-width:1.0;stroke-dasharray:7.0,7.0;"/><polygon fill="#A80036" points="467.765,256.3457,461.7588,248.5402,463.3692,253.963,457.9465,255.5734,467.765,256.3457" style="stroke:#A80036;stroke-width:1.0;"/><text fill="#000000" font-family="sans-serif" font-size="13" lengthAdjust="spacingAndGlyphs" textLength="68" x="403.5" y="220.5669">«includes»</text><!--MD5=[c019f87affbba6231e0b34dd17533ee7]
@startuml
package "DataONE"
  actor "Coordinating Node" as CN
  actor "Member Node" as MN
  usecase "13. Authorization" as author
  usecase "01. MN Policy" as policy
  usecase "XX. Notify Watchers" as NOTIFY
  usecase "XX. CN Replication" as CNSYNC
  CN - - policy
  MN - - policy
  policy ..> author: <<includes>>
  policy ..> NOTIFY: <<includes>>
  policy ..> CNSYNC: <<includes>>
@enduml

PlantUML version 1.2020.21beta3(Unknown compile time)
(GPL source distribution)
Java Runtime: Java(TM) SE Runtime Environment
JVM: Java HotSpot(TM) 64-Bit Server VM
Default Encoding: UTF-8
Language: en
Country: US
--></g></svg>