<?xml version="1.0" encoding="UTF-8" standalone="no"?><svg xmlns="http://www.w3.org/2000/svg" xmlns:xlink="http://www.w3.org/1999/xlink" contentScriptType="application/ecmascript" contentStyleType="text/css" height="350px" preserveAspectRatio="none" style="width:534px;height:350px;" version="1.1" viewBox="0 0 534 350" width="534px" zoomAndPan="magnify"><defs><filter height="300%" id="fxxluqhc45kg2" width="300%" x="-1" y="-1"><feGaussianBlur result="blurOut" stdDeviation="2.0"/><feColorMatrix in="blurOut" result="blurOut2" type="matrix" values="0 0 0 0 0 0 0 0 0 0 0 0 0 0 0 0 0 0 .4 0"/><feOffset dx="4.0" dy="4.0" in="blurOut2" result="blurOut3"/><feBlend in="SourceGraphic" in2="blurOut3" mode="normal"/></filter></defs><g><!--MD5=[a7c3fe0f3374b913da9748d1ac0dbbf6]
entity CN--><ellipse cx="160" cy="14" fill="#FEFECE" filter="url(#fxxluqhc45kg2)" rx="8" ry="8" style="stroke:#A80036;stroke-width:1.5;"/><path d="M160,22 L160,49 M147,30 L173,30 M160,49 L147,64 M160,49 L173,64 " fill="none" filter="url(#fxxluqhc45kg2)" style="stroke:#A80036;stroke-width:1.5;"/><text fill="#000000" font-family="sans-serif" font-size="14" lengthAdjust="spacingAndGlyphs" textLength="134" x="93" y="82.4951">Coordinating Node</text><!--MD5=[7d2a82cad18b993f47e03408805db432]
entity MN_A--><ellipse cx="320" cy="14" fill="#FEFECE" filter="url(#fxxluqhc45kg2)" rx="8" ry="8" style="stroke:#A80036;stroke-width:1.5;"/><path d="M320,22 L320,49 M307,30 L333,30 M320,49 L307,64 M320,49 L333,64 " fill="none" filter="url(#fxxluqhc45kg2)" style="stroke:#A80036;stroke-width:1.5;"/><text fill="#000000" font-family="sans-serif" font-size="14" lengthAdjust="spacingAndGlyphs" textLength="115" x="262.5" y="82.4951">Member Node A</text><!--MD5=[c9d41cf2374543c7366eb44bd5398fbc]
entity MN_B--><ellipse cx="470" cy="14" fill="#FEFECE" filter="url(#fxxluqhc45kg2)" rx="8" ry="8" style="stroke:#A80036;stroke-width:1.5;"/><path d="M470,22 L470,49 M457,30 L483,30 M470,49 L457,64 M470,49 L483,64 " fill="none" filter="url(#fxxluqhc45kg2)" style="stroke:#A80036;stroke-width:1.5;"/><text fill="#000000" font-family="sans-serif" font-size="14" lengthAdjust="spacingAndGlyphs" textLength="115" x="412.5" y="82.4951">Member Node B</text><ellipse cx="98.7771" cy="304.9554" fill="#FEFECE" filter="url(#fxxluqhc45kg2)" rx="92.7771" ry="20.9554" style="stroke:#A80036;stroke-width:1.5;"/><text fill="#000000" font-family="sans-serif" font-size="14" lengthAdjust="spacingAndGlyphs" textLength="160" x="18.7771" y="309.6039">13. User Authorization</text><ellipse cx="319.9431" cy="167.1886" fill="#FEFECE" filter="url(#fxxluqhc45kg2)" rx="91.4431" ry="20.6886" style="stroke:#A80036;stroke-width:1.5;"/><text fill="#000000" font-family="sans-serif" font-size="14" lengthAdjust="spacingAndGlyphs" textLength="157" x="241.4431" y="171.8371">14. System Operation</text><ellipse cx="319.8318" cy="304.8664" fill="#FEFECE" filter="url(#fxxluqhc45kg2)" rx="92.3318" ry="20.8664" style="stroke:#A80036;stroke-width:1.5;"/><text fill="#000000" font-family="sans-serif" font-size="14" lengthAdjust="spacingAndGlyphs" textLength="159" x="240.3318" y="309.5148">9. Replicate MN to MN</text><!--MD5=[5fadfea26727ed38d898b47854cb519f]
entity authen--><ellipse cx="473" cy="274" fill="#FEFECE" filter="url(#fxxluqhc45kg2)" rx="8" ry="8" style="stroke:#A80036;stroke-width:1.5;"/><path d="M473,282 L473,309 M460,290 L486,290 M473,309 L460,324 M473,309 L486,324 " fill="none" filter="url(#fxxluqhc45kg2)" style="stroke:#A80036;stroke-width:1.5;"/><text fill="#000000" font-family="sans-serif" font-size="14" lengthAdjust="spacingAndGlyphs" textLength="50" x="448" y="342.4951">authen</text><!--MD5=[443e40d7c2c03e5e4ba7c5df7ee1a3f9]
link CN to SYSOP--><path d="M212.833,85.625 C240.505,106.379 273.097,130.823 295.011,147.258 " fill="none" id="CN-SYSOP" style="stroke:#A80036;stroke-width:1.0;"/><!--MD5=[460764406b37ce93b679d34317326c3b]
link MN_A to SYSOP--><path d="M320,85.625 C320,105.969 320,129.859 320,146.276 " fill="none" id="MN_A-SYSOP" style="stroke:#A80036;stroke-width:1.0;"/><!--MD5=[e3e73b2f5d8202e2296c9f3552430f86]
link MN_B to SYSOP--><path d="M420.469,85.625 C394.697,106.242 364.374,130.501 343.834,146.933 " fill="none" id="MN_B-SYSOP" style="stroke:#A80036;stroke-width:1.0;"/><!--MD5=[cd80d57ebc3c7d2ef7475a946248bc4c]
link SYSOP to author--><path d="M289.734,186.625 C249.047,211.663 176.871,256.0792 133.928,282.5059 " fill="none" id="SYSOP-to-author" style="stroke:#A80036;stroke-width:1.0;stroke-dasharray:7.0,7.0;"/><polygon fill="#A80036" points="129.609,285.1635,139.3701,283.8517,133.8669,282.5423,135.1762,277.0391,129.609,285.1635" style="stroke:#A80036;stroke-width:1.0;"/><text fill="#000000" font-family="sans-serif" font-size="13" lengthAdjust="spacingAndGlyphs" textLength="68" x="237" y="230.5669">«includes»</text><!--MD5=[50f42f620c0d77f287fdc91a5b0057a3]
link SYSOP to authen--><path d="M361.994,185.477 C378.675,193.669 397.339,204.509 412,217.5 C425.586,229.539 437.769,245.166 447.61,259.8197 " fill="none" id="SYSOP-to-authen" style="stroke:#A80036;stroke-width:1.0;stroke-dasharray:7.0,7.0;"/><polygon fill="#A80036" points="450.588,264.3311,448.9683,254.6163,447.8336,260.1582,442.2917,259.0235,450.588,264.3311" style="stroke:#A80036;stroke-width:1.0;"/><text fill="#000000" font-family="sans-serif" font-size="13" lengthAdjust="spacingAndGlyphs" textLength="68" x="430" y="230.5669">«includes»</text><!--MD5=[c785b3fb679750ba2d5ab425ea74517b]
link SYSOP to repl--><path d="M320,187.776 C320,211.811 320,252.4059 320,278.6979 " fill="none" id="SYSOP-to-repl" style="stroke:#A80036;stroke-width:1.0;stroke-dasharray:7.0,7.0;"/><polygon fill="#A80036" points="320,283.7565,324,274.7565,320,278.7565,316,274.7565,320,283.7565" style="stroke:#A80036;stroke-width:1.0;"/><text fill="#000000" font-family="sans-serif" font-size="13" lengthAdjust="spacingAndGlyphs" textLength="82" x="321" y="230.5669">&lt;&lt;includes&gt;</text><!--MD5=[85987abdf75bbbfc505d5d26d513fcd7]
@startuml
actor "Coordinating Node" as CN
actor "Member Node A" as MN_A
actor "Member Node B" as MN_B
usecase "13. User Authorization" as author
usecase "14. System Operation" as SYSOP
usecase "9. Replicate MN to MN" as repl
CN - - SYSOP
MN_A - - SYSOP
MN_B - - SYSOP
SYSOP ..> author: <<includes>>
SYSOP ..> authen: <<includes>>
SYSOP ..> repl: <<includes>
@enduml

PlantUML version 1.2020.21beta3(Unknown compile time)
(GPL source distribution)
Java Runtime: Java(TM) SE Runtime Environment
JVM: Java HotSpot(TM) 64-Bit Server VM
Default Encoding: UTF-8
Language: en
Country: US
--></g></svg>