<?xml version="1.0" encoding="UTF-8" standalone="no"?><svg xmlns="http://www.w3.org/2000/svg" xmlns:xlink="http://www.w3.org/1999/xlink" contentScriptType="application/ecmascript" contentStyleType="text/css" height="321px" preserveAspectRatio="none" style="width:962px;height:321px;" version="1.1" viewBox="0 0 962 321" width="962px" zoomAndPan="magnify"><defs><filter height="300%" id="f2bviapq1olcy" width="300%" x="-1" y="-1"><feGaussianBlur result="blurOut" stdDeviation="2.0"/><feColorMatrix in="blurOut" result="blurOut2" type="matrix" values="0 0 0 0 0 0 0 0 0 0 0 0 0 0 0 0 0 0 .4 0"/><feOffset dx="4.0" dy="4.0" in="blurOut2" result="blurOut3"/><feBlend in="SourceGraphic" in2="blurOut3" mode="normal"/></filter></defs><g><ellipse cx="87.4151" cy="289.183" fill="#FEFECE" filter="url(#f2bviapq1olcy)" rx="81.4151" ry="18.683" style="stroke:#A80036;stroke-width:1.5;"/><text fill="#000000" font-family="sans-serif" font-size="14" lengthAdjust="spacingAndGlyphs" textLength="134" x="20.4151" y="293.8315">12. Authentication</text><!--MD5=[33392c2a02031376d07caec538d4dd7e]
entity DataONE--><polygon fill="#FEFECE" filter="url(#f2bviapq1olcy)" points="844,25.5,921,25.5,928,47.7969,945,47.7969,945,64.7969,844,64.7969,844,25.5" style="stroke:#000000;stroke-width:1.5;"/><line style="stroke:#000000;stroke-width:1.5;" x1="844" x2="928" y1="47.7969" y2="47.7969"/><text fill="#000000" font-family="sans-serif" font-size="14" font-weight="bold" lengthAdjust="spacingAndGlyphs" textLength="71" x="848" y="41.4951">DataONE</text><!--MD5=[a7c3fe0f3374b913da9748d1ac0dbbf6]
entity CN--><ellipse cx="741.5" cy="14" fill="#FEFECE" filter="url(#f2bviapq1olcy)" rx="8" ry="8" style="stroke:#A80036;stroke-width:1.5;"/><path d="M741.5,22 L741.5,49 M728.5,30 L754.5,30 M741.5,49 L728.5,64 M741.5,49 L754.5,64 " fill="none" filter="url(#f2bviapq1olcy)" style="stroke:#A80036;stroke-width:1.5;"/><text fill="#000000" font-family="sans-serif" font-size="14" lengthAdjust="spacingAndGlyphs" textLength="134" x="674.5" y="82.4951">Coordinating Node</text><!--MD5=[7b33792009fd9bf8c109be544787d34b]
entity MN1--><ellipse cx="505.5" cy="14" fill="#FEFECE" filter="url(#f2bviapq1olcy)" rx="8" ry="8" style="stroke:#A80036;stroke-width:1.5;"/><path d="M505.5,22 L505.5,49 M492.5,30 L518.5,30 M505.5,49 L492.5,64 M505.5,49 L518.5,64 " fill="none" filter="url(#f2bviapq1olcy)" style="stroke:#A80036;stroke-width:1.5;"/><text fill="#000000" font-family="sans-serif" font-size="14" lengthAdjust="spacingAndGlyphs" textLength="114" x="448.5" y="82.4951">Member Node 1</text><!--MD5=[87950a82a99aa765b28cbc8bef5deb4a]
entity MN2--><ellipse cx="307.5" cy="14" fill="#FEFECE" filter="url(#f2bviapq1olcy)" rx="8" ry="8" style="stroke:#A80036;stroke-width:1.5;"/><path d="M307.5,22 L307.5,49 M294.5,30 L320.5,30 M307.5,49 L294.5,64 M307.5,49 L320.5,64 " fill="none" filter="url(#f2bviapq1olcy)" style="stroke:#A80036;stroke-width:1.5;"/><text fill="#000000" font-family="sans-serif" font-size="14" lengthAdjust="spacingAndGlyphs" textLength="113" x="251" y="82.4951">Member Node 2</text><ellipse cx="520.6068" cy="288.9214" fill="#FEFECE" filter="url(#f2bviapq1olcy)" rx="77.6068" ry="17.9214" style="stroke:#A80036;stroke-width:1.5;"/><text fill="#000000" font-family="sans-serif" font-size="14" lengthAdjust="spacingAndGlyphs" textLength="125" x="458.1068" y="293.5698">13. Authorization</text><ellipse cx="307.7471" cy="168.9494" fill="#FEFECE" filter="url(#f2bviapq1olcy)" rx="70.2471" ry="16.4494" style="stroke:#A80036;stroke-width:1.5;"/><text fill="#000000" font-family="sans-serif" font-size="14" lengthAdjust="spacingAndGlyphs" textLength="107" x="254.2471" y="173.5979">01. Get Object</text><ellipse cx="563.5262" cy="169.0052" fill="#FEFECE" filter="url(#f2bviapq1olcy)" rx="78.0262" ry="18.0052" style="stroke:#A80036;stroke-width:1.5;"/><text fill="#000000" font-family="sans-serif" font-size="14" lengthAdjust="spacingAndGlyphs" textLength="126" x="500.5262" y="173.6537">04. Create object</text><ellipse cx="777.4278" cy="168.9856" fill="#FEFECE" filter="url(#f2bviapq1olcy)" rx="100.4278" ry="22.4856" style="stroke:#A80036;stroke-width:1.5;"/><text fill="#000000" font-family="sans-serif" font-size="14" lengthAdjust="spacingAndGlyphs" textLength="177" x="688.9278" y="173.634">06. Synchronize content</text><ellipse cx="317.6107" cy="288.8221" fill="#FEFECE" filter="url(#f2bviapq1olcy)" rx="67.1107" ry="15.8221" style="stroke:#A80036;stroke-width:1.5;"/><text fill="#000000" font-family="sans-serif" font-size="14" lengthAdjust="spacingAndGlyphs" textLength="99" x="268.1107" y="293.4706">16. Log event</text><ellipse cx="735.4996" cy="289.0999" fill="#FEFECE" filter="url(#f2bviapq1olcy)" rx="90.9996" ry="20.5999" style="stroke:#A80036;stroke-width:1.5;"/><text fill="#000000" font-family="sans-serif" font-size="14" lengthAdjust="spacingAndGlyphs" textLength="156" x="657.4996" y="293.7484">21. Notify subscribers</text><!--MD5=[cefe4df322e1815b30e3b70496136af5]
link CN to CREATE--><path d="M683.709,85.61 C651.021,108.014 611.903,134.825 587.372,151.639 " fill="none" id="CN-CREATE" style="stroke:#A80036;stroke-width:1.0;"/><!--MD5=[46fbc0d088117bc6b676dfbb90ccc36f]
link CN to SYNC--><path d="M753.188,85.61 C759.142,105.787 766.151,129.539 771.11,146.344 " fill="none" id="CN-SYNC" style="stroke:#A80036;stroke-width:1.0;"/><!--MD5=[49d8f92bd5a37fc59caaa2724fd53d08]
link MN1 to CREATE--><path d="M524.331,85.61 C534.85,107.735 547.412,134.159 555.422,151.007 " fill="none" id="MN1-CREATE" style="stroke:#A80036;stroke-width:1.0;"/><!--MD5=[5ffea8ed16d9c61c7ab46d6f3d1b66a5]
link MN2 to GET--><path d="M307.5,85.61 C307.5,108.292 307.5,135.492 307.5,152.26 " fill="none" id="MN2-GET" style="stroke:#A80036;stroke-width:1.0;"/><!--MD5=[cc720be22625c2d54cf2a3e27df4383f]
link MN1 to GET--><path d="M448.496,81.124 C409.538,105.128 359.931,135.694 331.14,153.434 " fill="none" id="MN1-GET" style="stroke:#A80036;stroke-width:1.0;"/><!--MD5=[ae6bc061749d6d467710d81fc8d53dfe]
link GET to author--><path d="M301.454,185.675 C296.719,200.858 292.706,223.6971 304.5,238.5 C313.988,250.4078 394.333,266.5162 454.278,277.0771 " fill="none" id="GET-to-author" style="stroke:#A80036;stroke-width:1.0;stroke-dasharray:7.0,7.0;"/><polygon fill="#A80036" points="459.283,277.9544,451.1083,272.4612,454.358,277.0915,449.7277,280.3412,459.283,277.9544" style="stroke:#A80036;stroke-width:1.0;"/><text fill="#000000" font-family="sans-serif" font-size="13" lengthAdjust="spacingAndGlyphs" textLength="68" x="305.5" y="234.5669">«includes»</text><!--MD5=[917ca20c0b0b8bd5c535372b3f5f2dee]
link GET to authen--><path d="M239.176,172.678 C197.954,177.696 146.926,190.398 112.5,221.5 C100.1102,232.6933 93.8331,250.6443 90.6685,265.0759 " fill="none" id="GET-to-authen" style="stroke:#A80036;stroke-width:1.0;stroke-dasharray:7.0,7.0;"/><polygon fill="#A80036" points="89.6378,270.2145,95.3296,262.1769,90.6211,265.3121,87.4858,260.6036,89.6378,270.2145" style="stroke:#A80036;stroke-width:1.0;"/><text fill="#000000" font-family="sans-serif" font-size="13" lengthAdjust="spacingAndGlyphs" textLength="68" x="113.5" y="234.5669">«includes»</text><!--MD5=[6a7b5841373afba7e927e2ac9c075bab]
link GET to log--><path d="M256.659,180.527 C218.192,190.997 175.045,209.6994 194.5,238.5 C208.694,259.5132 233.45,271.6078 257.048,278.5683 " fill="none" id="GET-to-log" style="stroke:#A80036;stroke-width:1.0;stroke-dasharray:7.0,7.0;"/><polygon fill="#A80036" points="262.062,279.9771,254.4799,273.6912,257.2485,278.6243,252.3154,281.3929,262.062,279.9771" style="stroke:#A80036;stroke-width:1.0;"/><text fill="#000000" font-family="sans-serif" font-size="13" lengthAdjust="spacingAndGlyphs" textLength="68" x="195.5" y="234.5669">«includes»</text><!--MD5=[c5159778bb00886f4233680e68fdec68]
link GET to subscribe--><path d="M356.446,180.951 C393.404,189.928 445.01,203.99 488.5,221.5 C503.439,227.5149 505.413,232.8673 520.5,238.5 C564.982,255.1067 616.797,267.237 658.413,275.3324 " fill="none" id="GET-to-subscribe" style="stroke:#A80036;stroke-width:1.0;stroke-dasharray:7.0,7.0;"/><polygon fill="#A80036" points="663.437,276.2996,655.356,270.6695,658.5272,275.3539,653.8429,278.5252,663.437,276.2996" style="stroke:#A80036;stroke-width:1.0;"/><text fill="#000000" font-family="sans-serif" font-size="13" lengthAdjust="spacingAndGlyphs" textLength="68" x="521.5" y="234.5669">«includes»</text><!--MD5=[bdf0ab035e674c4a23d30a8e655efa78]
link CREATE to author--><path d="M581.756,186.758 C594.657,200.718 608.086,221.0627 598.5,238.5 C590.795,252.5161 577.256,263.1239 563.598,270.8519 " fill="none" id="CREATE-to-author" style="stroke:#A80036;stroke-width:1.0;stroke-dasharray:7.0,7.0;"/><polygon fill="#A80036" points="558.969,273.363,568.7872,272.587,563.3639,270.9786,564.9723,265.5553,558.969,273.363" style="stroke:#A80036;stroke-width:1.0;"/><text fill="#000000" font-family="sans-serif" font-size="13" lengthAdjust="spacingAndGlyphs" textLength="68" x="603.5" y="234.5669">«includes»</text><!--MD5=[474f36aee7aa3da3e17bcadb3ac91b1c]
link CREATE to log--><path d="M514.859,183.2 C485.075,192.155 446.639,205.3 414.5,221.5 C387.209,235.2556 358.672,255.6594 339.674,270.2346 " fill="none" id="CREATE-to-log" style="stroke:#A80036;stroke-width:1.0;stroke-dasharray:7.0,7.0;"/><polygon fill="#A80036" points="335.532,273.4362,345.0987,271.0958,339.4876,270.3779,340.2055,264.7668,335.532,273.4362" style="stroke:#A80036;stroke-width:1.0;"/><text fill="#000000" font-family="sans-serif" font-size="13" lengthAdjust="spacingAndGlyphs" textLength="68" x="415.5" y="234.5669">«includes»</text><!--MD5=[33d626b08df93b77563a78c9e6884854]
link CREATE to subscribe--><path d="M607.792,183.93 C630.863,192.509 658.723,205.041 680.5,221.5 C696.098,233.289 710.086,250.3395 720.051,264.2237 " fill="none" id="CREATE-to-subscribe" style="stroke:#A80036;stroke-width:1.0;stroke-dasharray:7.0,7.0;"/><polygon fill="#A80036" points="723.012,268.4216,721.0929,258.7615,720.1299,264.3358,714.5557,263.3728,723.012,268.4216" style="stroke:#A80036;stroke-width:1.0;"/><text fill="#000000" font-family="sans-serif" font-size="13" lengthAdjust="spacingAndGlyphs" textLength="68" x="699.5" y="234.5669">«includes»</text><!--MD5=[d52e7509ad39dbbab21b722fe1b5d45b]
@startuml
usecase "12. Authentication" as authen
package "DataONE"
  actor "Coordinating Node" as CN
  actor "Member Node 1" as MN1
  actor "Member Node 2" as MN2
  usecase "13. Authorization" as author
  usecase "01. Get Object" as GET
  usecase "04. Create object" as CREATE
  usecase "06. Synchronize content" as SYNC
  usecase "16. Log event" as log
  usecase "21. Notify subscribers" as subscribe
  CN - - CREATE
  CN - - SYNC
  MN1 - - CREATE
  MN2 - - GET
  MN1 - - GET
  GET ..> author: <<includes>>
  GET ..> authen: <<includes>>
  GET ..> log: <<includes>>
  GET ..> subscribe: <<includes>>
  CREATE ..> author: <<includes>>
  CREATE ..> log: <<includes>>
  CREATE ..> subscribe: <<includes>>
@enduml

PlantUML version 1.2020.21beta3(Unknown compile time)
(GPL source distribution)
Java Runtime: Java(TM) SE Runtime Environment
JVM: Java HotSpot(TM) 64-Bit Server VM
Default Encoding: UTF-8
Language: en
Country: US
--></g></svg>