<?xml version="1.0" encoding="UTF-8" standalone="no"?><svg xmlns="http://www.w3.org/2000/svg" xmlns:xlink="http://www.w3.org/1999/xlink" contentScriptType="application/ecmascript" contentStyleType="text/css" height="396px" preserveAspectRatio="none" style="width:923px;height:396px;" version="1.1" viewBox="0 0 923 396" width="923px" zoomAndPan="magnify"><defs><filter height="300%" id="f17ugrhvfnuv3q" width="300%" x="-1" y="-1"><feGaussianBlur result="blurOut" stdDeviation="2.0"/><feColorMatrix in="blurOut" result="blurOut2" type="matrix" values="0 0 0 0 0 0 0 0 0 0 0 0 0 0 0 0 0 0 .4 0"/><feOffset dx="4.0" dy="4.0" in="blurOut2" result="blurOut3"/><feBlend in="SourceGraphic" in2="blurOut3" mode="normal"/></filter></defs><g><rect fill="#FFFFFF" filter="url(#f17ugrhvfnuv3q)" height="59.2656" style="stroke:#000000;stroke-width:2.0;" width="359.5" x="549.5" y="177.5625"/><line style="stroke:#A80036;stroke-width:1.0;stroke-dasharray:5.0,5.0;" x1="23" x2="23" y1="88.2969" y2="312.0938"/><line style="stroke:#A80036;stroke-width:1.0;stroke-dasharray:5.0,5.0;" x1="110" x2="110" y1="88.2969" y2="312.0938"/><line style="stroke:#A80036;stroke-width:1.0;stroke-dasharray:5.0,5.0;" x1="336.5" x2="336.5" y1="88.2969" y2="312.0938"/><line style="stroke:#A80036;stroke-width:1.0;stroke-dasharray:5.0,5.0;" x1="643.5" x2="643.5" y1="88.2969" y2="312.0938"/><text fill="#000000" font-family="sans-serif" font-size="14" lengthAdjust="spacingAndGlyphs" textLength="31" x="5" y="84.9951">User</text><ellipse cx="23.5" cy="15" fill="#FEFECE" filter="url(#f17ugrhvfnuv3q)" rx="8" ry="8" style="stroke:#A80036;stroke-width:2.0;"/><path d="M23.5,23 L23.5,50 M10.5,31 L36.5,31 M23.5,50 L10.5,65 M23.5,50 L36.5,65 " fill="none" filter="url(#f17ugrhvfnuv3q)" style="stroke:#A80036;stroke-width:2.0;"/><text fill="#000000" font-family="sans-serif" font-size="14" lengthAdjust="spacingAndGlyphs" textLength="31" x="5" y="324.0889">User</text><ellipse cx="23.5" cy="337.3906" fill="#FEFECE" filter="url(#f17ugrhvfnuv3q)" rx="8" ry="8" style="stroke:#A80036;stroke-width:2.0;"/><path d="M23.5,345.3906 L23.5,372.3906 M10.5,353.3906 L36.5,353.3906 M23.5,372.3906 L10.5,387.3906 M23.5,372.3906 L36.5,387.3906 " fill="none" filter="url(#f17ugrhvfnuv3q)" style="stroke:#A80036;stroke-width:2.0;"/><rect fill="#FEFECE" filter="url(#f17ugrhvfnuv3q)" height="46.5938" style="stroke:#A80036;stroke-width:1.5;" width="112" x="52" y="36.7031"/><text fill="#000000" font-family="sans-serif" font-size="14" font-style="italic" lengthAdjust="spacingAndGlyphs" textLength="98" x="59" y="56.6982">«Application»</text><text fill="#000000" font-family="sans-serif" font-size="14" lengthAdjust="spacingAndGlyphs" textLength="43" x="86.5" y="72.9951">Client</text><rect fill="#FEFECE" filter="url(#f17ugrhvfnuv3q)" height="46.5938" style="stroke:#A80036;stroke-width:1.5;" width="112" x="52" y="311.0938"/><text fill="#000000" font-family="sans-serif" font-size="14" font-style="italic" lengthAdjust="spacingAndGlyphs" textLength="98" x="59" y="331.0889">«Application»</text><text fill="#000000" font-family="sans-serif" font-size="14" lengthAdjust="spacingAndGlyphs" textLength="43" x="86.5" y="347.3857">Client</text><rect fill="#FEFECE" filter="url(#f17ugrhvfnuv3q)" height="46.5938" style="stroke:#A80036;stroke-width:1.5;" width="165" x="252.5" y="36.7031"/><text fill="#000000" font-family="sans-serif" font-size="14" font-style="italic" lengthAdjust="spacingAndGlyphs" textLength="151" x="259.5" y="56.6982">«Coordinating Node»</text><text fill="#000000" font-family="sans-serif" font-size="14" lengthAdjust="spacingAndGlyphs" textLength="67" x="301.5" y="72.9951">CRUD API</text><rect fill="#FEFECE" filter="url(#f17ugrhvfnuv3q)" height="46.5938" style="stroke:#A80036;stroke-width:1.5;" width="165" x="252.5" y="311.0938"/><text fill="#000000" font-family="sans-serif" font-size="14" font-style="italic" lengthAdjust="spacingAndGlyphs" textLength="151" x="259.5" y="331.0889">«Coordinating Node»</text><text fill="#000000" font-family="sans-serif" font-size="14" lengthAdjust="spacingAndGlyphs" textLength="67" x="301.5" y="347.3857">CRUD API</text><rect fill="#FEFECE" filter="url(#f17ugrhvfnuv3q)" height="46.5938" style="stroke:#A80036;stroke-width:1.5;" width="165" x="559.5" y="36.7031"/><text fill="#000000" font-family="sans-serif" font-size="14" font-style="italic" lengthAdjust="spacingAndGlyphs" textLength="151" x="566.5" y="56.6982">«Coordinating Node»</text><text fill="#000000" font-family="sans-serif" font-size="14" lengthAdjust="spacingAndGlyphs" textLength="125" x="579.5" y="72.9951">Authorization API</text><rect fill="#FEFECE" filter="url(#f17ugrhvfnuv3q)" height="46.5938" style="stroke:#A80036;stroke-width:1.5;" width="165" x="559.5" y="311.0938"/><text fill="#000000" font-family="sans-serif" font-size="14" font-style="italic" lengthAdjust="spacingAndGlyphs" textLength="151" x="566.5" y="331.0889">«Coordinating Node»</text><text fill="#000000" font-family="sans-serif" font-size="14" lengthAdjust="spacingAndGlyphs" textLength="125" x="579.5" y="347.3857">Authorization API</text><polygon fill="#A80036" points="98,100.2969,108,104.2969,98,108.2969,102,104.2969" style="stroke:#A80036;stroke-width:1.0;"/><line style="stroke:#A80036;stroke-width:1.0;" x1="23.5" x2="104" y1="104.2969" y2="104.2969"/><polygon fill="#A80036" points="325,129.4297,335,133.4297,325,137.4297,329,133.4297" style="stroke:#A80036;stroke-width:1.0;"/><line style="stroke:#A80036;stroke-width:1.0;" x1="110" x2="331" y1="133.4297" y2="133.4297"/><text fill="#000000" font-family="sans-serif" font-size="13" lengthAdjust="spacingAndGlyphs" textLength="132" x="117" y="128.3638">get(auth_token, PID)</text><polygon fill="#A80036" points="632,158.5625,642,162.5625,632,166.5625,636,162.5625" style="stroke:#A80036;stroke-width:1.0;"/><line style="stroke:#A80036;stroke-width:1.0;" x1="337" x2="638" y1="162.5625" y2="162.5625"/><text fill="#000000" font-family="sans-serif" font-size="13" lengthAdjust="spacingAndGlyphs" textLength="283" x="344" y="157.4966">isAuthorized(auth_token, method, resultset)</text><path d="M549.5,177.5625 L627.5,177.5625 L627.5,184.5625 L617.5,194.5625 L549.5,194.5625 L549.5,177.5625 " fill="#EEEEEE" style="stroke:#000000;stroke-width:1.0;"/><rect fill="none" height="59.2656" style="stroke:#000000;stroke-width:2.0;" width="359.5" x="549.5" y="177.5625"/><text fill="#000000" font-family="sans-serif" font-size="13" font-weight="bold" lengthAdjust="spacingAndGlyphs" textLength="33" x="564.5" y="190.6294">loop</text><text fill="#000000" font-family="sans-serif" font-size="11" font-weight="bold" lengthAdjust="spacingAndGlyphs" textLength="173" x="642.5" y="189.7729">[for each pid in resultset]</text><line style="stroke:#A80036;stroke-width:1.0;" x1="644" x2="686" y1="215.8281" y2="215.8281"/><line style="stroke:#A80036;stroke-width:1.0;" x1="686" x2="686" y1="215.8281" y2="228.8281"/><line style="stroke:#A80036;stroke-width:1.0;" x1="645" x2="686" y1="228.8281" y2="228.8281"/><polygon fill="#A80036" points="655,224.8281,645,228.8281,655,232.8281,651,228.8281" style="stroke:#A80036;stroke-width:1.0;"/><text fill="#000000" font-family="sans-serif" font-size="13" lengthAdjust="spacingAndGlyphs" textLength="246" x="651" y="210.7622">isAuthorized(auth_token, method, pid)</text><polygon fill="#A80036" points="348,260.9609,338,264.9609,348,268.9609,344,264.9609" style="stroke:#A80036;stroke-width:1.0;"/><line style="stroke:#A80036;stroke-width:1.0;stroke-dasharray:2.0,2.0;" x1="342" x2="643" y1="264.9609" y2="264.9609"/><text fill="#000000" font-family="sans-serif" font-size="13" lengthAdjust="spacingAndGlyphs" textLength="36" x="354" y="259.895">T or F</text><polygon fill="#A80036" points="121,290.0938,111,294.0938,121,298.0938,117,294.0938" style="stroke:#A80036;stroke-width:1.0;"/><line style="stroke:#A80036;stroke-width:1.0;stroke-dasharray:2.0,2.0;" x1="115" x2="336" y1="294.0938" y2="294.0938"/><text fill="#000000" font-family="sans-serif" font-size="13" lengthAdjust="spacingAndGlyphs" textLength="203" x="127" y="289.0278">resultset or raise NotAuthorized</text><!--MD5=[eb673eb39fd51891dba121a2a0f889a0]
@startuml
actor User
participant "Client" as app_client << Application >>
User -> app_client
participant "CRUD API" as c_crud << Coordinating Node >>
participant "Authorization API" as c_authorize << Coordinating Node >>
app_client -> c_crud: get(auth_token, PID)
c_crud -> c_authorize: isAuthorized(auth_token, method, resultset)
loop for each pid in resultset
  c_authorize -> c_authorize: isAuthorized(auth_token, method, pid)
end
c_crud <- - c_authorize: T or F
app_client <- - c_crud: resultset or raise NotAuthorized
@enduml

PlantUML version 1.2020.21beta3(Unknown compile time)
(GPL source distribution)
Java Runtime: Java(TM) SE Runtime Environment
JVM: Java HotSpot(TM) 64-Bit Server VM
Default Encoding: UTF-8
Language: en
Country: US
--></g></svg>