<?xml version="1.0" encoding="UTF-8" standalone="no"?><svg xmlns="http://www.w3.org/2000/svg" xmlns:xlink="http://www.w3.org/1999/xlink" contentScriptType="application/ecmascript" contentStyleType="text/css" height="311px" preserveAspectRatio="none" style="width:638px;height:311px;" version="1.1" viewBox="0 0 638 311" width="638px" zoomAndPan="magnify"><defs><filter height="300%" id="f1j50qunedfxib" width="300%" x="-1" y="-1"><feGaussianBlur result="blurOut" stdDeviation="2.0"/><feColorMatrix in="blurOut" result="blurOut2" type="matrix" values="0 0 0 0 0 0 0 0 0 0 0 0 0 0 0 0 0 0 .4 0"/><feOffset dx="4.0" dy="4.0" in="blurOut2" result="blurOut3"/><feBlend in="SourceGraphic" in2="blurOut3" mode="normal"/></filter></defs><g><!--MD5=[4a65e84059005d12693a083370a06717]
entity client--><ellipse cx="163.5" cy="14" fill="#FEFECE" filter="url(#f1j50qunedfxib)" rx="8" ry="8" style="stroke:#A80036;stroke-width:1.5;"/><path d="M163.5,22 L163.5,49 M150.5,30 L176.5,30 M163.5,49 L150.5,64 M163.5,49 L176.5,64 " fill="none" filter="url(#f1j50qunedfxib)" style="stroke:#A80036;stroke-width:1.5;"/><text fill="#000000" font-family="sans-serif" font-size="14" lengthAdjust="spacingAndGlyphs" textLength="31" x="148" y="82.4951">User</text><ellipse cx="87.4151" cy="280.183" fill="#FEFECE" filter="url(#f1j50qunedfxib)" rx="81.4151" ry="18.683" style="stroke:#A80036;stroke-width:1.5;"/><text fill="#000000" font-family="sans-serif" font-size="14" lengthAdjust="spacingAndGlyphs" textLength="134" x="20.4151" y="284.8315">12. Authentication</text><!--MD5=[33392c2a02031376d07caec538d4dd7e]
entity DataONE--><polygon fill="#FEFECE" filter="url(#f1j50qunedfxib)" points="520,25.5,597,25.5,604,47.7969,621,47.7969,621,64.7969,520,64.7969,520,25.5" style="stroke:#000000;stroke-width:1.5;"/><line style="stroke:#000000;stroke-width:1.5;" x1="520" x2="604" y1="47.7969" y2="47.7969"/><text fill="#000000" font-family="sans-serif" font-size="14" font-weight="bold" lengthAdjust="spacingAndGlyphs" textLength="71" x="524" y="41.4951">DataONE</text><!--MD5=[a7c3fe0f3374b913da9748d1ac0dbbf6]
entity CN--><ellipse cx="281.5" cy="14" fill="#FEFECE" filter="url(#f1j50qunedfxib)" rx="8" ry="8" style="stroke:#A80036;stroke-width:1.5;"/><path d="M281.5,22 L281.5,49 M268.5,30 L294.5,30 M281.5,49 L268.5,64 M281.5,49 L294.5,64 " fill="none" filter="url(#f1j50qunedfxib)" style="stroke:#A80036;stroke-width:1.5;"/><text fill="#000000" font-family="sans-serif" font-size="14" lengthAdjust="spacingAndGlyphs" textLength="134" x="214.5" y="82.4951">Coordinating Node</text><!--MD5=[9db44d1591da4edca772ec356c96774d]
entity MN--><ellipse cx="434.5" cy="14" fill="#FEFECE" filter="url(#f1j50qunedfxib)" rx="8" ry="8" style="stroke:#A80036;stroke-width:1.5;"/><path d="M434.5,22 L434.5,49 M421.5,30 L447.5,30 M434.5,49 L421.5,64 M434.5,49 L447.5,64 " fill="none" filter="url(#f1j50qunedfxib)" style="stroke:#A80036;stroke-width:1.5;"/><text fill="#000000" font-family="sans-serif" font-size="14" lengthAdjust="spacingAndGlyphs" textLength="101" x="384" y="82.4951">Member Node</text><ellipse cx="281.6068" cy="279.9214" fill="#FEFECE" filter="url(#f1j50qunedfxib)" rx="77.6068" ry="17.9214" style="stroke:#A80036;stroke-width:1.5;"/><text fill="#000000" font-family="sans-serif" font-size="14" lengthAdjust="spacingAndGlyphs" textLength="125" x="219.1068" y="284.5698">13. Authorization</text><ellipse cx="281.6374" cy="164.9275" fill="#FEFECE" filter="url(#f1j50qunedfxib)" rx="80.1374" ry="18.4275" style="stroke:#A80036;stroke-width:1.5;"/><text fill="#000000" font-family="sans-serif" font-size="14" lengthAdjust="spacingAndGlyphs" textLength="131" x="216.1374" y="169.5759">04. Update Object</text><ellipse cx="478.4259" cy="279.7852" fill="#FEFECE" filter="url(#f1j50qunedfxib)" rx="84.4259" ry="19.2852" style="stroke:#A80036;stroke-width:1.5;"/><text fill="#000000" font-family="sans-serif" font-size="14" lengthAdjust="spacingAndGlyphs" textLength="141" x="407.9259" y="284.4336">06. MN Synchronize</text><!--MD5=[d1bad7bd3e6ee876c7661163a4f39fac]
link client to update--><path d="M179.129,65.719 C184.468,72.177 190.587,79.285 196.5,85.5 C217.686,107.765 243.909,131.456 261.581,146.916 " fill="none" id="client-update" style="stroke:#A80036;stroke-width:1.0;"/><!--MD5=[a043bacc70b45bff25650677bb394e56]
link CN to update--><path d="M281.5,85.621 C281.5,106.242 281.5,130.417 281.5,146.408 " fill="none" id="CN-update" style="stroke:#A80036;stroke-width:1.0;"/><!--MD5=[d0b3caeeaf5ab268bd1c9f3a200349dc]
link MN to update--><path d="M383.978,84.965 C356.647,106.044 324.296,130.994 303.361,147.14 " fill="none" id="MN-update" style="stroke:#A80036;stroke-width:1.0;"/><!--MD5=[b6b1e224eade60e27768e7c368b7fa2f]
link update to author--><path d="M281.5,183.656 C281.5,203.3411 281.5,235.2184 281.5,256.6326 " fill="none" id="update-to-author" style="stroke:#A80036;stroke-width:1.0;stroke-dasharray:7.0,7.0;"/><polygon fill="#A80036" points="281.5,261.8377,285.5,252.8377,281.5,256.8377,277.5,252.8377,281.5,261.8377" style="stroke:#A80036;stroke-width:1.0;"/><text fill="#000000" font-family="sans-serif" font-size="13" lengthAdjust="spacingAndGlyphs" textLength="68" x="282.5" y="226.5669">«includes»</text><!--MD5=[a84412f9decd19e39d798560982d626c]
link update to authen--><path d="M253.291,182.431 C217.946,203.0183 157.497,238.2284 120.177,259.9667 " fill="none" id="update-to-authen" style="stroke:#A80036;stroke-width:1.0;stroke-dasharray:7.0,7.0;"/><polygon fill="#A80036" points="115.743,262.549,125.5331,261.4745,120.0632,260.032,121.5058,254.5621,115.743,262.549" style="stroke:#A80036;stroke-width:1.0;"/><text fill="#000000" font-family="sans-serif" font-size="13" lengthAdjust="spacingAndGlyphs" textLength="68" x="197.5" y="226.5669">«includes»</text><!--MD5=[c1b212d04628afe84ee936520c5483a7]
link update to mn_sync--><path d="M310.145,182.431 C345.524,202.7242 405.672,237.2254 443.68,259.0269 " fill="none" id="update-to-mn_sync" style="stroke:#A80036;stroke-width:1.0;stroke-dasharray:7.0,7.0;"/><polygon fill="#A80036" points="448.202,261.6208,442.3845,253.6737,443.8646,259.1335,438.4048,260.6136,448.202,261.6208" style="stroke:#A80036;stroke-width:1.0;"/><text fill="#000000" font-family="sans-serif" font-size="13" lengthAdjust="spacingAndGlyphs" textLength="68" x="393.5" y="226.5669">«includes»</text><!--MD5=[d9344c2d8d0ee0a888b5fe1fb2325366]
@startuml
actor "User" as client
usecase "12. Authentication" as authen

package "DataONE"
  actor "Coordinating Node" as CN
  actor "Member Node" as MN
  usecase "13. Authorization" as author
  usecase "04. Update Object" as update
  usecase "06. MN Synchronize" as mn_sync
  client - - update
  CN - - update
  MN - - update
  update ..> author: <<includes>>
  update ..> authen: <<includes>>
  update ..> mn_sync: <<includes>>
@enduml

PlantUML version 1.2020.21beta3(Unknown compile time)
(GPL source distribution)
Java Runtime: Java(TM) SE Runtime Environment
JVM: Java HotSpot(TM) 64-Bit Server VM
Default Encoding: UTF-8
Language: en
Country: US
--></g></svg>