<?xml version="1.0" encoding="UTF-8" standalone="no"?><svg xmlns="http://www.w3.org/2000/svg" xmlns:xlink="http://www.w3.org/1999/xlink" contentScriptType="application/ecmascript" contentStyleType="text/css" height="715px" preserveAspectRatio="none" style="width:617px;height:715px;" version="1.1" viewBox="0 0 617 715" width="617px" zoomAndPan="magnify"><defs><filter height="300%" id="f1eiccbx2axod7" width="300%" x="-1" y="-1"><feGaussianBlur result="blurOut" stdDeviation="2.0"/><feColorMatrix in="blurOut" result="blurOut2" type="matrix" values="0 0 0 0 0 0 0 0 0 0 0 0 0 0 0 0 0 0 .4 0"/><feOffset dx="4.0" dy="4.0" in="blurOut2" result="blurOut3"/><feBlend in="SourceGraphic" in2="blurOut3" mode="normal"/></filter></defs><g><rect fill="#FFFFFF" filter="url(#f1eiccbx2axod7)" height="29.1328" style="stroke:#A80036;stroke-width:1.0;" width="10" x="93" y="260.0625"/><rect fill="#FFFFFF" filter="url(#f1eiccbx2axod7)" height="29.1328" style="stroke:#A80036;stroke-width:1.0;" width="10" x="93" y="437.8594"/><rect fill="#FFFFFF" filter="url(#f1eiccbx2axod7)" height="110.3984" style="stroke:#A80036;stroke-width:1.0;" width="10" x="304" y="87.7266"/><rect fill="#FFFFFF" filter="url(#f1eiccbx2axod7)" height="371.2656" style="stroke:#A80036;stroke-width:1.0;" width="10" x="304" y="260.0625"/><rect fill="#FFFFFF" filter="url(#f1eiccbx2axod7)" height="95.3984" style="stroke:#A80036;stroke-width:1.0;" width="10" x="309" y="289.1953"/><rect fill="#FFFFFF" filter="url(#f1eiccbx2axod7)" height="100.3984" style="stroke:#A80036;stroke-width:1.0;" width="10" x="309" y="437.8594"/><rect fill="#FFFFFF" filter="url(#f1eiccbx2axod7)" height="59.2656" style="stroke:#000000;stroke-width:2.0;" width="336.5" x="214.5" y="131.8594"/><rect fill="#FFFFFF" filter="url(#f1eiccbx2axod7)" height="335.1328" style="stroke:#000000;stroke-width:2.0;" width="593" x="10" y="304.1953"/><rect fill="#FFFFFF" filter="url(#f1eiccbx2axod7)" height="146.6641" style="stroke:#000000;stroke-width:2.0;" width="527" x="20" y="399.5938"/><rect fill="#FFFFFF" height="86.0703" style="stroke:none;stroke-width:1.0;" width="593" x="10" y="553.2578"/><line style="stroke:#A80036;stroke-width:1.0;" x1="98" x2="98" y1="56.5938" y2="198.125"/><line style="stroke:#A80036;stroke-width:1.0;stroke-dasharray:1.0,4.0;" x1="98" x2="98" y1="198.125" y2="238.9297"/><line style="stroke:#A80036;stroke-width:1.0;" x1="98" x2="98" y1="238.9297" y2="656.3281"/><line style="stroke:#A80036;stroke-width:1.0;" x1="308.5" x2="308.5" y1="56.5938" y2="198.125"/><line style="stroke:#A80036;stroke-width:1.0;stroke-dasharray:1.0,4.0;" x1="308.5" x2="308.5" y1="198.125" y2="238.9297"/><line style="stroke:#A80036;stroke-width:1.0;" x1="308.5" x2="308.5" y1="238.9297" y2="656.3281"/><rect fill="#FEFECE" filter="url(#f1eiccbx2axod7)" height="46.5938" style="stroke:#A80036;stroke-width:1.5;" width="132" x="30" y="5"/><text fill="#000000" font-family="sans-serif" font-size="14" font-style="italic" lengthAdjust="spacingAndGlyphs" textLength="118" x="37" y="24.9951">«Member Node»</text><text fill="#000000" font-family="sans-serif" font-size="14" lengthAdjust="spacingAndGlyphs" textLength="22" x="85" y="41.292">MN</text><rect fill="#FEFECE" filter="url(#f1eiccbx2axod7)" height="46.5938" style="stroke:#A80036;stroke-width:1.5;" width="132" x="30" y="655.3281"/><text fill="#000000" font-family="sans-serif" font-size="14" font-style="italic" lengthAdjust="spacingAndGlyphs" textLength="118" x="37" y="675.3232">«Member Node»</text><text fill="#000000" font-family="sans-serif" font-size="14" lengthAdjust="spacingAndGlyphs" textLength="22" x="85" y="691.6201">MN</text><rect fill="#FEFECE" filter="url(#f1eiccbx2axod7)" height="46.5938" style="stroke:#A80036;stroke-width:1.5;" width="165" x="224.5" y="5"/><text fill="#000000" font-family="sans-serif" font-size="14" font-style="italic" lengthAdjust="spacingAndGlyphs" textLength="151" x="231.5" y="24.9951">«Coordinating Node»</text><text fill="#000000" font-family="sans-serif" font-size="14" lengthAdjust="spacingAndGlyphs" textLength="20" x="297" y="41.292">CN</text><rect fill="#FEFECE" filter="url(#f1eiccbx2axod7)" height="46.5938" style="stroke:#A80036;stroke-width:1.5;" width="165" x="224.5" y="655.3281"/><text fill="#000000" font-family="sans-serif" font-size="14" font-style="italic" lengthAdjust="spacingAndGlyphs" textLength="151" x="231.5" y="675.3232">«Coordinating Node»</text><text fill="#000000" font-family="sans-serif" font-size="14" lengthAdjust="spacingAndGlyphs" textLength="20" x="297" y="691.6201">CN</text><rect fill="#FFFFFF" filter="url(#f1eiccbx2axod7)" height="29.1328" style="stroke:#A80036;stroke-width:1.0;" width="10" x="93" y="260.0625"/><rect fill="#FFFFFF" filter="url(#f1eiccbx2axod7)" height="29.1328" style="stroke:#A80036;stroke-width:1.0;" width="10" x="93" y="437.8594"/><rect fill="#FFFFFF" filter="url(#f1eiccbx2axod7)" height="110.3984" style="stroke:#A80036;stroke-width:1.0;" width="10" x="304" y="87.7266"/><rect fill="#FFFFFF" filter="url(#f1eiccbx2axod7)" height="371.2656" style="stroke:#A80036;stroke-width:1.0;" width="10" x="304" y="260.0625"/><rect fill="#FFFFFF" filter="url(#f1eiccbx2axod7)" height="95.3984" style="stroke:#A80036;stroke-width:1.0;" width="10" x="309" y="289.1953"/><rect fill="#FFFFFF" filter="url(#f1eiccbx2axod7)" height="100.3984" style="stroke:#A80036;stroke-width:1.0;" width="10" x="309" y="437.8594"/><polygon fill="#A80036" points="109,83.7266,99,87.7266,109,91.7266,105,87.7266" style="stroke:#A80036;stroke-width:1.0;"/><line style="stroke:#A80036;stroke-width:1.0;" x1="103" x2="303" y1="87.7266" y2="87.7266"/><text fill="#000000" font-family="sans-serif" font-size="13" lengthAdjust="spacingAndGlyphs" textLength="18" x="115" y="82.6606">[1]</text><text fill="#000000" font-family="sans-serif" font-size="13" lengthAdjust="spacingAndGlyphs" textLength="153" x="141" y="82.6606">listObjects( timePeriod )</text><polygon fill="#A80036" points="292,112.8594,302,116.8594,292,120.8594,296,116.8594" style="stroke:#A80036;stroke-width:1.0;"/><line style="stroke:#A80036;stroke-width:1.0;" x1="98" x2="298" y1="116.8594" y2="116.8594"/><text fill="#000000" font-family="sans-serif" font-size="13" lengthAdjust="spacingAndGlyphs" textLength="18" x="105" y="111.7935">[2]</text><text fill="#000000" font-family="sans-serif" font-size="13" lengthAdjust="spacingAndGlyphs" textLength="61" x="131" y="111.7935">objectList</text><path d="M214.5,131.8594 L292.5,131.8594 L292.5,138.8594 L282.5,148.8594 L214.5,148.8594 L214.5,131.8594 " fill="#EEEEEE" style="stroke:#000000;stroke-width:1.0;"/><rect fill="none" height="59.2656" style="stroke:#000000;stroke-width:2.0;" width="336.5" x="214.5" y="131.8594"/><text fill="#000000" font-family="sans-serif" font-size="13" font-weight="bold" lengthAdjust="spacingAndGlyphs" textLength="33" x="229.5" y="144.9263">loop</text><text fill="#000000" font-family="sans-serif" font-size="11" font-weight="bold" lengthAdjust="spacingAndGlyphs" textLength="103" x="307.5" y="144.0698">["for each PID"]</text><line style="stroke:#A80036;stroke-width:1.0;" x1="314" x2="356" y1="170.125" y2="170.125"/><line style="stroke:#A80036;stroke-width:1.0;" x1="356" x2="356" y1="170.125" y2="183.125"/><line style="stroke:#A80036;stroke-width:1.0;" x1="315" x2="356" y1="183.125" y2="183.125"/><polygon fill="#A80036" points="325,179.125,315,183.125,325,187.125,321,183.125" style="stroke:#A80036;stroke-width:1.0;"/><text fill="#000000" font-family="sans-serif" font-size="13" lengthAdjust="spacingAndGlyphs" textLength="18" x="321" y="165.0591">[3]</text><text fill="#000000" font-family="sans-serif" font-size="13" lengthAdjust="spacingAndGlyphs" textLength="192" x="347" y="165.0591">queue PID for synchronization</text><text fill="#000000" font-family="sans-serif" font-size="11" lengthAdjust="spacingAndGlyphs" textLength="0" x="127.5" y="222.3354"/><text fill="#FF0000" font-family="sans-serif" font-size="11" font-weight="bold" lengthAdjust="spacingAndGlyphs" textLength="152" x="127.5" y="222.3354">Possibly Lengthy Delay</text><text fill="#FF0000" font-family="sans-serif" font-size="11" lengthAdjust="spacingAndGlyphs" textLength="0" x="283.5" y="222.3354"/><polygon fill="#A80036" points="114,256.0625,104,260.0625,114,264.0625,110,260.0625" style="stroke:#A80036;stroke-width:1.0;"/><line style="stroke:#A80036;stroke-width:1.0;" x1="108" x2="303" y1="260.0625" y2="260.0625"/><text fill="#000000" font-family="sans-serif" font-size="13" lengthAdjust="spacingAndGlyphs" textLength="18" x="120" y="254.9966">[4]</text><text fill="#000000" font-family="sans-serif" font-size="13" lengthAdjust="spacingAndGlyphs" textLength="161" x="146" y="254.9966">getSystemMetadata(PID)</text><polygon fill="#A80036" points="297,285.1953,307,289.1953,297,293.1953,301,289.1953" style="stroke:#A80036;stroke-width:1.0;"/><line style="stroke:#A80036;stroke-width:1.0;" x1="98" x2="303" y1="289.1953" y2="289.1953"/><text fill="#000000" font-family="sans-serif" font-size="13" lengthAdjust="spacingAndGlyphs" textLength="18" x="105" y="284.1294">[5]</text><text fill="#000000" font-family="sans-serif" font-size="13" lengthAdjust="spacingAndGlyphs" textLength="109" x="131" y="284.1294">SystemMetadata</text><path d="M10,304.1953 L76,304.1953 L76,311.1953 L66,321.1953 L10,321.1953 L10,304.1953 " fill="#EEEEEE" style="stroke:#000000;stroke-width:1.0;"/><rect fill="none" height="335.1328" style="stroke:#000000;stroke-width:2.0;" width="593" x="10" y="304.1953"/><text fill="#000000" font-family="sans-serif" font-size="13" font-weight="bold" lengthAdjust="spacingAndGlyphs" textLength="21" x="25" y="317.2622">alt</text><text fill="#000000" font-family="sans-serif" font-size="11" font-weight="bold" lengthAdjust="spacingAndGlyphs" textLength="78" x="91" y="316.4058">[New Objec]</text><line style="stroke:#A80036;stroke-width:1.0;" x1="319" x2="361" y1="342.4609" y2="342.4609"/><line style="stroke:#A80036;stroke-width:1.0;" x1="361" x2="361" y1="342.4609" y2="355.4609"/><line style="stroke:#A80036;stroke-width:1.0;" x1="320" x2="361" y1="355.4609" y2="355.4609"/><polygon fill="#A80036" points="330,351.4609,320,355.4609,330,359.4609,326,355.4609" style="stroke:#A80036;stroke-width:1.0;"/><text fill="#000000" font-family="sans-serif" font-size="13" lengthAdjust="spacingAndGlyphs" textLength="18" x="326" y="337.395">[6]</text><text fill="#000000" font-family="sans-serif" font-size="13" lengthAdjust="spacingAndGlyphs" textLength="150" x="352" y="337.395">store System Metadata</text><ellipse cx="605.5" cy="383.8438" fill="none" rx="4" ry="4" style="stroke:#A80036;stroke-width:1.5;"/><polygon fill="#A80036" points="588.5,380.5938,598.5,384.5938,588.5,388.5938,592.5,384.5938" style="stroke:#A80036;stroke-width:1.0;"/><line style="stroke:#A80036;stroke-width:1.0;" x1="314" x2="594.5" y1="384.5938" y2="384.5938"/><text fill="#000000" font-family="sans-serif" font-size="13" lengthAdjust="spacingAndGlyphs" textLength="18" x="321" y="379.5278">[7]</text><text fill="#000000" font-family="sans-serif" font-size="13" lengthAdjust="spacingAndGlyphs" textLength="242" x="347" y="379.5278">Notify index of new System Metadata</text><path d="M20,399.5938 L86,399.5938 L86,406.5938 L76,416.5938 L20,416.5938 L20,399.5938 " fill="#EEEEEE" style="stroke:#000000;stroke-width:1.0;"/><rect fill="none" height="146.6641" style="stroke:#000000;stroke-width:2.0;" width="527" x="20" y="399.5938"/><text fill="#000000" font-family="sans-serif" font-size="13" font-weight="bold" lengthAdjust="spacingAndGlyphs" textLength="21" x="35" y="412.6606">alt</text><text fill="#000000" font-family="sans-serif" font-size="11" font-weight="bold" lengthAdjust="spacingAndGlyphs" textLength="269" x="101" y="411.8042">["Is Science Metadata or Resource Map"]</text><polygon fill="#A80036" points="114,433.8594,104,437.8594,114,441.8594,110,437.8594" style="stroke:#A80036;stroke-width:1.0;"/><line style="stroke:#A80036;stroke-width:1.0;" x1="108" x2="308" y1="437.8594" y2="437.8594"/><text fill="#000000" font-family="sans-serif" font-size="13" lengthAdjust="spacingAndGlyphs" textLength="18" x="120" y="432.7935">[8]</text><text fill="#000000" font-family="sans-serif" font-size="13" lengthAdjust="spacingAndGlyphs" textLength="52" x="146" y="432.7935">get(PID)</text><polygon fill="#A80036" points="297,462.9922,307,466.9922,297,470.9922,301,466.9922" style="stroke:#A80036;stroke-width:1.0;"/><line style="stroke:#A80036;stroke-width:1.0;" x1="98" x2="303" y1="466.9922" y2="466.9922"/><text fill="#000000" font-family="sans-serif" font-size="13" lengthAdjust="spacingAndGlyphs" textLength="18" x="105" y="461.9263">[9]</text><text fill="#000000" font-family="sans-serif" font-size="13" lengthAdjust="spacingAndGlyphs" textLength="39" x="131" y="461.9263">object</text><line style="stroke:#A80036;stroke-width:1.0;" x1="319" x2="361" y1="496.125" y2="496.125"/><line style="stroke:#A80036;stroke-width:1.0;" x1="361" x2="361" y1="496.125" y2="509.125"/><line style="stroke:#A80036;stroke-width:1.0;" x1="320" x2="361" y1="509.125" y2="509.125"/><polygon fill="#A80036" points="330,505.125,320,509.125,330,513.125,326,509.125" style="stroke:#A80036;stroke-width:1.0;"/><text fill="#000000" font-family="sans-serif" font-size="13" lengthAdjust="spacingAndGlyphs" textLength="26" x="326" y="491.0591">[10]</text><text fill="#000000" font-family="sans-serif" font-size="13" lengthAdjust="spacingAndGlyphs" textLength="76" x="360" y="491.0591">store object</text><ellipse cx="605.5" cy="537.5078" fill="none" rx="4" ry="4" style="stroke:#A80036;stroke-width:1.5;"/><polygon fill="#A80036" points="588.5,534.2578,598.5,538.2578,588.5,542.2578,592.5,538.2578" style="stroke:#A80036;stroke-width:1.0;"/><line style="stroke:#A80036;stroke-width:1.0;" x1="314" x2="594.5" y1="538.2578" y2="538.2578"/><text fill="#000000" font-family="sans-serif" font-size="13" lengthAdjust="spacingAndGlyphs" textLength="26" x="321" y="533.1919">[11]</text><text fill="#000000" font-family="sans-serif" font-size="13" lengthAdjust="spacingAndGlyphs" textLength="178" x="355" y="533.1919">Notify index of new content</text><line style="stroke:#000000;stroke-width:1.0;stroke-dasharray:2.0,2.0;" x1="10" x2="603" y1="554.2578" y2="554.2578"/><text fill="#000000" font-family="sans-serif" font-size="11" font-weight="bold" lengthAdjust="spacingAndGlyphs" textLength="120" x="15" y="564.4683">["Existing Object"]</text><line style="stroke:#A80036;stroke-width:1.0;" x1="314" x2="356" y1="589.1953" y2="589.1953"/><line style="stroke:#A80036;stroke-width:1.0;" x1="356" x2="356" y1="589.1953" y2="602.1953"/><line style="stroke:#A80036;stroke-width:1.0;" x1="315" x2="356" y1="602.1953" y2="602.1953"/><polygon fill="#A80036" points="325,598.1953,315,602.1953,325,606.1953,321,602.1953" style="stroke:#A80036;stroke-width:1.0;"/><text fill="#000000" font-family="sans-serif" font-size="13" lengthAdjust="spacingAndGlyphs" textLength="26" x="321" y="584.1294">[12]</text><text fill="#000000" font-family="sans-serif" font-size="13" lengthAdjust="spacingAndGlyphs" textLength="233" x="355" y="584.1294">update system metadata properties</text><ellipse cx="605.5" cy="630.5781" fill="none" rx="4" ry="4" style="stroke:#A80036;stroke-width:1.5;"/><polygon fill="#A80036" points="588.5,627.3281,598.5,631.3281,588.5,635.3281,592.5,631.3281" style="stroke:#A80036;stroke-width:1.0;"/><line style="stroke:#A80036;stroke-width:1.0;" x1="309" x2="594.5" y1="631.3281" y2="631.3281"/><text fill="#000000" font-family="sans-serif" font-size="13" lengthAdjust="spacingAndGlyphs" textLength="26" x="316" y="626.2622">[13]</text><text fill="#000000" font-family="sans-serif" font-size="13" lengthAdjust="spacingAndGlyphs" textLength="207" x="350" y="626.2622">Notify index of modified content</text><!--MD5=[a75ff813ad977209e03efbc913ea8fca]
@startuml
autonumber "[0] "
participant MN <<Member Node>>
participant CN <<Coordinating Node>>

CN -> MN: listObjects( timePeriod )
activate CN
MN -> CN: objectList
loop "for each PID"
  CN -> CN: queue PID for synchronization
end
  deactivate CN

... <font color=red>**Possibly Lengthy Delay** ...

CN -> MN: getSystemMetadata(PID)
activate CN
activate MN
MN -> CN: SystemMetadata
deactivate MN
alt New Objec
  activate CN
  CN -> CN: store System Metadata
  CN ->o]: Notify index of new System Metadata
  deactivate CN
  alt "Is Science Metadata or Resource Map"
    CN -> MN: get(PID)
    activate CN
    activate MN
    MN -> CN: object
    deactivate MN
    CN -> CN: store object
    CN ->o]: Notify index of new content
    deactivate CN
  end
else "Existing Object"

  activate CN
  CN -> CN: update system metadata properties
  CN ->o]: Notify index of modified content
  deactivate CN
end
deactivate CN
@enduml

PlantUML version 1.2020.21beta3(Unknown compile time)
(GPL source distribution)
Java Runtime: Java(TM) SE Runtime Environment
JVM: Java HotSpot(TM) 64-Bit Server VM
Default Encoding: UTF-8
Language: en
Country: US
--></g></svg>