<?xml version="1.0" encoding="UTF-8" standalone="no"?><svg xmlns="http://www.w3.org/2000/svg" xmlns:xlink="http://www.w3.org/1999/xlink" contentScriptType="application/ecmascript" contentStyleType="text/css" height="569px" preserveAspectRatio="none" style="width:579px;height:569px;" version="1.1" viewBox="0 0 579 569" width="579px" zoomAndPan="magnify"><defs><filter height="300%" id="fgqlzjgir5ixe" width="300%" x="-1" y="-1"><feGaussianBlur result="blurOut" stdDeviation="2.0"/><feColorMatrix in="blurOut" result="blurOut2" type="matrix" values="0 0 0 0 0 0 0 0 0 0 0 0 0 0 0 0 0 0 .4 0"/><feOffset dx="4.0" dy="4.0" in="blurOut2" result="blurOut3"/><feBlend in="SourceGraphic" in2="blurOut3" mode="normal"/></filter></defs><g><rect fill="#FFFFFF" filter="url(#fgqlzjgir5ixe)" height="179.6016" style="stroke:#000000;stroke-width:2.0;" width="374" x="191.5" y="163.5625"/><rect fill="#FFFFFF" filter="url(#fgqlzjgir5ixe)" height="148.4688" style="stroke:#000000;stroke-width:2.0;" width="354" x="201.5" y="187.6953"/><rect fill="#FFFFFF" height="73.0703" style="stroke:none;stroke-width:1.0;" width="354" x="201.5" y="263.0938"/><line style="stroke:#A80036;stroke-width:1.0;stroke-dasharray:5.0,5.0;" x1="31" x2="31" y1="88.2969" y2="485.6953"/><line style="stroke:#A80036;stroke-width:1.0;stroke-dasharray:5.0,5.0;" x1="125" x2="125" y1="88.2969" y2="485.6953"/><line style="stroke:#A80036;stroke-width:1.0;stroke-dasharray:5.0,5.0;" x1="295.5" x2="295.5" y1="88.2969" y2="485.6953"/><line style="stroke:#A80036;stroke-width:1.0;stroke-dasharray:5.0,5.0;" x1="467.5" x2="467.5" y1="88.2969" y2="485.6953"/><text fill="#000000" font-family="sans-serif" font-size="14" lengthAdjust="spacingAndGlyphs" textLength="46" x="5" y="84.9951">Admin</text><ellipse cx="31" cy="15" fill="#FEFECE" filter="url(#fgqlzjgir5ixe)" rx="8" ry="8" style="stroke:#A80036;stroke-width:2.0;"/><path d="M31,23 L31,50 M18,31 L44,31 M31,50 L18,65 M31,50 L44,65 " fill="none" filter="url(#fgqlzjgir5ixe)" style="stroke:#A80036;stroke-width:2.0;"/><text fill="#000000" font-family="sans-serif" font-size="14" lengthAdjust="spacingAndGlyphs" textLength="46" x="5" y="497.6904">Admin</text><ellipse cx="31" cy="510.9922" fill="#FEFECE" filter="url(#fgqlzjgir5ixe)" rx="8" ry="8" style="stroke:#A80036;stroke-width:2.0;"/><path d="M31,518.9922 L31,545.9922 M18,526.9922 L44,526.9922 M31,545.9922 L18,560.9922 M31,545.9922 L44,560.9922 " fill="none" filter="url(#fgqlzjgir5ixe)" style="stroke:#A80036;stroke-width:2.0;"/><rect fill="#FEFECE" filter="url(#fgqlzjgir5ixe)" height="46.5938" style="stroke:#A80036;stroke-width:1.5;" width="112" x="67" y="36.7031"/><text fill="#000000" font-family="sans-serif" font-size="14" font-style="italic" lengthAdjust="spacingAndGlyphs" textLength="98" x="74" y="56.6982">«Application»</text><text fill="#000000" font-family="sans-serif" font-size="14" lengthAdjust="spacingAndGlyphs" textLength="46" x="100" y="72.9951">Admin</text><rect fill="#FEFECE" filter="url(#fgqlzjgir5ixe)" height="46.5938" style="stroke:#A80036;stroke-width:1.5;" width="112" x="67" y="484.6953"/><text fill="#000000" font-family="sans-serif" font-size="14" font-style="italic" lengthAdjust="spacingAndGlyphs" textLength="98" x="74" y="504.6904">«Application»</text><text fill="#000000" font-family="sans-serif" font-size="14" lengthAdjust="spacingAndGlyphs" textLength="46" x="100" y="520.9873">Admin</text><rect fill="#FEFECE" filter="url(#fgqlzjgir5ixe)" height="46.5938" style="stroke:#A80036;stroke-width:1.5;" width="165" x="211.5" y="36.7031"/><text fill="#000000" font-family="sans-serif" font-size="14" font-style="italic" lengthAdjust="spacingAndGlyphs" textLength="151" x="218.5" y="56.6982">«Coordinating Node»</text><text fill="#000000" font-family="sans-serif" font-size="14" lengthAdjust="spacingAndGlyphs" textLength="137" x="225.5" y="72.9951">State of Health API</text><rect fill="#FEFECE" filter="url(#fgqlzjgir5ixe)" height="46.5938" style="stroke:#A80036;stroke-width:1.5;" width="165" x="211.5" y="484.6953"/><text fill="#000000" font-family="sans-serif" font-size="14" font-style="italic" lengthAdjust="spacingAndGlyphs" textLength="151" x="218.5" y="504.6904">«Coordinating Node»</text><text fill="#000000" font-family="sans-serif" font-size="14" lengthAdjust="spacingAndGlyphs" textLength="137" x="225.5" y="520.9873">State of Health API</text><rect fill="#FEFECE" filter="url(#fgqlzjgir5ixe)" height="46.5938" style="stroke:#A80036;stroke-width:1.5;" width="151" x="390.5" y="36.7031"/><text fill="#000000" font-family="sans-serif" font-size="14" font-style="italic" lengthAdjust="spacingAndGlyphs" textLength="118" x="407" y="56.6982">«Member Node»</text><text fill="#000000" font-family="sans-serif" font-size="14" lengthAdjust="spacingAndGlyphs" textLength="137" x="397.5" y="72.9951">State of Health API</text><rect fill="#FEFECE" filter="url(#fgqlzjgir5ixe)" height="46.5938" style="stroke:#A80036;stroke-width:1.5;" width="151" x="390.5" y="484.6953"/><text fill="#000000" font-family="sans-serif" font-size="14" font-style="italic" lengthAdjust="spacingAndGlyphs" textLength="118" x="407" y="504.6904">«Member Node»</text><text fill="#000000" font-family="sans-serif" font-size="14" lengthAdjust="spacingAndGlyphs" textLength="137" x="397.5" y="520.9873">State of Health API</text><polygon fill="#A80036" points="113,115.4297,123,119.4297,113,123.4297,117,119.4297" style="stroke:#A80036;stroke-width:1.0;"/><line style="stroke:#A80036;stroke-width:1.0;" x1="31" x2="119" y1="119.4297" y2="119.4297"/><text fill="#000000" font-family="sans-serif" font-size="13" lengthAdjust="spacingAndGlyphs" textLength="40" x="38" y="114.3638">login()</text><polygon fill="#A80036" points="284,144.5625,294,148.5625,284,152.5625,288,148.5625" style="stroke:#A80036;stroke-width:1.0;"/><line style="stroke:#A80036;stroke-width:1.0;" x1="125" x2="290" y1="148.5625" y2="148.5625"/><text fill="#000000" font-family="sans-serif" font-size="13" lengthAdjust="spacingAndGlyphs" textLength="147" x="132" y="143.4966">generateReport(token)</text><path d="M191.5,163.5625 L269.5,163.5625 L269.5,170.5625 L259.5,180.5625 L191.5,180.5625 L191.5,163.5625 " fill="#EEEEEE" style="stroke:#000000;stroke-width:1.0;"/><rect fill="none" height="179.6016" style="stroke:#000000;stroke-width:2.0;" width="374" x="191.5" y="163.5625"/><text fill="#000000" font-family="sans-serif" font-size="13" font-weight="bold" lengthAdjust="spacingAndGlyphs" textLength="33" x="206.5" y="176.6294">loop</text><text fill="#000000" font-family="sans-serif" font-size="11" font-weight="bold" lengthAdjust="spacingAndGlyphs" textLength="91" x="284.5" y="175.7729">[for each MN]</text><path d="M201.5,187.6953 L267.5,187.6953 L267.5,194.6953 L257.5,204.6953 L201.5,204.6953 L201.5,187.6953 " fill="#EEEEEE" style="stroke:#000000;stroke-width:1.0;"/><rect fill="none" height="148.4688" style="stroke:#000000;stroke-width:2.0;" width="354" x="201.5" y="187.6953"/><text fill="#000000" font-family="sans-serif" font-size="13" font-weight="bold" lengthAdjust="spacingAndGlyphs" textLength="21" x="216.5" y="200.7622">alt</text><text fill="#000000" font-family="sans-serif" font-size="11" font-weight="bold" lengthAdjust="spacingAndGlyphs" textLength="40" x="282.5" y="199.9058">[V0.3]</text><polygon fill="#A80036" points="456,221.9609,466,225.9609,456,229.9609,460,225.9609" style="stroke:#A80036;stroke-width:1.0;"/><line style="stroke:#A80036;stroke-width:1.0;" x1="296" x2="462" y1="225.9609" y2="225.9609"/><text fill="#000000" font-family="sans-serif" font-size="13" lengthAdjust="spacingAndGlyphs" textLength="37" x="303" y="220.895">ping()</text><polygon fill="#A80036" points="307,251.0938,297,255.0938,307,259.0938,303,255.0938" style="stroke:#A80036;stroke-width:1.0;"/><line style="stroke:#A80036;stroke-width:1.0;stroke-dasharray:2.0,2.0;" x1="301" x2="467" y1="255.0938" y2="255.0938"/><text fill="#000000" font-family="sans-serif" font-size="13" lengthAdjust="spacingAndGlyphs" textLength="90" x="313" y="250.0278">PingResponse</text><line style="stroke:#000000;stroke-width:1.0;stroke-dasharray:2.0,2.0;" x1="201.5" x2="555.5" y1="264.0938" y2="264.0938"/><text fill="#000000" font-family="sans-serif" font-size="11" font-weight="bold" lengthAdjust="spacingAndGlyphs" textLength="80" x="206.5" y="274.3042">[after V0.3]</text><polygon fill="#A80036" points="456,295.0313,466,299.0313,456,303.0313,460,299.0313" style="stroke:#A80036;stroke-width:1.0;"/><line style="stroke:#A80036;stroke-width:1.0;" x1="296" x2="462" y1="299.0313" y2="299.0313"/><text fill="#000000" font-family="sans-serif" font-size="13" lengthAdjust="spacingAndGlyphs" textLength="108" x="303" y="293.9653">getStatus(token)</text><polygon fill="#A80036" points="307,324.1641,297,328.1641,307,332.1641,303,328.1641" style="stroke:#A80036;stroke-width:1.0;"/><line style="stroke:#A80036;stroke-width:1.0;stroke-dasharray:2.0,2.0;" x1="301" x2="467" y1="328.1641" y2="328.1641"/><text fill="#000000" font-family="sans-serif" font-size="13" lengthAdjust="spacingAndGlyphs" textLength="104" x="313" y="323.0981">StatusResponse</text><path d="M301,355.1641 L301,395.1641 L429,395.1641 L429,365.1641 L419,355.1641 L301,355.1641 " fill="#FBFB77" filter="url(#fgqlzjgir5ixe)" style="stroke:#A80036;stroke-width:1.0;"/><path d="M419,355.1641 L419,365.1641 L429,365.1641 L419,355.1641 " fill="#FBFB77" style="stroke:#A80036;stroke-width:1.0;"/><text fill="#000000" font-family="sans-serif" font-size="13" lengthAdjust="spacingAndGlyphs" textLength="106" x="307" y="372.231">internal process,</text><text fill="#000000" font-family="sans-serif" font-size="13" lengthAdjust="spacingAndGlyphs" textLength="107" x="307" y="387.3638">not in the CN API</text><line style="stroke:#A80036;stroke-width:1.0;" x1="296" x2="338" y1="425.5625" y2="425.5625"/><line style="stroke:#A80036;stroke-width:1.0;" x1="338" x2="338" y1="425.5625" y2="438.5625"/><line style="stroke:#A80036;stroke-width:1.0;" x1="297" x2="338" y1="438.5625" y2="438.5625"/><polygon fill="#A80036" points="307,434.5625,297,438.5625,307,442.5625,303,438.5625" style="stroke:#A80036;stroke-width:1.0;"/><text fill="#000000" font-family="sans-serif" font-size="13" lengthAdjust="spacingAndGlyphs" textLength="151" x="303" y="420.4966">processStatusReports()</text><polygon fill="#A80036" points="136,463.6953,126,467.6953,136,471.6953,132,467.6953" style="stroke:#A80036;stroke-width:1.0;"/><line style="stroke:#A80036;stroke-width:1.0;stroke-dasharray:2.0,2.0;" x1="130" x2="295" y1="467.6953" y2="467.6953"/><text fill="#000000" font-family="sans-serif" font-size="13" lengthAdjust="spacingAndGlyphs" textLength="83" x="142" y="462.6294">statusReport</text><!--MD5=[b52a53b45d24b8c73cfe218c12307e21]
@startuml
actor Admin
participant "Admin" as app_admin << Application >>
Admin -> app_admin: login()
participant "State of Health API" as c_health << Coordinating Node >>
participant "State of Health API" as m_health << Member Node >>
app_admin -> c_health: generateReport(token)
loop for each MN
  alt V0.3
    c_health -> m_health: ping()
    m_health - -> c_health: PingResponse
  else after V0.3
    c_health -> m_health: getStatus(token)
    m_health - -> c_health: StatusResponse
  end
end
note right of c_health
  internal process,
  not in the CN API
end note
c_health -> c_health: processStatusReports()
c_health - -> app_admin: statusReport
@enduml

PlantUML version 1.2020.21beta3(Unknown compile time)
(GPL source distribution)
Java Runtime: Java(TM) SE Runtime Environment
JVM: Java HotSpot(TM) 64-Bit Server VM
Default Encoding: UTF-8
Language: en
Country: US
--></g></svg>