<?xml version="1.0" encoding="UTF-8" standalone="no"?><svg xmlns="http://www.w3.org/2000/svg" xmlns:xlink="http://www.w3.org/1999/xlink" contentScriptType="application/ecmascript" contentStyleType="text/css" height="353px" preserveAspectRatio="none" style="width:418px;height:353px;" version="1.1" viewBox="0 0 418 353" width="418px" zoomAndPan="magnify"><defs><filter height="300%" id="f1fy8mbx2whhps" width="300%" x="-1" y="-1"><feGaussianBlur result="blurOut" stdDeviation="2.0"/><feColorMatrix in="blurOut" result="blurOut2" type="matrix" values="0 0 0 0 0 0 0 0 0 0 0 0 0 0 0 0 0 0 .4 0"/><feOffset dx="4.0" dy="4.0" in="blurOut2" result="blurOut3"/><feBlend in="SourceGraphic" in2="blurOut3" mode="normal"/></filter></defs><g><!--MD5=[4a65e84059005d12693a083370a06717]
entity client--><ellipse cx="56" cy="156" fill="#FEFECE" filter="url(#f1fy8mbx2whhps)" rx="8" ry="8" style="stroke:#A80036;stroke-width:1.5;"/><path d="M56,164 L56,191 M43,172 L69,172 M56,191 L43,206 M56,191 L69,206 " fill="none" filter="url(#f1fy8mbx2whhps)" style="stroke:#A80036;stroke-width:1.5;"/><text fill="#000000" font-family="sans-serif" font-size="14" lengthAdjust="spacingAndGlyphs" textLength="31" x="40.5" y="224.4951">User</text><ellipse cx="110.9151" cy="323.183" fill="#FEFECE" filter="url(#f1fy8mbx2whhps)" rx="81.4151" ry="18.683" style="stroke:#A80036;stroke-width:1.5;"/><text fill="#000000" font-family="sans-serif" font-size="14" lengthAdjust="spacingAndGlyphs" textLength="134" x="43.9151" y="327.8315">12. Authentication</text><!--MD5=[79a439086b036a57b90a01d7b2f8bbd1]
entity admin--><ellipse cx="56" cy="14" fill="#FEFECE" filter="url(#f1fy8mbx2whhps)" rx="8" ry="8" style="stroke:#A80036;stroke-width:1.5;"/><path d="M56,22 L56,49 M43,30 L69,30 M56,49 L43,64 M56,49 L69,64 " fill="none" filter="url(#f1fy8mbx2whhps)" style="stroke:#A80036;stroke-width:1.5;"/><text fill="#000000" font-family="sans-serif" font-size="14" lengthAdjust="spacingAndGlyphs" textLength="100" x="6" y="82.4951">Administrator</text><!--MD5=[a7c3fe0f3374b913da9748d1ac0dbbf6]
entity CN--><ellipse cx="208" cy="14" fill="#FEFECE" filter="url(#f1fy8mbx2whhps)" rx="8" ry="8" style="stroke:#A80036;stroke-width:1.5;"/><path d="M208,22 L208,49 M195,30 L221,30 M208,49 L195,64 M208,49 L221,64 " fill="none" filter="url(#f1fy8mbx2whhps)" style="stroke:#A80036;stroke-width:1.5;"/><text fill="#000000" font-family="sans-serif" font-size="14" lengthAdjust="spacingAndGlyphs" textLength="134" x="141" y="82.4951">Coordinating Node</text><!--MD5=[9db44d1591da4edca772ec356c96774d]
entity MN--><ellipse cx="361" cy="14" fill="#FEFECE" filter="url(#f1fy8mbx2whhps)" rx="8" ry="8" style="stroke:#A80036;stroke-width:1.5;"/><path d="M361,22 L361,49 M348,30 L374,30 M361,49 L348,64 M361,49 L374,64 " fill="none" filter="url(#f1fy8mbx2whhps)" style="stroke:#A80036;stroke-width:1.5;"/><text fill="#000000" font-family="sans-serif" font-size="14" lengthAdjust="spacingAndGlyphs" textLength="101" x="310.5" y="82.4951">Member Node</text><ellipse cx="305.1068" cy="322.9214" fill="#FEFECE" filter="url(#f1fy8mbx2whhps)" rx="77.6068" ry="17.9214" style="stroke:#A80036;stroke-width:1.5;"/><text fill="#000000" font-family="sans-serif" font-size="14" lengthAdjust="spacingAndGlyphs" textLength="125" x="242.6068" y="327.5698">13. Authorization</text><ellipse cx="208.0637" cy="187.0127" fill="#FEFECE" filter="url(#f1fy8mbx2whhps)" rx="73.0637" ry="17.0127" style="stroke:#A80036;stroke-width:1.5;"/><text fill="#000000" font-family="sans-serif" font-size="14" lengthAdjust="spacingAndGlyphs" textLength="114" x="151.0637" y="191.6612">03. Register MN</text><!--MD5=[7c48a04fbdc46d6076719f0da194f4f9]
link admin to client--><path d="M56,85.744 C56,98.306 56,112.477 56,126.124 " fill="none" id="admin-to-client" style="stroke:#A80036;stroke-width:1.0;stroke-dasharray:7.0,7.0;"/><polygon fill="none" points="63.0001,126.157,56,146.157,49.0001,126.157,63.0001,126.157" style="stroke:#A80036;stroke-width:1.0;"/><!--MD5=[5df12ba73202914fb5b09a9816581d31]
link admin to register--><path d="M99.1505,85.744 C129.694,113.876 169.003,150.082 191.052,170.39 " fill="none" id="admin-register" style="stroke:#A80036;stroke-width:1.0;"/><!--MD5=[d052f78a5a67cbaa4d45bd2031100fec]
link CN to register--><path d="M208,85.744 C208,113.553 208,149.251 208,169.683 " fill="none" id="CN-register" style="stroke:#A80036;stroke-width:1.0;"/><!--MD5=[f1ff437df918595fbece735bfb8f1465]
link MN to register--><path d="M317.566,85.744 C286.821,113.876 247.253,150.082 225.06,170.39 " fill="none" id="MN-register" style="stroke:#A80036;stroke-width:1.0;"/><!--MD5=[067631ee708cee9407065287652fa11e]
link register to author--><path d="M219.508,203.898 C236.943,227.983 270.079,273.7591 289.582,300.7005 " fill="none" id="register-to-author" style="stroke:#A80036;stroke-width:1.0;stroke-dasharray:7.0,7.0;"/><polygon fill="#A80036" points="292.59,304.8565,290.5526,295.2207,289.658,300.8064,284.0724,299.9118,292.59,304.8565" style="stroke:#A80036;stroke-width:1.0;"/><text fill="#000000" font-family="sans-serif" font-size="13" lengthAdjust="spacingAndGlyphs" textLength="68" x="270" y="270.5669">«includes»</text><!--MD5=[741f1e5a3fa7844ebd36aeda976c7a9e]
link register to authen--><path d="M196.492,203.898 C179.153,227.851 146.282,273.2594 126.739,300.2571 " fill="none" id="register-to-authen" style="stroke:#A80036;stroke-width:1.0;stroke-dasharray:7.0,7.0;"/><polygon fill="#A80036" points="123.722,304.4259,132.2397,299.4814,126.6541,300.3758,125.7596,294.7901,123.722,304.4259" style="stroke:#A80036;stroke-width:1.0;"/><text fill="#000000" font-family="sans-serif" font-size="13" lengthAdjust="spacingAndGlyphs" textLength="68" x="158" y="270.5669">«includes»</text><!--MD5=[c2720eeaccc852ffbbd29339f9990596]
@startuml
actor "User" as client
usecase "12. Authentication" as authen

actor "Administrator" as admin
admin ..|> client
actor "Coordinating Node" as CN
actor "Member Node" as MN
usecase "13. Authorization" as author
usecase "03. Register MN" as register
admin - - register
CN - - register
MN - - register
register ..> author: <<includes>>
register ..> authen: <<includes>>
@enduml

PlantUML version 1.2020.21beta3(Unknown compile time)
(GPL source distribution)
Java Runtime: Java(TM) SE Runtime Environment
JVM: Java HotSpot(TM) 64-Bit Server VM
Default Encoding: UTF-8
Language: en
Country: US
--></g></svg>